<svg width="24" height="24" viewBox="0 0 24 24" fill="none" xmlns="http://www.w3.org/2000/svg">
<path d="M6.29282 14.0094C6.13765 14.0094 5.98279 13.9503 5.86429 13.8318C5.62759 13.5951 5.62759 13.2114 5.86429 12.9748L15.3363 3.50272C15.5727 3.26602 15.9567 3.26602 16.1934 3.50272C16.4301 3.73941 16.4301 4.12309 16.1934 4.35979L6.72136 13.8318C6.60316 13.95 6.44799 14.0094 6.29282 14.0094Z" fill="#595959"/>
<path d="M5.35698 18.3753C5.31486 18.3753 5.27212 18.3708 5.22939 18.3617C4.90208 18.2914 4.69357 17.9692 4.76388 17.6419L5.70036 13.2768C5.77067 12.9495 6.09434 12.7416 6.42014 12.8113C6.74745 12.8816 6.95596 13.2038 6.88565 13.5311L5.94917 17.8962C5.88826 18.1807 5.63671 18.3753 5.35698 18.3753Z" fill="#595959"/>
<path d="M9.72129 17.4388C9.56612 17.4388 9.41125 17.3797 9.29276 17.2612C9.05606 17.0245 9.05606 16.6408 9.29276 16.4041L18.7648 6.9324C19.0012 6.69571 19.3852 6.69571 19.6219 6.9324C19.8586 7.1691 19.8586 7.55278 19.6219 7.78948L10.1501 17.2612C10.0316 17.3797 9.87646 17.4388 9.72129 17.4388Z" fill="#595959"/>
<path d="M5.35574 18.3753C5.07601 18.3753 4.82477 18.1808 4.76355 17.8962C4.69354 17.5689 4.90175 17.2467 5.22906 17.1764L9.59412 16.2399C9.92174 16.1705 10.2439 16.3784 10.3139 16.7054C10.3839 17.0327 10.1757 17.3549 9.8484 17.4252L5.48333 18.3617C5.4406 18.3711 5.39787 18.3753 5.35574 18.3753Z" fill="#595959"/>
<path d="M17.479 9.68082C17.3238 9.68082 17.1686 9.62172 17.0504 9.50322L13.6219 6.07463C13.3852 5.83794 13.3852 5.45426 13.6219 5.21756C13.8582 4.98087 14.2425 4.98087 14.4789 5.21756L17.9075 8.64615C18.1442 8.88285 18.1442 9.26653 17.9075 9.50322C17.7893 9.62172 17.6342 9.68082 17.479 9.68082Z" fill="#595959"/>
<path d="M19.1935 7.96685C19.0383 7.96685 18.8831 7.90775 18.7646 7.78925C18.5279 7.55256 18.5279 7.16887 18.7646 6.93188C19.1019 6.59456 19.2877 6.13784 19.2877 5.64627C19.2877 5.1547 19.1019 4.69797 18.7646 4.36066C18.427 4.02305 17.9703 3.83727 17.4787 3.83727C16.9871 3.83727 16.5304 4.02305 16.1931 4.36066C15.9567 4.59736 15.573 4.59766 15.3357 4.36066C15.099 4.12397 15.099 3.74028 15.3357 3.50329C15.9019 2.93686 16.6629 2.625 17.4787 2.625C18.2943 2.625 19.0556 2.93686 19.6217 3.50329C20.1881 4.06941 20.5 4.83041 20.5 5.64627C20.5 6.46212 20.1881 7.22312 19.6217 7.78925C19.5038 7.90745 19.3486 7.96685 19.1935 7.96685Z" fill="#595959"/>
<path d="M22.75 20.625C22.75 21.035 22.41 21.375 22 21.375H2C1.59 21.375 1.25 21.035 1.25 20.625C1.25 20.215 1.59 19.875 2 19.875H22C22.41 19.875 22.75 20.215 22.75 20.625Z" fill="#595959"/>
</svg>
