<svg width="40" height="40" viewBox="0 0 40 40" fill="none" xmlns="http://www.w3.org/2000/svg">
<path d="M20 0C8.97156 0 0 8.97156 0 20C0 31.0284 8.97156 40 20 40C31.0284 40 40 31.0284 40 20C40 8.97156 31.0284 0 20 0Z" fill="#002395"/>
<path d="M28.9603 21.5999H21.7067V28.4001C21.7067 29.2834 20.9424 30 20.0002 30C19.058 30 18.2936 29.2834 18.2936 28.4001V21.5999H11.0401C10.0979 21.5999 9.3335 20.8833 9.3335 20C9.3335 19.1167 10.0979 18.4001 11.0401 18.4001H18.2936V11.5999C18.2936 10.7166 19.058 10 20.0002 10C20.9424 10 21.7067 10.7166 21.7067 11.5999V18.4001H28.9603C29.9024 18.4001 30.6668 19.1167 30.6668 20C30.6668 20.8833 29.9024 21.5999 28.9603 21.5999Z" fill="#FAFAFA"/>
</svg>
