<svg width="20" height="20" viewBox="0 0 20 20" fill="none" xmlns="http://www.w3.org/2000/svg">
<path d="M17.5001 9.16584H4.51181L8.92265 4.75501C9.00224 4.67813 9.06572 4.58618 9.1094 4.48451C9.15307 4.38284 9.17606 4.27349 9.17702 4.16284C9.17798 4.05219 9.1569 3.94246 9.115 3.84004C9.0731 3.73763 9.01122 3.64459 8.93298 3.56634C8.85473 3.4881 8.76169 3.42622 8.65928 3.38432C8.55686 3.34242 8.44713 3.32134 8.33648 3.3223C8.22583 3.32326 8.11648 3.34625 8.01481 3.38992C7.91314 3.4336 7.82119 3.49708 7.74431 3.57667L1.91098 9.41001C1.75475 9.56628 1.66699 9.7782 1.66699 9.99917C1.66699 10.2201 1.75475 10.4321 1.91098 10.5883L7.74431 16.4217C7.90148 16.5735 8.11198 16.6575 8.33048 16.6556C8.54898 16.6537 8.75799 16.566 8.9125 16.4115C9.067 16.257 9.15464 16.048 9.15654 15.8295C9.15844 15.611 9.07445 15.4005 8.92265 15.2433L4.51181 10.8325H17.5001C17.7212 10.8325 17.9331 10.7447 18.0894 10.5884C18.2457 10.4321 18.3335 10.2202 18.3335 9.99917C18.3335 9.77816 18.2457 9.5662 18.0894 9.40992C17.9331 9.25364 17.7212 9.16584 17.5001 9.16584Z" fill="#8C8C8C"/>
</svg>
