<svg width="20" height="21" viewBox="0 0 20 21" fill="none" xmlns="http://www.w3.org/2000/svg">
<g clip-path="url(#clip0_370_4501)">
<path d="M11.25 3.98333C11.02 3.98333 10.8333 3.79667 10.8333 3.56667V2.16667C10.8333 1.7075 10.4591 1.33333 9.99998 1.33333C9.54081 1.33333 9.16665 1.7075 9.16665 2.16667V3.56667C9.16665 3.79667 8.97998 3.98333 8.74998 3.98333C8.51998 3.98333 8.33331 3.7975 8.33331 3.56667V2.16667C8.33331 1.2475 9.08081 0.5 9.99998 0.5C10.9191 0.5 11.6666 1.2475 11.6666 2.16667V3.56667C11.6666 3.7975 11.48 3.98333 11.25 3.98333Z" fill="#595959"/>
<path d="M9.99998 20.5001C8.39165 20.5001 7.08331 19.1917 7.08331 17.5834C7.08331 17.3534 7.26998 17.1667 7.49998 17.1667C7.72998 17.1667 7.91665 17.3534 7.91665 17.5834C7.91665 18.7317 8.85165 19.6667 9.99998 19.6667C11.1483 19.6667 12.0833 18.7317 12.0833 17.5834C12.0833 17.3534 12.27 17.1667 12.5 17.1667C12.73 17.1667 12.9166 17.3534 12.9166 17.5834C12.9166 19.1917 11.6083 20.5001 9.99998 20.5001Z" fill="#595959"/>
<path d="M17.0834 18H2.91669C2.22752 18 1.66669 17.4392 1.66669 16.75C1.66669 16.3842 1.82585 16.0383 2.10419 15.8C3.41752 14.69 4.16669 13.075 4.16669 11.365V8.83333C4.16669 5.61667 6.78335 3 10 3C13.2167 3 15.8334 5.61667 15.8334 8.83333V11.365C15.8334 13.0758 16.5825 14.69 17.8892 15.7942C18.1742 16.0383 18.3334 16.3842 18.3334 16.75C18.3334 17.4392 17.7734 18 17.0834 18ZM10 3.83333C7.24252 3.83333 5.00002 6.07583 5.00002 8.83333V11.365C5.00002 13.3217 4.14335 15.1675 2.64919 16.4308C2.55335 16.5125 2.50002 16.6283 2.50002 16.75C2.50002 16.98 2.68669 17.1667 2.91669 17.1667H17.0834C17.3134 17.1667 17.5 16.98 17.5 16.75C17.5 16.6283 17.4467 16.5125 17.3542 16.4333C15.8575 15.1675 15 13.3208 15 11.365V8.83333C15 6.07583 12.7575 3.83333 10 3.83333Z" fill="#595959"/>
</g>
<defs>
<clipPath id="clip0_370_4501">
<rect width="20" height="20" fill="white" transform="translate(0 0.5)"/>
</clipPath>
</defs>
</svg>
