<svg width="40" height="40" viewBox="0 0 40 40" fill="none" xmlns="http://www.w3.org/2000/svg">
<rect width="40" height="40" rx="20" fill="#002395"/>
<path fill-rule="evenodd" clip-rule="evenodd" d="M14.2195 8.36597H25.9268V10.6232C26.1681 10.5821 26.4132 10.5609 26.6585 10.5609C28.4878 11.2926 29.5854 11.9968 29.5854 14.2194C29.5854 16.442 28.4878 17.1463 26.6585 17.878C26.4132 17.878 26.1681 17.8568 25.9268 17.8156V19.7074H14.2195V8.36597ZM8.36584 20.0733H31.7805V31.4148H8.36584V20.0733Z" fill="white"/>
<path d="M20 32H8.29268C8.21506 32 8.14061 31.9691 8.08572 31.9142C8.03084 31.8593 8 31.7849 8 31.7073V20C8 19.9223 8.03084 19.8479 8.08572 19.793C8.14061 19.7381 8.21506 19.7073 8.29268 19.7073H20C20.0776 19.7073 20.1521 19.7381 20.207 19.793C20.2618 19.8479 20.2927 19.9223 20.2927 20V31.7073C20.2927 31.7849 20.2618 31.8593 20.207 31.9142C20.1521 31.9691 20.0776 32 20 32ZM8.58537 31.4146H19.7073V20.2926H8.58537V31.4146Z" fill="#002395"/>
<path d="M12.1854 22.7123C12.1078 22.7123 12.0333 22.6814 11.9784 22.6265C11.9235 22.5716 11.8927 22.4972 11.8927 22.4196V20C11.8927 19.9223 11.9235 19.8479 11.9784 19.793C12.0333 19.7381 12.1078 19.7073 12.1854 19.7073C12.263 19.7073 12.3375 19.7381 12.3923 19.793C12.4472 19.8479 12.4781 19.9223 12.4781 20V22.4196C12.4781 22.4972 12.4472 22.5716 12.3923 22.6265C12.3375 22.6814 12.263 22.7123 12.1854 22.7123Z" fill="#002395"/>
<path d="M15.8159 20H16.4013V22.4196H15.8159V20Z" fill="#002395"/>
<path d="M12.1854 23.8894C12.1078 23.8894 12.0333 23.8586 11.9784 23.8037C11.9235 23.7488 11.8927 23.6744 11.8927 23.5967V20C11.8927 19.9223 11.9235 19.8479 11.9784 19.793C12.0333 19.7381 12.1078 19.7073 12.1854 19.7073C12.263 19.7073 12.3375 19.7381 12.3923 19.793C12.4472 19.8479 12.4781 19.9223 12.4781 20V23.5967C12.4781 23.6744 12.4472 23.7488 12.3923 23.8037C12.3375 23.8586 12.263 23.8894 12.1854 23.8894Z" fill="#002395"/>
<path d="M15.8159 20H16.4013V23.5968H15.8159V20Z" fill="#002395"/>
<path d="M16.1073 23.8896C16.0543 23.8897 16.0023 23.8752 15.9569 23.8478L14.1463 22.7611L12.3346 23.8478C12.2681 23.8877 12.1884 23.8996 12.1131 23.8808C12.0377 23.8619 11.973 23.814 11.9331 23.7474C11.8931 23.6808 11.8813 23.6011 11.9001 23.5258C11.9189 23.4505 11.9669 23.3858 12.0335 23.3458L13.9944 22.1687C14.0399 22.1414 14.092 22.127 14.145 22.127C14.1981 22.127 14.2501 22.1414 14.2956 22.1687L16.2566 23.3458C16.3114 23.3787 16.354 23.4286 16.3779 23.4879C16.4017 23.5473 16.4054 23.6128 16.3885 23.6744C16.3716 23.7361 16.3349 23.7905 16.2841 23.8294C16.2334 23.8682 16.1713 23.8894 16.1073 23.8896Z" fill="#002395"/>
<path d="M10.1583 28.3713H10.7437V30.2027H10.1583V28.3713Z" fill="#002395"/>
<path d="M11.5318 28.3713H12.1172V30.2027H11.5318V28.3713Z" fill="#002395"/>
<path d="M31.7073 32H20C19.9224 32 19.8479 31.9691 19.7931 31.9142C19.7382 31.8593 19.7073 31.7849 19.7073 31.7073V20C19.7073 19.9223 19.7382 19.8479 19.7931 19.793C19.8479 19.7381 19.9224 19.7073 20 19.7073H31.7073C31.785 19.7073 31.8594 19.7381 31.9143 19.793C31.9692 19.8479 32 19.9223 32 20V31.7073C32 31.7849 31.9692 31.8593 31.9143 31.9142C31.8594 31.9691 31.785 32 31.7073 32ZM20.2927 31.4146H31.4147V20.2926H20.2927V31.4146Z" fill="#002395"/>
<path d="M23.8927 22.7123C23.815 22.7123 23.7406 22.6814 23.6857 22.6265C23.6308 22.5716 23.6 22.4972 23.6 22.4196V20C23.6 19.9223 23.6308 19.8479 23.6857 19.793C23.7406 19.7381 23.815 19.7073 23.8927 19.7073C23.9703 19.7073 24.0447 19.7381 24.0996 19.793C24.1545 19.8479 24.1853 19.9223 24.1853 20V22.4196C24.1853 22.4972 24.1545 22.5716 24.0996 22.6265C24.0447 22.6814 23.9703 22.7123 23.8927 22.7123Z" fill="#002395"/>
<path d="M27.5231 20H28.1085V22.4196H27.5231V20Z" fill="#002395"/>
<path d="M23.8927 23.8894C23.815 23.8894 23.7406 23.8586 23.6857 23.8037C23.6308 23.7488 23.6 23.6744 23.6 23.5967V20C23.6 19.9223 23.6308 19.8479 23.6857 19.793C23.7406 19.7381 23.815 19.7073 23.8927 19.7073C23.9703 19.7073 24.0447 19.7381 24.0996 19.793C24.1545 19.8479 24.1853 19.9223 24.1853 20V23.5967C24.1853 23.6744 24.1545 23.7488 24.0996 23.8037C24.0447 23.8586 23.9703 23.8894 23.8927 23.8894Z" fill="#002395"/>
<path d="M27.5231 20H28.1085V23.5968H27.5231V20Z" fill="#002395"/>
<path d="M27.8147 23.8896C27.7617 23.8897 27.7097 23.8752 27.6643 23.8478L25.8537 22.7611L24.042 23.8478C24.0091 23.8676 23.9725 23.8807 23.9345 23.8863C23.8965 23.892 23.8577 23.8901 23.8205 23.8808C23.7832 23.8714 23.7481 23.8549 23.7172 23.832C23.6863 23.8091 23.6602 23.7804 23.6405 23.7474C23.6207 23.7144 23.6076 23.6779 23.6019 23.6399C23.5963 23.6019 23.5982 23.5631 23.6075 23.5258C23.6168 23.4885 23.6334 23.4534 23.6563 23.4226C23.6792 23.3917 23.7079 23.3656 23.7409 23.3458L25.7018 22.1687C25.7473 22.1414 25.7994 22.127 25.8524 22.127C25.9055 22.127 25.9575 22.1414 26.003 22.1687L27.964 23.3458C28.0188 23.3787 28.0614 23.4286 28.0853 23.4879C28.1091 23.5473 28.1128 23.6128 28.0959 23.6744C28.079 23.7361 28.0423 23.7905 27.9915 23.8294C27.9408 23.8682 27.8786 23.8894 27.8147 23.8896Z" fill="#002395"/>
<path d="M21.8656 28.3713H22.451V30.2027H21.8656V28.3713Z" fill="#002395"/>
<path d="M23.2392 28.3713H23.8246V30.2027H23.2392V28.3713Z" fill="#002395"/>
<path d="M25.8536 20.2927H14.1463C14.0687 20.2927 13.9943 20.2618 13.9394 20.207C13.8845 20.1521 13.8536 20.0776 13.8536 20V8.29268C13.8536 8.21506 13.8845 8.14061 13.9394 8.08572C13.9943 8.03084 14.0687 8 14.1463 8H25.8536C25.9313 8 26.0057 8.03084 26.0606 8.08572C26.1155 8.14061 26.1463 8.21506 26.1463 8.29268V10.4181H25.561V8.58537H14.439V19.7073H25.561V17.8742H26.1463V20C26.1463 20.0776 26.1155 20.1521 26.0606 20.207C26.0057 20.2618 25.9313 20.2927 25.8536 20.2927Z" fill="#002395"/>
<path d="M18.039 11.005C17.9614 11.005 17.887 10.9741 17.8321 10.9193C17.7772 10.8644 17.7463 10.7899 17.7463 10.7123V8.29268C17.7463 8.21506 17.7772 8.14061 17.8321 8.08572C17.887 8.03084 17.9614 8 18.039 8C18.1166 8 18.1911 8.03084 18.246 8.08572C18.3009 8.14061 18.3317 8.21506 18.3317 8.29268V10.7123C18.3317 10.7899 18.3009 10.8644 18.246 10.9193C18.1911 10.9741 18.1166 11.005 18.039 11.005Z" fill="#002395"/>
<path d="M21.6695 8.29272H22.2549V10.7123H21.6695V8.29272Z" fill="#002395"/>
<path d="M18.039 12.1821C17.9614 12.1821 17.887 12.1513 17.8321 12.0964C17.7772 12.0415 17.7463 11.9671 17.7463 11.8895V8.29268C17.7463 8.21506 17.7772 8.14061 17.8321 8.08572C17.887 8.03084 17.9614 8 18.039 8C18.1166 8 18.1911 8.03084 18.246 8.08572C18.3009 8.14061 18.3317 8.21506 18.3317 8.29268V11.8895C18.3317 11.9671 18.3009 12.0415 18.246 12.0964C18.1911 12.1513 18.1166 12.1821 18.039 12.1821Z" fill="#002395"/>
<path d="M21.6695 8.29272H22.2549V11.8895H21.6695V8.29272Z" fill="#002395"/>
<path d="M21.9609 12.1824C21.9079 12.1824 21.8559 12.1679 21.8105 12.1405L20 11.0538L18.1883 12.1405C18.1217 12.1804 18.042 12.1923 17.9667 12.1735C17.8914 12.1547 17.8266 12.1067 17.7867 12.0401C17.7468 11.9736 17.7349 11.8939 17.7537 11.8185C17.7726 11.7432 17.8205 11.6785 17.8871 11.6386L19.8481 10.4614C19.8936 10.4341 19.9456 10.4197 19.9987 10.4197C20.0517 10.4197 20.1038 10.4341 20.1492 10.4614L22.1102 11.6386C22.1651 11.6714 22.2077 11.7213 22.2315 11.7806C22.2553 11.84 22.2591 11.9055 22.2421 11.9672C22.2252 12.0288 22.1886 12.0832 22.1378 12.1221C22.087 12.161 22.0249 12.1821 21.9609 12.1824Z" fill="#002395"/>
<path d="M16.012 16.6643H16.5973V18.4956H16.012V16.6643Z" fill="#002395"/>
<path d="M17.3856 16.6643H17.9709V18.4956H17.3856V16.6643Z" fill="#002395"/>
<path d="M25.8537 18.167C23.6366 18.167 21.8331 16.3634 21.8331 14.1464C21.8331 11.9293 23.6366 10.1255 25.8537 10.1255C28.0708 10.1255 29.8743 11.9293 29.8743 14.1464C29.8743 16.3634 28.0708 18.167 25.8537 18.167ZM25.8537 10.7109C25.1742 10.7108 24.51 10.9122 23.945 11.2897C23.38 11.6672 22.9396 12.2037 22.6795 12.8315C22.4194 13.4592 22.3514 14.15 22.4839 14.8164C22.6164 15.4829 22.9436 16.095 23.424 16.5755C23.9045 17.056 24.5166 17.3833 25.1831 17.5158C25.8495 17.6484 26.5403 17.5804 27.1681 17.3204C27.7958 17.0604 28.3324 16.62 28.7099 16.0551C29.0874 15.4901 29.2889 14.8259 29.2889 14.1464C29.2879 13.2356 28.9257 12.3624 28.2817 11.7183C27.6377 11.0743 26.7645 10.7119 25.8537 10.7109Z" fill="#002395"/>
<path d="M27.4635 14.5123H26.2195V15.7562C26.2195 15.9178 26.0884 16.0489 25.9269 16.0489C25.7653 16.0489 25.6342 15.9178 25.6342 15.7562V14.5123H24.3903C24.2287 14.5123 24.0976 14.3812 24.0976 14.2196C24.0976 14.0581 24.2287 13.927 24.3903 13.927H25.6342V12.683C25.6342 12.5215 25.7653 12.3904 25.9269 12.3904C26.0884 12.3904 26.2195 12.5215 26.2195 12.683V13.927H27.4635C27.625 13.927 27.7561 14.0581 27.7561 14.2196C27.7561 14.3812 27.625 14.5123 27.4635 14.5123Z" fill="#002395"/>
</svg>
