<svg width="20" height="20" viewBox="0 0 20 20" fill="none" xmlns="http://www.w3.org/2000/svg">
<g clip-path="url(#clip0_120_3533)">
<path d="M16.1386 1.53967H15.3926V0.784808C15.3926 0.353516 15.043 0.00390625 14.6117 0.00390625C14.1804 0.00390625 13.8308 0.353516 13.8308 0.784808V1.53967H6.16913V0.784808C6.16913 0.353516 5.81952 0.00390625 5.38823 0.00390625C4.95693 0.00390625 4.60732 0.353516 4.60732 0.784808V1.53967H3.86137C1.7322 1.53967 0 3.27187 0 5.40099V16.1336C0 18.2628 1.7322 19.995 3.86137 19.995H16.1387C18.2678 19.995 20 18.2628 20 16.1336V5.40099C20 3.27187 18.2678 1.53967 16.1386 1.53967ZM3.86137 3.10147H4.60732V4.62423C4.60732 5.05552 4.95693 5.40513 5.38823 5.40513C5.81952 5.40513 6.16913 5.05552 6.16913 4.62423V3.10147H13.8309V4.62423C13.8309 5.05552 14.1805 5.40513 14.6118 5.40513C15.0431 5.40513 15.3927 5.05552 15.3927 4.62423V3.10147H16.1387C17.4066 3.10147 18.4382 4.13304 18.4382 5.40099V6.14699H1.5618V5.40099C1.5618 4.13304 2.59338 3.10147 3.86137 3.10147ZM16.1386 18.4332H3.86137C2.59338 18.4332 1.5618 17.4016 1.5618 16.1336V7.7088H18.4382V16.1336C18.4382 17.4016 17.4066 18.4332 16.1386 18.4332ZM6.93703 10.7804C6.93703 11.2116 6.58742 11.5613 6.15613 11.5613H4.62036C4.18907 11.5613 3.83946 11.2116 3.83946 10.7804C3.83946 10.3491 4.18907 9.99945 4.62036 9.99945H6.15613C6.58738 9.99945 6.93703 10.3491 6.93703 10.7804ZM16.1606 10.7804C16.1606 11.2116 15.811 11.5613 15.3797 11.5613H13.8439C13.4126 11.5613 13.063 11.2116 13.063 10.7804C13.063 10.3491 13.4126 9.99945 13.8439 9.99945H15.3797C15.8109 9.99945 16.1606 10.3491 16.1606 10.7804ZM11.5444 10.7804C11.5444 11.2116 11.1947 11.5613 10.7634 11.5613H9.22769C8.79639 11.5613 8.44678 11.2116 8.44678 10.7804C8.44678 10.3491 8.79639 9.99945 9.22769 9.99945H10.7634C11.1947 9.99945 11.5444 10.3491 11.5444 10.7804ZM6.93703 15.3877C6.93703 15.819 6.58742 16.1686 6.15613 16.1686H4.62036C4.18907 16.1686 3.83946 15.819 3.83946 15.3877C3.83946 14.9564 4.18907 14.6068 4.62036 14.6068H6.15613C6.58738 14.6068 6.93703 14.9564 6.93703 15.3877ZM16.1606 15.3877C16.1606 15.819 15.811 16.1686 15.3797 16.1686H13.8439C13.4126 16.1686 13.063 15.819 13.063 15.3877C13.063 14.9564 13.4126 14.6068 13.8439 14.6068H15.3797C15.8109 14.6068 16.1606 14.9564 16.1606 15.3877ZM11.5444 15.3877C11.5444 15.819 11.1947 16.1686 10.7634 16.1686H9.22769C8.79639 16.1686 8.44678 15.819 8.44678 15.3877C8.44678 14.9564 8.79639 14.6068 9.22769 14.6068H10.7634C11.1947 14.6068 11.5444 14.9564 11.5444 15.3877Z" fill="#8C8C8C"/>
</g>
<defs>
<clipPath id="clip0_120_3533">
<rect width="20" height="20" fill="white"/>
</clipPath>
</defs>
</svg>
