<svg width="20" height="20" viewBox="0 0 20 20" fill="none" xmlns="http://www.w3.org/2000/svg">
<path d="M13.2 18.5423H6.80003C6.15972 18.5331 5.54649 18.2824 5.08299 17.8406C4.61948 17.3987 4.33986 16.7981 4.30003 16.159L3.5417 4.62565C3.53781 4.54203 3.55054 4.45847 3.57915 4.3798C3.60775 4.30113 3.65167 4.22891 3.70837 4.16732C3.76677 4.10349 3.83748 4.05213 3.91625 4.01632C3.99501 3.98052 4.0802 3.96102 4.1667 3.95899H15.8334C15.9191 3.9588 16.0039 3.97623 16.0826 4.01021C16.1613 4.0442 16.2321 4.094 16.2907 4.15652C16.3493 4.21905 16.3945 4.29296 16.4233 4.37366C16.4521 4.45437 16.4641 4.54014 16.4584 4.62565L15.7334 16.159C15.6931 16.8038 15.4088 17.4091 14.9382 17.8519C14.4676 18.2946 13.8461 18.5415 13.2 18.5423ZM4.8667 5.20899L5.50837 16.084C5.52957 16.4119 5.67496 16.7194 5.91493 16.9439C6.15491 17.1684 6.47142 17.293 6.80003 17.2923H13.2C13.5281 17.291 13.8435 17.1658 14.083 16.9417C14.3226 16.7176 14.4686 16.4112 14.4917 16.084L15.1667 5.25065L4.8667 5.20899Z" fill="#8C8C8C"/>
<path d="M17.5 5.20898H2.5C2.33424 5.20898 2.17527 5.14314 2.05806 5.02593C1.94085 4.90872 1.875 4.74974 1.875 4.58398C1.875 4.41822 1.94085 4.25925 2.05806 4.14204C2.17527 4.02483 2.33424 3.95898 2.5 3.95898H17.5C17.6658 3.95898 17.8247 4.02483 17.9419 4.14204C18.0592 4.25925 18.125 4.41822 18.125 4.58398C18.125 4.74974 18.0592 4.90872 17.9419 5.02593C17.8247 5.14314 17.6658 5.20898 17.5 5.20898Z" fill="#8C8C8C"/>
<path d="M12.5 5.20898H7.5C7.33491 5.20683 7.17719 5.14029 7.06045 5.02354C6.9437 4.90679 6.87716 4.74907 6.875 4.58398V3.08398C6.88556 2.65633 7.06016 2.24912 7.36265 1.94663C7.66513 1.64414 8.07235 1.46955 8.5 1.45898H11.5C11.9348 1.46986 12.3481 1.65024 12.6517 1.96163C12.9553 2.27302 13.1251 2.69075 13.125 3.12565V4.58398C13.1228 4.74907 13.0563 4.90679 12.9396 5.02354C12.8228 5.14029 12.6651 5.20683 12.5 5.20898ZM8.125 3.95898H11.875V3.12565C11.875 3.02619 11.8355 2.93081 11.7652 2.86049C11.6948 2.79016 11.5995 2.75065 11.5 2.75065H8.5C8.40054 2.75065 8.30516 2.79016 8.23483 2.86049C8.16451 2.93081 8.125 3.02619 8.125 3.12565V3.95898Z" fill="#8C8C8C"/>
<path d="M12.5 15.2077C12.3349 15.2055 12.1772 15.139 12.0604 15.0222C11.9437 14.9055 11.8772 14.7478 11.875 14.5827V7.91602C11.875 7.75026 11.9408 7.59128 12.0581 7.47407C12.1753 7.35686 12.3342 7.29102 12.5 7.29102C12.6658 7.29102 12.8247 7.35686 12.9419 7.47407C13.0592 7.59128 13.125 7.75026 13.125 7.91602V14.5827C13.1228 14.7478 13.0563 14.9055 12.9396 15.0222C12.8228 15.139 12.6651 15.2055 12.5 15.2077Z" fill="#8C8C8C"/>
<path d="M7.5 15.2077C7.33491 15.2055 7.17719 15.139 7.06045 15.0222C6.9437 14.9055 6.87716 14.7478 6.875 14.5827V7.91602C6.875 7.75026 6.94085 7.59128 7.05806 7.47407C7.17527 7.35686 7.33424 7.29102 7.5 7.29102C7.66576 7.29102 7.82473 7.35686 7.94194 7.47407C8.05915 7.59128 8.125 7.75026 8.125 7.91602V14.5827C8.12284 14.7478 8.0563 14.9055 7.93955 15.0222C7.82281 15.139 7.66509 15.2055 7.5 15.2077Z" fill="#8C8C8C"/>
<path d="M10 15.2077C9.83491 15.2055 9.67719 15.139 9.56045 15.0222C9.4437 14.9055 9.37716 14.7478 9.375 14.5827V7.91602C9.375 7.75026 9.44085 7.59128 9.55806 7.47407C9.67527 7.35686 9.83424 7.29102 10 7.29102C10.1658 7.29102 10.3247 7.35686 10.4419 7.47407C10.5592 7.59128 10.625 7.75026 10.625 7.91602V14.5827C10.6228 14.7478 10.5563 14.9055 10.4396 15.0222C10.3228 15.139 10.1651 15.2055 10 15.2077Z" fill="#8C8C8C"/>
</svg>
