<?xml version="1.0" encoding="UTF-8"?>
<svg id="Layer_1" data-name="Layer 1" xmlns="http://www.w3.org/2000/svg" viewBox="0 0 20 20">
  <defs>
    <style>
      .cls-1 {
        fill: #595959;
      }
    </style>
  </defs>
  <g id="Layer_2" data-name="Layer 2">
    <path class="cls-1" d="M9.4,10c2.74,0,4.97-2.22,4.97-4.97S12.15.07,9.4.07s-4.97,2.22-4.97,4.97c0,2.74,2.22,4.96,4.97,4.97ZM9.4,1.49c1.96,0,3.55,1.59,3.55,3.55s-1.59,3.55-3.55,3.55-3.55-1.59-3.55-3.55c0-1.96,1.59-3.54,3.55-3.55Z"/>
    <path class="cls-1" d="M17.81,16.38l1.51-1.5c.27-.28.26-.73-.02-1-.27-.27-.71-.27-.99,0l-1.51,1.5-1.51-1.5c-.28-.27-.73-.26-1,.02-.27.27-.27.71,0,.99l1.51,1.5-1.51,1.5c-.28.27-.29.72-.02,1,.27.28.72.29,1,.02,0,0,.01-.01.02-.02l1.51-1.5,1.51,1.5c.28.27.73.26,1-.02.27-.27.27-.71,0-.99l-1.51-1.5Z"/>
    <path class="cls-1" d="M12.55,18.51H2.63c-.24,0-.46-.11-.59-.3-.13-.17-.16-.38-.1-.58,1.41-4.13,5.89-6.34,10.03-4.94.11.04.22.08.33.12.36.14.78-.04.92-.4.14-.36-.04-.78-.4-.92-4.8-1.87-10.2.5-12.07,5.29-.05.13-.1.27-.15.41-.2.63-.09,1.32.3,1.86.41.56,1.05.89,1.74.89h9.92c.39,0,.71-.32.71-.71s-.32-.71-.71-.71h0Z"/>
  </g>
</svg>