<?xml version="1.0" encoding="UTF-8"?>
<svg id="Layer_1" data-name="Layer 1" xmlns="http://www.w3.org/2000/svg" viewBox="0 0 28 28">
  <defs>
    <style>
      .cls-1 {
        fill: #8c8c8c;
      }
    </style>
  </defs>
  <path class="cls-1" d="M26.61,15.37l-4.03-1.68v-1.21c.55-.32,1.04-.75,1.41-1.27.37-.52.63-1.11.76-1.74h.09c.36,0,.71-.13.96-.38.26-.25.41-.59.41-.95,0-.36-.13-.71-.38-.96-.25-.26-.59-.41-.95-.41l.44-1.03c.38-.88.4-1.87.05-2.76-.34-.89-1.02-1.61-1.89-2.01l-1.26-.57c-.75-.33-1.57-.46-2.38-.37-.81.09-1.59.39-2.24.87l-.7.53c-.72.18-1.33.64-1.72,1.28-.21.35-.34.74-.39,1.15-.04.41,0,.82.14,1.21-.68-.14-1.39-.12-2.06.05.19-.82.1-1.68-.28-2.44-.37-.76-.99-1.36-1.76-1.71l-1.26-.57c-.75-.33-1.57-.46-2.38-.37-.81.09-1.59.39-2.24.87l-.7.53c-.41.1-.79.3-1.11.57-.32.27-.58.61-.75.99-.17.38-.26.8-.25,1.22,0,.42.11.83.3,1.21l.67,1.35c-.36,0-.7.16-.95.42s-.38.61-.38.97c0,.36.16.7.42.95.26.25.61.38.97.38h.09c.13.63.39,1.22.76,1.74.37.52.85.95,1.41,1.27v1.21l-4.03,1.68c-.41.17-.76.46-1.01.83C.13,16.57,0,17.01,0,17.46v6.02c0,.12.05.23.13.32.08.08.2.13.32.13h3.16v3.61c0,.12.05.23.13.32s.2.13.32.13h19.87c.12,0,.23-.05.32-.13.08-.08.13-.2.13-.32v-3.61h3.16c.12,0,.23-.05.32-.13.08-.08.13-.2.13-.32v-6.02c0-.45-.13-.88-.38-1.25-.25-.37-.6-.66-1.01-.83ZM15.52,6.19l1.26.57c.65.3,1.16.84,1.42,1.51.26.67.24,1.42-.04,2.07l-.14.31-.46-.94c-.03-.06-.07-.11-.12-.15-.05-.04-.11-.07-.18-.09-.06-.02-.13-.02-.2,0-.07.01-.13.04-.18.08l-.72.54c-.63.47-1.39.72-2.17.72s-1.54-.25-2.17-.72l-.72-.54c-.05-.04-.11-.07-.18-.08-.06-.01-.13-.01-.2,0-.06.02-.12.04-.18.09-.05.04-.09.09-.12.15l-.5,1-.37-.75c-.15-.29-.21-.61-.2-.94.01-.33.11-.64.28-.92.17-.28.41-.51.69-.66s.6-.24.93-.24c.35,0,.69.09,1,.25.31.16.57.4.76.69l.14.21.75-.5-.14-.21c-.4-.6-1.01-1.04-1.7-1.23.51-.32,1.09-.5,1.69-.54.6-.04,1.2.06,1.75.31ZM18.52,12.64h.45c.12,0,.23.05.32.13.08.08.13.2.13.32s-.05.23-.13.32c-.08.08-.2.13-.32.13h-.45v-.9ZM12.65,17.85c.88.28,1.83.28,2.71,0v.92l-1.35,1.35-1.35-1.35v-.92ZM14,17.16c-.96,0-1.88-.38-2.55-1.06-.68-.68-1.06-1.6-1.06-2.55v-1.7l.61-1.23.29.22c.78.59,1.73.9,2.71.9s1.93-.32,2.71-.9l.29-.22.61,1.23v1.7c0,.96-.38,1.88-1.06,2.55-.68.68-1.6,1.06-2.55,1.06ZM9.48,13.54h-.45c-.12,0-.23-.05-.32-.13-.08-.08-.13-.2-.13-.32s.05-.23.13-.32c.08-.08.2-.13.32-.13h.45v.9ZM3.61,22.59v.43H.9v-5.57c0-.27.08-.53.23-.75.15-.22.36-.4.61-.5l4.31-1.79c.08-.03.15-.09.2-.17.05-.07.08-.16.08-.25v-1.78c0-.09-.03-.17-.07-.24-.05-.07-.11-.13-.19-.17-.54-.27-1-.67-1.35-1.16-.35-.49-.56-1.07-.63-1.67-.01-.11-.06-.21-.15-.29-.08-.07-.19-.12-.3-.12h-.48c-.12,0-.23-.05-.32-.13-.08-.08-.13-.2-.13-.32s.05-.23.13-.32c.08-.08.2-.13.32-.13h.45c.06,0,.12-.01.17-.03.05-.02.1-.06.15-.1.04-.04.08-.09.1-.15.02-.06.03-.11.03-.17v-.45c0-.07-.02-.14-.05-.2l-.78-1.55c-.13-.26-.2-.55-.2-.84,0-.29.06-.58.19-.84.13-.26.31-.49.54-.67.23-.18.49-.31.78-.37.06-.01.12-.04.18-.08l.78-.59c.53-.39,1.15-.63,1.8-.7.65-.07,1.31.03,1.91.3l1.26.57c.65.3,1.16.84,1.42,1.51.26.67.24,1.42-.04,2.07l-.07.17c-.17.09-.34.2-.49.32l-.71.53c-.41.1-.78.3-1.11.57-.32.27-.58.61-.75.99-.17.38-.26.8-.25,1.22,0,.42.11.83.3,1.21l.68,1.35h-.4c-.36,0-.7.14-.96.4-.25.25-.4.6-.4.96s.14.7.4.96c.25.25.6.4.96.4h.54c.13.62.39,1.22.76,1.73s.85.95,1.4,1.27v1.17l-6.48,1.8c-.47.13-.89.42-1.19.81-.3.39-.46.87-.46,1.37ZM23.48,27.09h-2.71v-3.61h-.9v3.61h-11.74v-3.61h-.9v3.61h-2.71v-4.5c0-.3.1-.58.28-.82.18-.24.43-.41.72-.49l6.55-1.82,1.62,1.62c.08.08.2.13.32.13s.23-.05.32-.13l1.62-1.62,6.55,1.82c.29.08.54.25.72.49.18.24.28.52.28.82v4.5ZM27.1,23.03h-2.71v-.43c0-.49-.16-.97-.46-1.37-.3-.39-.72-.68-1.19-.81l-6.48-1.8v-1.17c.55-.32,1.03-.75,1.4-1.27.37-.52.63-1.11.76-1.73h.54c.36,0,.7-.14.96-.4s.4-.6.4-.96-.14-.7-.4-.96c-.25-.25-.6-.4-.96-.4h-.41l.44-1.03c.38-.88.4-1.87.05-2.76-.34-.89-1.02-1.61-1.89-2.01l-1.05-.48-.23-.45c-.13-.26-.2-.55-.2-.84,0-.29.06-.58.19-.84.13-.26.31-.49.54-.67.23-.18.49-.31.78-.37.06-.01.12-.04.18-.08l.78-.59c.53-.39,1.15-.63,1.8-.7.65-.07,1.31.03,1.91.3l1.26.57c.65.3,1.16.84,1.42,1.51.26.67.24,1.42-.04,2.07l-.52,1.2c-.02.06-.04.12-.04.18v.45c0,.12.05.23.14.32.08.08.2.13.32.13h.45c.12,0,.23.05.32.13.08.08.13.2.13.32s-.05.23-.13.32c-.08.08-.2.13-.32.13h-.48c-.11,0-.22.04-.3.12-.08.07-.14.18-.15.29-.07.6-.28,1.18-.63,1.67-.35.5-.81.9-1.36,1.16-.08.04-.14.1-.18.17-.04.07-.07.15-.07.24v1.78c0,.09.03.18.08.25.05.07.12.13.2.17l4.31,1.8c.25.1.46.28.61.5.15.22.23.48.23.75v5.57Z"/>
</svg>