<svg width="33" height="32" viewBox="0 0 33 32" fill="none" xmlns="http://www.w3.org/2000/svg">
<path d="M26.7952 24.4408L25.6341 9.80987C25.5617 8.86727 24.7646 8.12886 23.8192 8.12886H21.5258V8.02577C21.5258 5.25454 19.2712 3 16.5 3C13.7288 3 11.4742 5.25454 11.4742 8.02577V8.12886H9.18086C8.23546 8.12886 7.43825 8.86722 7.36614 9.80789L6.20467 24.4427C6.11479 25.6145 6.52129 26.7811 7.31987 27.6433C8.11846 28.5054 9.25053 29 10.4258 29H22.5742C23.7494 29 24.8815 28.5055 25.6801 27.6433C26.4787 26.7811 26.8852 25.6145 26.7952 24.4408ZM12.9972 8.02577C12.9972 6.0943 14.5686 4.52293 16.5 4.52293C18.4314 4.52293 20.0028 6.09436 20.0028 8.02577V8.12886H12.9972V8.02577ZM24.5628 26.6085C24.0439 27.1686 23.3378 27.4771 22.5742 27.4771H10.4258C9.66226 27.4771 8.9561 27.1686 8.43721 26.6085C7.91838 26.0483 7.66478 25.3205 7.72308 24.5612L8.88445 9.92631C8.89623 9.77234 9.02643 9.65179 9.18086 9.65179H11.4742V11.5274C11.4742 11.9479 11.8152 12.2889 12.2357 12.2889C12.6562 12.2889 12.9972 11.9479 12.9972 11.5274V9.65179H20.0028V11.5274C20.0028 11.9479 20.3438 12.2889 20.7643 12.2889C21.1848 12.2889 21.5258 11.9479 21.5258 11.5274V9.65179H23.8192C23.9736 9.65179 24.1038 9.77239 24.1158 9.92834L25.2769 24.5592C25.3353 25.3205 25.0816 26.0482 24.5628 26.6085Z" fill="#8C8C8C"/>
<path d="M19.9304 15.9125C19.6331 15.6151 19.1509 15.6151 18.8536 15.9125L15.4535 19.3126L14.1461 18.0052C13.8488 17.7078 13.3666 17.7078 13.0692 18.0052C12.7718 18.3026 12.7718 18.7847 13.0692 19.082L14.9151 20.9279C15.0638 21.0766 15.2587 21.151 15.4535 21.151C15.6483 21.151 15.8432 21.0766 15.9918 20.9279L19.9303 16.9894C20.2278 16.692 20.2278 16.2099 19.9304 15.9125Z" fill="#8C8C8C"/>
</svg>
