<svg width="32" height="32" viewBox="0 0 32 32" fill="none" xmlns="http://www.w3.org/2000/svg">
<g clip-path="url(#clip0_120_3679)">
<path d="M27.9705 8.73683L16.1654 3.03786C16.0608 2.98738 15.9389 2.98738 15.8343 3.03786L4.02923 8.73683C3.8976 8.80036 3.81396 8.93366 3.81396 9.07981V22.9202C3.81396 23.0663 3.8976 23.1996 4.02923 23.2632L15.8342 28.9621C15.8865 28.9874 15.9432 29 15.9998 29C16.0565 29 16.1131 28.9874 16.1654 28.9621L27.9705 23.2632C28.1021 23.1996 28.1857 23.0663 28.1857 22.9202V9.07986C28.1857 8.93361 28.102 8.80041 27.9705 8.73683ZM15.9998 3.80379L26.9288 9.07981L23.7607 10.6092C23.7407 10.594 23.7195 10.5798 23.6962 10.5686L12.8415 5.3285L15.9998 3.80379ZM11.9814 5.75912L22.8945 11.0275L20.6593 12.1065L9.75075 6.84031L11.9814 5.75912ZM23.1498 11.75V15.7387L21.062 16.7466V12.7579L23.1498 11.75ZM27.424 22.6812L16.3807 28.0123V15.0178L19.0149 13.7462C19.2043 13.6547 19.2837 13.427 19.1923 13.2376C19.1008 13.0482 18.8731 12.9687 18.6837 13.0602L15.9998 14.3559L14.9438 13.846C14.7543 13.7545 14.5267 13.834 14.4352 14.0234C14.3438 14.2128 14.4232 14.4405 14.6126 14.532L15.619 15.0178V28.0123L4.57568 22.6811V9.6866L12.9851 13.7463C13.0384 13.7721 13.0948 13.7843 13.1504 13.7843C13.2919 13.7843 13.4279 13.705 13.4936 13.5689C13.585 13.3795 13.5056 13.1518 13.3162 13.0603L5.07085 9.07981L8.85431 7.25331L20.295 12.7764C20.2967 12.7788 20.2986 12.7808 20.3003 12.7831V17.3534C20.3003 17.4845 20.3677 17.6063 20.4787 17.676C20.5403 17.7147 20.6107 17.7343 20.6812 17.7343C20.7377 17.7343 20.7943 17.7217 20.8468 17.6964L23.6962 16.3208C23.8279 16.2572 23.9115 16.124 23.9115 15.9778V11.3823L27.424 9.68665V22.6812Z" fill="#8C8C8C"/>
<path d="M7.71889 21.2044L5.98649 20.3681C5.79697 20.2765 5.56937 20.3561 5.47791 20.5455C5.38646 20.7349 5.46588 20.9626 5.65529 21.054L7.38769 21.8904C7.44106 21.9162 7.49748 21.9283 7.55299 21.9283C7.69456 21.9283 7.83056 21.849 7.89622 21.713C7.98773 21.5235 7.9083 21.2959 7.71889 21.2044Z" fill="#8C8C8C"/>
<path d="M9.31329 20.1663L5.9889 18.5614C5.79943 18.47 5.57178 18.5494 5.48032 18.7388C5.38892 18.9283 5.46834 19.156 5.65775 19.2474L8.98215 20.8523C9.03552 20.878 9.09194 20.8903 9.14744 20.8903C9.28902 20.8903 9.42501 20.811 9.49067 20.6749C9.58213 20.4854 9.5027 20.2577 9.31329 20.1663Z" fill="#8C8C8C"/>
</g>
<defs>
<clipPath id="clip0_120_3679">
<rect width="26" height="26" fill="white" transform="translate(3 3)"/>
</clipPath>
</defs>
</svg>
