<svg width="33" height="32" viewBox="0 0 33 32" fill="none" xmlns="http://www.w3.org/2000/svg">
<g clip-path="url(#clip0_120_3451)">
<path d="M16.4998 2.66602C9.13984 2.66602 3.1665 8.63935 3.1665 15.9993C3.1665 23.3593 9.13984 29.3327 16.4998 29.3327C23.8598 29.3327 29.8332 23.3593 29.8332 15.9993C29.8332 8.63935 23.8598 2.66602 16.4998 2.66602ZM16.4998 7.99935C19.0732 7.99935 21.1665 10.0927 21.1665 12.666C21.1665 15.2393 19.0732 17.3327 16.4998 17.3327C13.9265 17.3327 11.8332 15.2393 11.8332 12.666C11.8332 10.0927 13.9265 7.99935 16.4998 7.99935ZM16.4998 26.666C13.7932 26.666 10.5932 25.5727 8.31317 22.826C10.5665 21.066 13.4065 19.9993 16.4998 19.9993C19.5932 19.9993 22.4332 21.066 24.6865 22.826C22.4065 25.5727 19.2065 26.666 16.4998 26.666Z" fill="#8C8C8C"/>
</g>
<defs>
<clipPath id="clip0_120_3451">
<rect width="32" height="32" fill="white" transform="translate(0.5)"/>
</clipPath>
</defs>
</svg>
