<svg width="33" height="32" viewBox="0 0 33 32" fill="none" xmlns="http://www.w3.org/2000/svg">
<path d="M12.0702 22.9992C11.8176 22.9984 11.5746 22.9019 11.3902 22.7292C10.477 21.8622 9.74981 20.8185 9.25288 19.6615C8.75595 18.5045 8.49968 17.2584 8.49968 15.9992C8.49968 14.74 8.75595 13.494 9.25288 12.337C9.74981 11.18 10.477 10.1362 11.3902 9.26923C11.587 9.10966 11.837 9.03073 12.0897 9.04839C12.3425 9.06604 12.5791 9.17897 12.7518 9.36435C12.9244 9.54973 13.0203 9.79375 13.02 10.0471C13.0197 10.3004 12.9233 10.5442 12.7502 10.7292C12.0394 11.4106 11.4737 12.2287 11.0873 13.1344C10.7009 14.0401 10.5016 15.0146 10.5016 15.9992C10.5016 16.9839 10.7009 17.9584 11.0873 18.8641C11.4737 19.7697 12.0394 20.5879 12.7502 21.2692C12.8964 21.4061 12.9982 21.5838 13.0422 21.7791C13.0863 21.9745 13.0707 22.1786 12.9974 22.3651C12.9242 22.5515 12.7966 22.7116 12.6313 22.8246C12.466 22.9377 12.2705 22.9985 12.0702 22.9992ZM8.0702 25.6792C8.25645 25.4919 8.36099 25.2384 8.36099 24.9742C8.36099 24.71 8.25645 24.4566 8.0702 24.2692C6.95144 23.2019 6.06087 21.9186 5.4524 20.4971C4.84392 19.0756 4.53019 17.5455 4.53019 15.9992C4.53019 14.453 4.84392 12.9228 5.4524 11.5013C6.06087 10.0798 6.95144 8.79658 8.0702 7.72923C8.26381 7.54225 8.37521 7.28602 8.3799 7.0169C8.38459 6.74779 8.28218 6.48784 8.0952 6.29423C7.90822 6.10062 7.65199 5.98922 7.38288 5.98453C7.11376 5.97984 6.85381 6.08225 6.6602 6.26923C5.34292 7.52443 4.29424 9.03404 3.5777 10.7066C2.86116 12.3791 2.4917 14.1797 2.4917 15.9992C2.4917 17.8188 2.86116 19.6194 3.5777 21.2919C4.29424 22.9644 5.34292 24.474 6.6602 25.7292C6.75642 25.8198 6.86963 25.8903 6.99329 25.9368C7.11694 25.9834 7.24859 26.0049 7.38062 26.0003C7.51266 25.9956 7.64246 25.9649 7.76254 25.9098C7.88262 25.8547 7.99058 25.7763 8.0802 25.6792H8.0702ZM21.6002 22.7292C22.5134 21.8622 23.2406 20.8185 23.7375 19.6615C24.2345 18.5045 24.4907 17.2584 24.4907 15.9992C24.4907 14.74 24.2345 13.494 23.7375 12.337C23.2406 11.18 22.5134 10.1362 21.6002 9.26923C21.5043 9.17927 21.3917 9.10908 21.2687 9.06266C21.1457 9.01624 21.0148 8.99449 20.8834 8.99867C20.752 9.00285 20.6227 9.03287 20.5029 9.08701C20.3831 9.14115 20.2752 9.21836 20.1852 9.31423C20.0952 9.41009 20.0251 9.52274 19.9786 9.64573C19.9322 9.76872 19.9105 9.89965 19.9146 10.031C19.9188 10.1624 19.9488 10.2917 20.003 10.4115C20.0571 10.5313 20.1343 10.6393 20.2302 10.7292C20.9449 11.4084 21.5139 12.2258 21.9028 13.1318C22.2917 14.0377 22.4922 15.0133 22.4922 15.9992C22.4922 16.9851 22.2917 17.9607 21.9028 18.8667C21.5139 19.7727 20.9449 20.5901 20.2302 21.2692C20.0372 21.4499 19.9235 21.6997 19.9142 21.9639C19.9048 22.2281 20.0004 22.4853 20.1802 22.6792C20.2746 22.781 20.3891 22.862 20.5165 22.9171C20.6439 22.9722 20.7814 23.0002 20.9202 22.9992C21.1728 22.9984 21.4158 22.9019 21.6002 22.7292ZM26.3202 25.7292C27.6413 24.4763 28.6935 22.9674 29.4125 21.2946C30.1314 19.6217 30.5022 17.82 30.5022 15.9992C30.5022 14.1784 30.1314 12.3767 29.4125 10.7039C28.6935 9.03107 27.6413 7.52219 26.3202 6.26923C26.1234 6.10966 25.8734 6.03073 25.6207 6.04839C25.3679 6.06604 25.1313 6.17897 24.9586 6.36435C24.786 6.54973 24.6901 6.79375 24.6904 7.0471C24.6907 7.30045 24.7871 7.54424 24.9602 7.72923C26.079 8.79658 26.9695 10.0798 27.578 11.5013C28.1865 12.9228 28.5002 14.453 28.5002 15.9992C28.5002 17.5455 28.1865 19.0756 27.578 20.4971C26.9695 21.9186 26.079 23.2019 24.9602 24.2692C24.7672 24.4499 24.6535 24.6997 24.6441 24.9639C24.6348 25.2281 24.7304 25.4853 24.9102 25.6792C25.0034 25.7798 25.1164 25.8601 25.2419 25.9151C25.3675 25.9702 25.5031 25.9988 25.6402 25.9992C25.8928 25.9984 26.1358 25.9019 26.3202 25.7292ZM18.5002 15.9992C18.5002 15.6037 18.3829 15.217 18.1631 14.8881C17.9434 14.5592 17.631 14.3028 17.2656 14.1515C16.9001 14.0001 16.498 13.9605 16.11 14.0377C15.7221 14.1148 15.3657 14.3053 15.086 14.585C14.8063 14.8647 14.6158 15.2211 14.5386 15.609C14.4615 15.997 14.5011 16.3991 14.6524 16.7646C14.8038 17.13 15.0602 17.4424 15.3891 17.6622C15.718 17.8819 16.1046 17.9992 16.5002 17.9992C17.0306 17.9992 17.5393 17.7885 17.9144 17.4134C18.2895 17.0384 18.5002 16.5297 18.5002 15.9992Z" fill="#8C8C8C"/>
</svg>
