<?xml version="1.0" encoding="UTF-8"?>
<svg id="Layer_1" data-name="Layer 1" xmlns="http://www.w3.org/2000/svg" viewBox="0 0 40 40">
  <defs>
    <style>
      .cls-1 {
        fill: #595959;
      }
    </style>
  </defs>
  <path class="cls-1" d="M20,28.32c-.65,0-1.23-.34-1.55-.9l-7.37-13.09c-.37-.66-.29-1.46.21-2.03.5-.57,1.28-.77,1.98-.49l6.72,2.61,6.72-2.61c.71-.28,1.49-.08,1.98.49.5.57.58,1.37.21,2.03l-7.37,13.09c-.32.57-.9.9-1.55.9ZM12.63,12.89c-.22,0-.37.14-.42.2-.06.07-.25.32-.06.64l7.36,13.09c.15.26.39.29.49.29s.34-.03.49-.29l7.36-13.09c.18-.32,0-.57-.06-.64-.06-.07-.29-.29-.63-.16l-7.16,2.79-7.16-2.79c-.08-.03-.15-.04-.21-.04Z"/>
  <path class="cls-1" d="M33.59,39.34H6.41c-3.17,0-5.75-2.58-5.75-5.75V6.41C.66,3.24,3.24.66,6.41.66h27.18c3.17,0,5.75,2.58,5.75,5.75v27.18c0,3.17-2.58,5.75-5.75,5.75ZM6.41,2.34c-2.25,0-4.07,1.83-4.07,4.07v27.18c0,2.25,1.83,4.07,4.07,4.07h27.18c2.25,0,4.07-1.83,4.07-4.07V6.41c0-2.25-1.83-4.07-4.07-4.07H6.41Z"/>
</svg>