<?xml version="1.0" encoding="UTF-8"?>
<svg id="Layer_1" data-name="Layer 1" xmlns="http://www.w3.org/2000/svg" viewBox="0 0 40 40">
  <defs>
    <style>
      .cls-1 {
        fill: #fff;
      }

      .cls-2 {
        fill: #595959;
      }
    </style>
  </defs>
  <rect class="cls-2" x="1.5" y="1.5" width="37" height="37" rx="4.91" ry="4.91" transform="translate(40 40) rotate(180)"/>
  <path class="cls-1" d="M20,28.22c-.61,0-1.15-.32-1.45-.85l-7.36-13.09c-.35-.62-.27-1.37.19-1.91.47-.54,1.2-.72,1.87-.46l6.76,2.63,6.76-2.63c.67-.26,1.4-.08,1.87.46.47.54.54,1.29.19,1.91l-7.36,13.09c-.3.53-.84.85-1.45.85ZM12.62,12.78c-.26,0-.44.17-.49.24-.07.08-.29.38-.08.76l7.36,13.09c.24.43.93.43,1.17,0l7.36-13.09c.21-.38,0-.68-.08-.76-.07-.08-.34-.34-.75-.19l-7.12,2.77-7.12-2.77c-.09-.04-.18-.05-.25-.05Z"/>
</svg>