<?xml version="1.0" encoding="UTF-8"?>
<svg id="Layer_1" data-name="Layer 1" xmlns="http://www.w3.org/2000/svg" viewBox="0 0 40 40">
  <defs>
    <style>
      .cls-1 {
        fill: #002395;
      }

      .cls-2 {
        fill: #fff;
      }
    </style>
  </defs>
  <path class="cls-1" d="M20,0h0c11.05,0,20,8.95,20,20h0c0,11.05-8.95,20-20,20h0C8.95,40,0,31.05,0,20h0C0,8.95,8.95,0,20,0Z"/>
  <path class="cls-2" d="M25.35,29.62h-10.69c-1.14,0-2.22-.44-3.02-1.25-.81-.81-1.25-1.88-1.25-3.02v-1.07c0-.59.48-1.07,1.07-1.07s1.07.48,1.07,1.07v1.07c0,.57.22,1.11.63,1.51.4.4.94.63,1.51.63h10.69c.57,0,1.11-.22,1.51-.63.4-.4.63-.94.63-1.51v-1.07c0-.59.48-1.07,1.07-1.07s1.07.48,1.07,1.07v1.07c0,1.14-.44,2.22-1.25,3.02-.81.81-1.88,1.25-3.02,1.25h0ZM20,25.35c-.15,0-.29-.03-.42-.08-.12-.05-.23-.12-.33-.22,0,0,0,0,0,0,0,0,0,0,0,0,0,0,0,0,0,0,0,0,0,0,0,0,0,0,0,0,0,0,0,0,0,0,0,0,0,0,0,0,0,0l-4.28-4.28c-.42-.42-.42-1.09,0-1.51.42-.42,1.09-.42,1.51,0l2.45,2.45v-10.25c0-.59.48-1.07,1.07-1.07s1.07.48,1.07,1.07v10.25l2.45-2.45c.42-.42,1.09-.42,1.51,0,.42.42.42,1.09,0,1.51l-4.28,4.28h0s0,0,0,0c0,0,0,0,0,0,0,0,0,0,0,0,0,0,0,0,0,0,0,0,0,0,0,0,0,0,0,0,0,0-.01.01-.02.02-.04.03-.09.08-.19.14-.29.19,0,0,0,0,0,0,0,0,0,0,0,0-.13.05-.27.08-.41.08h0Z"/>
</svg>