<svg width="24" height="24" viewBox="0 0 24 24" fill="none" xmlns="http://www.w3.org/2000/svg">
<path d="M12.0002 16.0002C11.8686 16.0009 11.7381 15.9757 11.6163 15.926C11.4944 15.8762 11.3836 15.8029 11.2902 15.7102L5.29019 9.71019C5.10188 9.52188 4.99609 9.26649 4.99609 9.00019C4.99609 8.73388 5.10188 8.47849 5.29019 8.29019C5.47849 8.10188 5.73388 7.99609 6.00019 7.99609C6.26649 7.99609 6.52188 8.10188 6.71019 8.29019L12.0002 13.5902L17.2902 8.30019C17.4815 8.13636 17.7276 8.05075 17.9792 8.06047C18.2309 8.0702 18.4697 8.17453 18.6477 8.35262C18.8258 8.53072 18.9302 8.76946 18.9399 9.02113C18.9496 9.27281 18.864 9.51888 18.7002 9.71019L12.7002 15.7102C12.5139 15.8949 12.2625 15.9991 12.0002 16.0002Z" fill="#8C8C8C"/>
</svg>
