<svg width="20" height="21" viewBox="0 0 20 21" fill="none" xmlns="http://www.w3.org/2000/svg">
<path fill-rule="evenodd" clip-rule="evenodd" d="M10 18.0001C5.85788 18.0001 2.50002 14.6422 2.50002 10.5001C2.50002 6.35795 5.85788 3.00008 10 3.00008C14.1422 3.00008 17.5 6.35795 17.5 10.5001C17.5 11.1385 17.4203 11.7661 17.2645 12.3727C17.2072 12.5956 17.3414 12.8227 17.5643 12.88C17.7872 12.9372 18.0143 12.803 18.0716 12.5801C18.2448 11.9059 18.3334 11.2086 18.3334 10.5001C18.3334 5.89771 14.6024 2.16675 10 2.16675C5.39765 2.16675 1.66669 5.89771 1.66669 10.5001C1.66669 15.1025 5.39765 18.8334 10 18.8334C10.7482 18.8334 11.4838 18.7347 12.1927 18.5418C12.4148 18.4814 12.5458 18.2524 12.4854 18.0304C12.425 17.8083 12.196 17.6773 11.974 17.7377C11.3362 17.9112 10.6742 18.0001 10 18.0001Z" fill="#595959"/>
<path fill-rule="evenodd" clip-rule="evenodd" d="M10 13.0001C12.1337 13.0001 13.8706 13.5045 15.0787 14.3763C15.2653 14.5109 15.5258 14.4688 15.6604 14.2822C15.7951 14.0956 15.7529 13.8351 15.5663 13.7005C14.2086 12.7208 12.3009 12.1667 10 12.1667C6.85948 12.1667 4.44436 13.2119 3.23425 14.876C3.09891 15.0622 3.14007 15.3227 3.32619 15.4581C3.5123 15.5934 3.77289 15.5522 3.90823 15.3661C4.94884 13.9351 7.10945 13.0001 10 13.0001Z" fill="#595959"/>
<path fill-rule="evenodd" clip-rule="evenodd" d="M13.3334 8.00008C13.3334 6.15913 11.841 4.66675 10 4.66675C8.15907 4.66675 6.66669 6.15913 6.66669 8.00008C6.66669 9.84103 8.15907 11.3334 10 11.3334C11.841 11.3334 13.3334 9.84103 13.3334 8.00008ZM7.50002 8.00008C7.50002 6.61937 8.61931 5.50008 10 5.50008C11.3807 5.50008 12.5 6.61937 12.5 8.00008C12.5 9.38079 11.3807 10.5001 10 10.5001C8.61931 10.5001 7.50002 9.38079 7.50002 8.00008Z" fill="#595959"/>
<path fill-rule="evenodd" clip-rule="evenodd" d="M18.5359 13.9768L14.4111 18.1016L13.2326 16.9231L17.3574 12.7983L18.5359 13.9768ZM17.0624 11.914L12.3484 16.6281C12.1856 16.7908 12.1856 17.0546 12.3484 17.2173L14.1161 18.9851C14.2788 19.1478 14.5427 19.1478 14.7054 18.9851L19.4194 14.2711C19.5821 14.1083 19.5821 13.8445 19.4194 13.6818L17.6517 11.914C17.4889 11.7513 17.2251 11.7513 17.0624 11.914Z" fill="#595959"/>
<path fill-rule="evenodd" clip-rule="evenodd" d="M11.3638 19.4425C11.2911 19.6608 11.4091 19.8968 11.6274 19.9696C11.8457 20.0423 12.0816 19.9244 12.1544 19.7061L13.0383 17.0544C13.1111 16.8361 12.9931 16.6001 12.7748 16.5274C12.5565 16.4546 12.3205 16.5726 12.2477 16.7909L11.3638 19.4425Z" fill="#595959"/>
<path fill-rule="evenodd" clip-rule="evenodd" d="M14.5425 19.0857C14.7608 19.013 14.8788 18.777 14.8061 18.5587C14.7333 18.3404 14.4973 18.2224 14.279 18.2952L11.6274 19.1791C11.4091 19.2518 11.2911 19.4878 11.3638 19.7061C11.4366 19.9244 11.6726 20.0424 11.8909 19.9696L14.5425 19.0857Z" fill="#595959"/>
</svg>
