<svg width="40" height="40" viewBox="0 0 40 40" fill="none" xmlns="http://www.w3.org/2000/svg">
<circle cx="20" cy="20" r="19" fill="#F5F5F5" stroke="white" stroke-width="2"/>
<g clip-path="url(#clip0_120_3704)">
<path d="M15.143 23.4766L23.9621 14.6575L22.7326 13.4279L13.9134 22.2471V23.4766H15.143ZM15.8639 25.2158H12.1743V21.5262L22.1178 11.5827C22.2809 11.4197 22.502 11.3281 22.7326 11.3281C22.9632 11.3281 23.1843 11.4197 23.3474 11.5827L25.8074 14.0427C25.9704 14.2058 26.062 14.4269 26.062 14.6575C26.062 14.8881 25.9704 15.1092 25.8074 15.2723L15.8639 25.2158V25.2158ZM12.1743 26.9549H27.8265V28.694H12.1743V26.9549Z" fill="black"/>
</g>
<defs>
<clipPath id="clip0_120_3704">
<rect width="20.8696" height="20.8696" fill="white" transform="translate(9.56543 9.56445)"/>
</clipPath>
</defs>
</svg>
