<svg width="273" height="273" viewBox="0 0 273 273" fill="none" xmlns="http://www.w3.org/2000/svg">
<path d="M273 208.789H0V208.926H273V208.789Z" fill="#EBEBEB"/>
<path d="M245.646 217.578H227.562V217.715H245.646V217.578Z" fill="#EBEBEB"/>
<path d="M180.846 219.06H176.1V219.196H180.846V219.06Z" fill="#EBEBEB"/>
<path d="M227.015 212.508H216.536V212.644H227.015V212.508Z" fill="#EBEBEB"/>
<path d="M52.226 213.425H28.6426V213.561H52.226V213.425Z" fill="#EBEBEB"/>
<path d="M60.5452 213.425H57.0874V213.561H60.5452V213.425Z" fill="#EBEBEB"/>
<path d="M122.93 215.73H71.7832V215.867H122.93V215.73Z" fill="#EBEBEB"/>
<path d="M129.409 184.439H23.9774C22.2591 184.439 20.8608 183.041 20.8608 181.322V33.1205C20.8608 31.4022 22.2591 30.0039 23.9774 30.0039H129.409C131.127 30.0039 132.525 31.4022 132.525 33.1205V181.322C132.525 183.041 131.127 184.439 129.409 184.439ZM23.9774 30.141C22.3339 30.141 20.9973 31.4776 20.9973 33.121V181.323C20.9973 182.966 22.3339 184.303 23.9774 184.303H129.409C131.052 184.303 132.389 182.966 132.389 181.323V33.1205C132.389 31.4776 131.052 30.1404 129.409 30.1404L23.9774 30.141Z" fill="#EBEBEB"/>
<path d="M247.507 184.439H142.076C140.358 184.439 138.96 183.041 138.96 181.322V33.1205C138.96 31.4022 140.358 30.0039 142.076 30.0039H247.507C249.226 30.0039 250.624 31.4022 250.624 33.1205V181.322C250.625 183.041 249.226 184.439 247.507 184.439ZM142.076 30.141C140.433 30.141 139.096 31.4776 139.096 33.121V181.323C139.096 182.966 140.433 184.303 142.076 184.303H247.507C249.151 184.303 250.488 182.966 250.488 181.323V33.1205C250.488 31.4776 249.151 30.1404 247.507 30.1404L142.076 30.141Z" fill="#EBEBEB"/>
<path d="M119.272 156.084H50.248V160.956H119.272V156.084Z" fill="#EBEBEB"/>
<path d="M119.271 156.084H89.2583V160.956H119.271V156.084Z" fill="#E0E0E0"/>
<path d="M60.4457 160.956H50.248V208.79H60.4457V160.956Z" fill="#EBEBEB"/>
<path d="M60.4457 165.893L50.248 162.42V160.956H60.4457V165.893Z" fill="#E0E0E0"/>
<path d="M119.272 160.956H109.074V208.79H119.272V160.956Z" fill="#E0E0E0"/>
<path d="M99.4565 160.956H89.2583V208.79H99.4565V160.956Z" fill="#EBEBEB"/>
<path d="M99.4565 165.893L89.2583 162.42V160.956H99.4565V165.893Z" fill="#E0E0E0"/>
<path d="M80.2611 160.956H70.0635V208.79H80.2611V160.956Z" fill="#E0E0E0"/>
<path d="M125.762 47.5928H38.7661V121.667H125.762V47.5928Z" fill="#EBEBEB"/>
<path d="M125.762 121.667H126.733L126.733 47.5928H125.762L125.762 121.667Z" fill="#E0E0E0"/>
<path d="M122.486 118.391L122.486 50.8691L42.0425 50.8691L42.0425 118.391L122.486 118.391Z" fill="#F5F5F5"/>
<path d="M81.293 108.138C86.1933 91.7435 87.572 67.5989 98.0257 70.9317C108.479 74.2644 94.7852 109.988 94.7852 109.988L81.293 108.138Z" fill="white"/>
<path d="M89.7363 108.956C84.7344 85.2158 85.9951 53.6985 70.4554 54.4214C54.9157 55.1443 70.4554 109.988 70.4554 109.988L89.7363 108.956Z" fill="white"/>
<path d="M100.712 106.292H66.6961C65.1837 106.292 64.0354 107.402 63.9737 108.806C63.282 124.475 65.8487 140.448 70.6257 156.083H96.6748C101.452 140.448 104.018 124.475 103.326 108.806C103.264 107.402 102.118 106.292 100.712 106.292Z" fill="#EBEBEB"/>
<path d="M178.105 55.8545H176.188V208.79H178.105V55.8545Z" fill="#E0E0E0"/>
<path d="M223.146 55.8545H221.229V208.79H223.146V55.8545Z" fill="#E0E0E0"/>
<path d="M164.515 55.8545H162.598V208.79H164.515V55.8545Z" fill="#EBEBEB"/>
<path d="M209.555 55.8545H207.639V208.79H209.555V55.8545Z" fill="#EBEBEB"/>
<path d="M223.146 54.8086H162.598V56.8992H223.146V54.8086Z" fill="#EBEBEB"/>
<path d="M223.146 92.2598H162.598V94.3504H223.146V92.2598Z" fill="#EBEBEB"/>
<path d="M223.146 129.709H162.598V131.8H223.146V129.709Z" fill="#EBEBEB"/>
<path d="M223.146 167.159H162.598V169.25H223.146V167.159Z" fill="#EBEBEB"/>
<path d="M223.146 204.609H162.598V206.7H223.146V204.609Z" fill="#EBEBEB"/>
<path d="M223.146 54.8086H209.555V56.8992H223.146V54.8086Z" fill="#E0E0E0"/>
<path d="M223.146 92.2588H209.555V94.3494H223.146V92.2588Z" fill="#E0E0E0"/>
<path d="M223.146 129.709H209.555V131.8H223.146V129.709Z" fill="#E0E0E0"/>
<path d="M223.146 167.158H209.555V169.249H223.146V167.158Z" fill="#E0E0E0"/>
<path d="M223.146 204.608H209.555V206.699H223.146V204.608Z" fill="#E0E0E0"/>
<path d="M187.024 67.5469V64.5996H179.743V67.5469C179.743 69.4721 178.182 71.0331 176.257 71.0331C174.331 71.0331 172.771 72.5941 172.771 74.5193V92.2589H193.997V74.5193C193.997 72.5936 192.436 71.0331 190.511 71.0331C188.584 71.0331 187.024 69.4721 187.024 67.5469Z" fill="#F0F0F0"/>
<path d="M202.087 117.529H170.19V129.709H202.087V117.529Z" fill="#F0F0F0"/>
<path d="M202.086 129.709H207.639V117.529H202.086V129.709Z" fill="#E6E6E6"/>
<path d="M202.086 124.29H207.639V122.948H202.086V124.29Z" fill="#EBEBEB"/>
<path d="M202.087 122.948H170.19V124.29H202.087V122.948Z" fill="#F5F5F5"/>
<path d="M193.539 183.075H168.624V204.609H193.539V183.075Z" fill="#F0F0F0"/>
<path d="M193.539 204.609H197.876V183.076H193.539V204.609Z" fill="#E6E6E6"/>
<path d="M193.539 195.028H197.876V192.656H193.539V195.028Z" fill="#EBEBEB"/>
<path d="M193.539 192.656H168.624V195.029H193.539V192.656Z" fill="#F5F5F5"/>
<path d="M193.539 190.991H197.876V190.144H193.539V190.991Z" fill="#EBEBEB"/>
<path d="M193.539 190.144H168.624V190.991H193.539V190.144Z" fill="#F5F5F5"/>
<path d="M174.702 145.265H170.19V167.158H174.702V145.265Z" fill="#F0F0F0"/>
<path d="M174.702 153.065H170.19V159.357H174.702V153.065Z" fill="#FAFAFA"/>
<path d="M174.702 167.158H190.044V145.265H174.702V167.158Z" fill="#E6E6E6"/>
<path d="M181.668 142.434H176.572V167.158H181.668V142.434Z" fill="#EBEBEB"/>
<path d="M181.668 150.292H176.572V154.099H181.668V150.292Z" fill="#FAFAFA"/>
<path d="M181.668 156.648H176.572V160.455H181.668V156.648Z" fill="#FAFAFA"/>
<path d="M181.668 167.158H198.994V142.434H181.668V167.158Z" fill="#E0E0E0"/>
<path d="M187.336 145.265H184.592V167.158H187.336V145.265Z" fill="#F0F0F0"/>
<path d="M186.864 148.039H185.063V164.385H186.864V148.039Z" fill="#FAFAFA"/>
<path d="M187.336 167.158H196.665V145.265H187.336V167.158Z" fill="#E6E6E6"/>
<path d="M194.67 144.109H191.571V167.158H194.67V144.109Z" fill="#EBEBEB"/>
<path d="M194.67 151.436H191.571V154.985H194.67V151.436Z" fill="#FAFAFA"/>
<path d="M194.67 157.36H191.571V160.909H194.67V157.36Z" fill="#FAFAFA"/>
<path d="M194.67 167.158H205.207V144.109H194.67V167.158Z" fill="#E0E0E0"/>
<path d="M193.256 115.541C195.907 112.89 195.907 108.591 193.256 105.939C190.604 103.288 186.305 103.288 183.654 105.939C181.002 108.591 181.002 112.89 183.654 115.541C186.305 118.193 190.604 118.193 193.256 115.541Z" fill="#F5F5F5"/>
<path d="M196.729 117.466C199.295 117.05 201.038 114.631 200.622 112.065C200.205 109.498 197.787 107.755 195.22 108.172C192.653 108.588 190.91 111.007 191.327 113.573C191.744 116.14 194.162 117.883 196.729 117.466Z" fill="#EBEBEB"/>
<path d="M136.5 233.449C194.967 233.449 242.364 230.681 242.364 227.266C242.364 223.852 194.967 221.084 136.5 221.084C78.0334 221.084 30.6367 223.852 30.6367 227.266C30.6367 230.681 78.0334 233.449 136.5 233.449Z" fill="#F5F5F5"/>
<path d="M138.986 184.925H68.855V221.144C68.855 223.095 70.4367 224.677 72.3876 224.677H135.453C137.404 224.677 138.985 223.095 138.985 221.144L138.986 184.925Z" fill="#407BFF"/>
<path d="M68.8551 184.925H118.477L112.372 177.113C111.702 176.256 110.04 175.562 108.66 175.562H64.0377C62.6569 175.562 62.0809 176.256 62.7503 177.113L68.8551 184.925Z" fill="#407BFF"/>
<path opacity="0.2" d="M68.8551 184.925H118.477L112.372 177.113C111.702 176.256 110.04 175.562 108.66 175.562H64.0377C62.6569 175.562 62.0809 176.256 62.7503 177.113L68.8551 184.925Z" fill="black"/>
<path d="M138.986 184.924H89.3638L95.4691 179.832C96.1385 179.274 97.8006 178.821 99.1808 178.821H143.803C145.184 178.821 145.76 179.274 145.091 179.832L138.986 184.924Z" fill="#407BFF"/>
<path opacity="0.2" d="M138.986 184.925H89.3638V221.144C89.3638 223.095 90.9455 224.677 92.8964 224.677H135.453C137.404 224.677 138.985 223.095 138.985 221.144L138.986 184.925Z" fill="white"/>
<path opacity="0.5" d="M75.0146 184.925V209.758L76.7296 208.404L77.9368 209.758L78.9873 208.25L80.0586 209.758L81.5584 208.624L83.2046 209.758V184.925H75.0146Z" fill="white"/>
<path d="M86.1178 130.756L77.2988 123.353" stroke="#407BFF" stroke-miterlimit="10"/>
<path d="M90.6872 134.593L87.9976 132.335" stroke="#407BFF" stroke-miterlimit="10"/>
<path d="M117.103 150.089L146.192 113.729L107.46 81.2119L81.7786 110.657L77.9774 118.023C77.1786 118.939 77.2894 120.224 78.2356 121.018L113.187 150.361C114.315 151.308 116.151 151.181 117.103 150.089Z" fill="#407BFF"/>
<path opacity="0.5" d="M97.1512 123.277L92.9634 130.022L94.6472 130.384L95.2195 131.949L96.342 132.015L96.858 133.349L98.2301 133.751L99.2872 135.424L103.474 128.679L97.1512 123.277Z" fill="white"/>
<path opacity="0.1" d="M144.926 112.666L118.837 141.769L81.7788 110.658L107.46 81.2129L144.926 112.666Z" fill="black"/>
<path d="M144.926 112.666L118.837 141.769L129.638 142.568L155.321 113.123L144.926 112.666Z" fill="#407BFF"/>
<path opacity="0.3" d="M144.926 112.666L118.837 141.769L129.638 142.568L155.321 113.123L144.926 112.666Z" fill="black"/>
<path d="M97.066 80.7559L70.9771 109.859L81.7786 110.658L107.46 81.2129L97.066 80.7559Z" fill="#407BFF"/>
<path opacity="0.4" d="M97.066 80.7559L70.9771 109.859L81.7786 110.658L107.46 81.2129L97.066 80.7559Z" fill="black"/>
<path opacity="0.1" d="M136.892 121.628L144.926 112.666L107.46 81.2129L102.662 92.7646L136.892 121.628Z" fill="black"/>
<path opacity="0.2" d="M81.7788 110.658L107.46 81.2129L102.662 92.7646L84.5803 113.01L81.7788 110.658Z" fill="black"/>
<path d="M153.979 57.8801C154.082 58.2328 153.98 58.573 153.749 58.6407C153.519 58.7084 153.248 58.4774 153.145 58.1247C153.041 57.772 153.144 57.4319 153.375 57.3642C153.605 57.297 153.876 57.528 153.979 57.8801Z" fill="#263238"/>
<path d="M154.013 58.5635C154.013 58.5635 153.808 60.8326 153.214 62.0726C154.008 62.4717 154.991 61.8946 154.991 61.8946L154.013 58.5635Z" fill="#ED847E"/>
<path d="M154.696 55.5436C154.742 55.5191 154.78 55.4776 154.798 55.4246C154.838 55.3121 154.779 55.1893 154.666 55.1494C153.54 54.7525 152.744 55.3498 152.71 55.3755C152.615 55.4481 152.597 55.5835 152.67 55.678C152.743 55.7724 152.879 55.7888 152.972 55.7184C152.998 55.6987 153.625 55.2401 154.523 55.5562C154.582 55.5769 154.644 55.5704 154.696 55.5436Z" fill="#263238"/>
<path d="M166.116 60.2147C166.354 63.1085 167.071 68.4183 168.781 69.6272C168.781 69.6272 168.374 73.1041 162.249 74.0088C155.514 75.0036 158.537 71.1407 158.537 71.1407C162.083 69.72 161.585 67.0069 160.567 64.5401L163.169 61.5573C164.146 60.4369 165.993 58.7334 166.116 60.2147Z" fill="#FFC3BD"/>
<path d="M170.981 71.0386C171.53 70.5428 170.424 68.5564 169.764 68.2796C168.005 67.5409 160.812 68.2709 158.108 70.5963C157.333 71.8264 157.895 73.1565 157.895 73.1565L170.981 71.0386Z" fill="white"/>
<path d="M193.88 216.985C193.433 217.122 192.98 217.186 192.745 217.018C192.646 216.948 192.541 216.805 192.599 216.528C192.629 216.382 192.713 216.267 192.849 216.188C193.437 215.844 194.893 216.298 194.956 216.318C194.996 216.331 195.025 216.367 195.03 216.409C195.035 216.451 195.014 216.492 194.978 216.514C194.771 216.636 194.329 216.847 193.88 216.985ZM193.08 216.322C193.035 216.336 192.993 216.353 192.957 216.374C192.875 216.422 192.827 216.487 192.809 216.572C192.768 216.77 192.845 216.825 192.87 216.843C193.132 217.03 194.022 216.763 194.639 216.453C194.193 216.337 193.476 216.201 193.08 216.322Z" fill="#407BFF"/>
<path d="M194.954 216.525C194.937 216.53 194.919 216.531 194.901 216.527C194.375 216.421 193.212 215.734 193.155 215.22C193.145 215.127 193.163 214.955 193.401 214.849C193.555 214.78 193.716 214.78 193.881 214.847C194.513 215.105 195.003 216.33 195.023 216.382C195.038 216.419 195.032 216.46 195.006 216.49C194.992 216.507 194.974 216.519 194.954 216.525ZM193.534 215.029C193.519 215.034 193.503 215.039 193.488 215.046C193.359 215.103 193.366 215.168 193.37 215.196C193.403 215.5 194.179 216.05 194.731 216.253C194.567 215.902 194.204 215.212 193.798 215.047C193.706 215.008 193.619 215.002 193.534 215.029Z" fill="#407BFF"/>
<path d="M161.879 222.848C161.295 222.848 160.73 222.768 160.541 222.505C160.475 222.414 160.423 222.257 160.55 222.034C160.621 221.909 160.737 221.824 160.892 221.781C161.65 221.575 163.242 222.483 163.309 222.521C163.348 222.544 163.369 222.588 163.362 222.632C163.355 222.676 163.32 222.712 163.277 222.721C162.986 222.779 162.424 222.848 161.879 222.848ZM161.157 221.965C161.081 221.965 161.011 221.973 160.948 221.99C160.849 222.017 160.78 222.066 160.737 222.141C160.661 222.275 160.688 222.341 160.716 222.379C160.928 222.674 162.08 222.681 162.927 222.561C162.503 222.344 161.689 221.965 161.157 221.965Z" fill="#407BFF"/>
<path d="M163.255 222.723C163.24 222.723 163.225 222.72 163.211 222.714C162.661 222.467 161.572 221.482 161.655 220.967C161.675 220.846 161.761 220.696 162.057 220.666C162.278 220.643 162.479 220.705 162.656 220.851C163.235 221.327 163.358 222.554 163.363 222.606C163.367 222.644 163.35 222.681 163.318 222.703C163.299 222.716 163.277 222.723 163.255 222.723ZM162.143 220.877C162.122 220.877 162.1 220.878 162.079 220.88C161.885 220.9 161.872 220.976 161.868 221.001C161.819 221.31 162.558 222.085 163.119 222.422C163.061 222.063 162.899 221.329 162.518 221.017C162.404 220.923 162.281 220.877 162.143 220.877Z" fill="#407BFF"/>
<path d="M168.264 222.615H163.709L163.255 212.067H167.81L168.264 222.615Z" fill="#FFC3BD"/>
<path d="M200.288 215.414L196.091 216.861L191.735 206.916L195.932 205.469L200.288 215.414Z" fill="#FFC3BD"/>
<path d="M195.092 215.818L199.985 214.317C200.163 214.263 200.355 214.339 200.447 214.501L202.494 218.108C202.706 218.482 202.507 218.959 202.094 219.078C200.377 219.573 199.517 219.727 197.365 220.387C196.041 220.792 192.701 222.059 190.827 222.436C188.994 222.804 188.335 221.009 189.069 220.686C192.358 219.242 193.69 217.598 194.468 216.303C194.608 216.068 194.832 215.897 195.092 215.818Z" fill="#263238"/>
<path d="M163.739 222.088H168.713C168.9 222.088 169.061 222.217 169.101 222.399L170.001 226.448C170.094 226.868 169.775 227.265 169.346 227.258C167.551 227.227 164.959 227.123 162.704 227.123C160.066 227.123 158.955 227.266 155.862 227.266C153.992 227.266 153.473 225.376 154.256 225.204C157.819 224.425 159.563 224.341 162.642 222.443C162.977 222.236 163.346 222.088 163.739 222.088Z" fill="#263238"/>
<path d="M176.98 72.5312C178.305 73.7494 179.453 74.967 180.641 76.237C181.803 77.514 182.936 78.8277 184.006 80.2277C185.085 81.6216 186.11 83.0854 187.04 84.7294C187.504 85.5566 187.949 86.4264 188.32 87.4267C188.412 87.6806 188.506 87.9246 188.585 88.2075C188.666 88.4794 188.747 88.7502 188.808 89.0614L188.901 89.5135L188.965 90.0158C189.004 90.2588 189.044 90.9227 188.967 91.407C188.825 92.4313 188.425 93.2208 188.028 93.8291C187.624 94.434 187.191 94.8845 186.771 95.2782C185.926 96.0557 185.098 96.6028 184.278 97.0958C182.636 98.0611 181.007 98.754 179.375 99.3808C176.101 100.611 172.837 101.468 169.451 102.109L168.496 98.8255C171.46 97.5408 174.462 96.1567 177.249 94.6732C178.638 93.9279 179.986 93.1286 181.128 92.2834C181.695 91.8668 182.211 91.4229 182.545 91.0308C182.713 90.8392 182.826 90.6579 182.87 90.5629C182.909 90.4695 182.853 90.481 182.81 90.6781C182.774 91.0439 182.782 90.76 182.691 90.564C182.666 90.4684 182.614 90.3456 182.565 90.2238C182.525 90.1081 182.455 89.9705 182.394 89.8384C182.136 89.3027 181.794 88.7049 181.408 88.1075C180.623 86.9085 179.674 85.6931 178.677 84.4979C177.674 83.3055 176.615 82.1223 175.529 80.9571C174.462 79.7909 173.298 78.6241 172.231 77.5408L176.98 72.5312Z" fill="#FFC3BD"/>
<path d="M169.733 98.3203L165.41 99.6198L168.172 104.163C168.172 104.163 170.715 103.112 171.273 100.955L169.733 98.3203Z" fill="#FFC3BD"/>
<path d="M163.703 101.226L165.394 104.974L168.172 104.163L165.409 99.6201L163.703 101.226Z" fill="#FFC3BD"/>
<path d="M166.911 73.7662C166.5 78.1266 175.741 84.8904 175.741 84.8904L184.637 78.8031C184.637 78.8031 182.808 74.8844 178.073 71.8432C172.983 68.5749 167.423 68.3384 166.911 73.7662Z" fill="#407BFF"/>
<g opacity="0.3">
<path d="M166.911 73.7662C166.5 78.1266 175.741 84.8904 175.741 84.8904L184.637 78.8031C184.637 78.8031 182.808 74.8844 178.073 71.8432C172.983 68.5749 167.423 68.3384 166.911 73.7662Z" fill="white"/>
</g>
<path d="M151.79 73.4141C151.79 73.4141 147.795 79.5397 157.276 112.4L181.376 108.84C181.036 105.508 177.004 90.9812 176.872 75.0947C176.845 71.8701 174.137 69.306 170.916 69.4693C170.212 69.5053 169.492 69.5556 168.781 69.626C165.68 69.9323 161.207 70.4925 158.536 71.1395C155.015 71.9929 151.79 73.4141 151.79 73.4141Z" fill="#407BFF"/>
<g opacity="0.3">
<path d="M151.79 73.4141C151.79 73.4141 147.795 79.5397 157.276 112.4L181.376 108.84C181.036 105.508 177.004 90.9812 176.872 75.0947C176.845 71.8701 174.137 69.306 170.916 69.4693C170.212 69.5053 169.492 69.5556 168.781 69.626C165.68 69.9323 161.207 70.4925 158.536 71.1395C155.015 71.9929 151.79 73.4141 151.79 73.4141Z" fill="white"/>
</g>
<path opacity="0.2" d="M151.197 83.9732L151.277 83.8799L156.948 84.3833C157.808 88.042 154.654 93.033 152.99 95.3464C152.021 90.6574 151.477 86.9276 151.197 83.9732Z" fill="black"/>
<path opacity="0.2" d="M163.256 212.069L163.489 217.506H168.046L167.813 212.069H163.256Z" fill="black"/>
<path opacity="0.2" d="M195.934 205.471L191.735 206.919L193.983 212.044L198.181 210.596L195.934 205.471Z" fill="black"/>
<path d="M165.518 53.6812C166.523 58.0885 167.335 60.617 165.801 63.4808C163.493 67.7887 157.567 67.3749 155.266 63.3563C153.194 59.7396 151.899 53.1395 155.631 50.1731C159.307 47.2504 164.513 49.2739 165.518 53.6812Z" fill="#FFC3BD"/>
<path d="M156.668 58.0022L154.99 59.0281L155.151 53.2951C155.151 53.2951 153.392 53.4163 152.117 52.4155C152.724 51.8389 162.158 48.5329 165.1 49.1089C165.404 48.9801 165.779 48.4111 165.779 48.4111C165.779 48.4111 165.892 49.128 165.392 49.401C165.756 49.3328 166.653 49.5037 166.905 50.0344C166.114 49.8673 165.654 50.1065 165.654 50.1065C165.654 50.1065 168.954 50.6017 167.769 55.1455C166.465 60.1507 166.898 63.0319 166.898 63.0319C166.898 63.0319 164.463 64.9129 162.34 64.564C160.08 62.0764 156.819 59.0843 156.668 58.0022Z" fill="#263238"/>
<path d="M153.459 51.9613C150.797 51.9842 149.842 50.6645 149.159 49.5725C151.07 49.3678 155.052 48.1393 158.009 47.9345C160.966 47.7298 164.197 48.2758 163.219 49.5496C162.241 50.8234 153.459 51.9613 153.459 51.9613Z" fill="#263238"/>
<path d="M154.045 50.7768C151.875 50.4743 149.728 48.412 151.366 46.4404C151.973 47.8922 156.065 47.7224 158.967 47.1153C162.772 46.3192 165.437 47.605 164.082 50.2089C163.34 51.634 154.045 50.7768 154.045 50.7768Z" fill="#263238"/>
<path d="M159.029 56.6987C159.375 57.8311 159.248 59.0645 158.883 59.9763C158.334 61.3479 157.126 61.0711 156.496 59.8835C155.929 58.8144 155.532 56.8133 156.46 55.8245C157.373 54.8499 158.634 55.4036 159.029 56.6987Z" fill="#FFC3BD"/>
<path d="M165.825 111.137C165.825 111.137 169.735 144.417 172.573 157.457C175.681 171.737 191.008 210.681 191.008 210.681L198.673 208.036C198.673 208.036 188.846 178.716 186.238 158.752C184.235 143.417 181.376 108.841 181.376 108.841L165.825 111.137Z" fill="#263238"/>
<path d="M189.05 208.232C189.016 208.243 190.62 211.504 190.62 211.504L199.547 208.606L198.5 205.939L189.05 208.232Z" fill="#407BFF"/>
<path opacity="0.3" d="M167.98 128.213C169.204 137.458 170.77 148.391 172.15 155.41C174.145 144.668 174.65 131.154 167.98 128.213Z" fill="black"/>
<path d="M157.276 112.399C157.276 112.399 154.032 143.662 154.528 157.552C155.043 172 161.792 216.454 161.792 216.454H169.508C169.508 216.454 168.089 172.844 168.431 158.655C168.805 143.187 174.606 109.84 174.606 109.84L157.276 112.399Z" fill="#263238"/>
<path d="M160.307 213.381C160.272 213.381 160.742 216.584 160.742 216.584H170.128L170.382 213.725L160.307 213.381Z" fill="#407BFF"/>
<path d="M155.782 81.0909C154.929 82.445 154.064 83.6626 153.167 84.9157C152.276 86.1611 151.336 87.371 150.379 88.5739C148.444 90.9653 146.379 93.2782 144.063 95.4633C143.449 95.994 142.886 96.5416 142.228 97.0511L141.748 97.4376L141.508 97.6304C141.418 97.7008 141.382 97.7368 141.201 97.8679C140.594 98.309 139.995 98.582 139.438 98.7797C138.316 99.163 137.34 99.252 136.42 99.2951C135.503 99.3322 134.645 99.2749 133.814 99.1783C130.501 98.7704 127.582 97.8466 124.67 96.5946L125.611 93.3071C128.442 93.59 131.398 93.8313 134.034 93.7117C134.689 93.674 135.322 93.6074 135.886 93.5097C136.445 93.4114 136.952 93.2503 137.218 93.0926C137.353 93.0199 137.423 92.9506 137.405 92.9353C137.375 92.9571 137.475 92.8665 137.527 92.8163L137.709 92.6443L138.075 92.3014C138.566 91.8646 139.034 91.3339 139.513 90.8567C140.459 89.8395 141.394 88.7972 142.288 87.6866C143.2 86.5995 144.079 85.4633 144.95 84.3216C145.825 83.1794 146.67 82.0088 147.525 80.8441C148.367 79.6833 149.207 78.4608 149.992 77.3301L155.782 81.0909Z" fill="#FFC3BD"/>
<path d="M158.95 79.644C160.787 85.6473 150.135 92.3085 150.135 92.3085L143.213 83.4868C143.213 83.4868 145.133 79.614 148.944 75.4655C153.653 70.3413 157.551 75.074 158.95 79.644Z" fill="#407BFF"/>
<g opacity="0.3">
<path d="M158.95 79.644C160.787 85.6473 150.135 92.3085 150.135 92.3085L143.213 83.4868C143.213 83.4868 145.133 79.614 148.944 75.4655C153.653 70.3413 157.551 75.074 158.95 79.644Z" fill="white"/>
</g>
<path d="M127.204 93.5457L121.601 92.5176L122.191 97.3693C122.191 97.3693 125.103 99.0002 127.22 96.4471L127.204 93.5457Z" fill="#FFC3BD"/>
<path d="M119.449 93.6118L120.661 97.1111L122.191 97.3693L121.601 92.5176L119.449 93.6118Z" fill="#FFC3BD"/>
</svg>
