<svg width="238" height="195" viewBox="0 0 238 195" fill="none" xmlns="http://www.w3.org/2000/svg">
<rect x="2" y="1" width="233" height="163" rx="42" fill="#D3DEFE"/>
<path fill-rule="evenodd" clip-rule="evenodd" d="M219.233 0H18.7673C8.41915 0 0 8.38395 0 18.6889V148.389C0 158.694 8.41915 167.078 18.7673 167.078H72.2895C55.8077 172.25 42.8569 180.132 36.217 189.737C35.161 191.265 35.5483 193.356 37.0828 194.407C38.6163 195.459 40.7164 195.074 41.7725 193.546C46.8707 186.17 57.0319 179.498 70.3845 174.758C84.5369 169.734 101.348 167.078 119 167.078C136.653 167.078 153.464 169.733 167.615 174.758C180.968 179.498 191.129 186.17 196.228 193.546C196.881 194.492 197.936 195 199.008 195C199.667 195 200.333 194.808 200.917 194.407C202.452 193.356 202.839 191.264 201.783 189.737C195.144 180.132 182.193 172.251 165.71 167.078H219.233C229.581 167.078 238 158.694 238 148.389V18.6889C238 8.38395 229.581 0 219.233 0ZM18.7673 6.71676H219.233C225.862 6.71676 231.256 12.0873 231.256 18.6889V142.79H6.74495V18.6889C6.74495 12.0878 12.138 6.71676 18.7673 6.71676ZM219.233 160.361H18.7673C12.5167 160.361 7.36693 155.586 6.79891 149.506H231.201C230.633 155.586 225.484 160.361 219.233 160.361Z" fill="#002088"/>
<path fill-rule="evenodd" clip-rule="evenodd" d="M96.8796 44.659C97.7495 43.7803 99.1597 43.7803 100.03 44.659L110.614 55.3518C110.618 55.3555 110.622 55.3593 110.626 55.363C110.629 55.3667 110.633 55.3705 110.637 55.3743L140.121 85.1591C140.99 86.0377 140.99 87.4624 140.121 88.341C139.251 89.2197 137.841 89.2197 136.971 88.341L121.381 72.5917C120.508 73.0133 119.531 73.25 118.5 73.25C114.81 73.25 111.818 70.2281 111.818 66.5C111.818 65.4592 112.053 64.4719 112.47 63.5903L109.208 60.2952C106.343 64.6634 106.816 70.6063 110.626 74.4549C111.495 75.3335 111.495 76.7582 110.626 77.6369C109.756 78.5155 108.345 78.5155 107.476 77.6369C101.922 72.0263 101.434 63.2359 106.012 57.0668L102.837 53.8595C96.5337 61.8103 97.0298 73.4487 104.326 80.819C105.196 81.6977 105.196 83.1222 104.326 84.001C103.456 84.8796 102.046 84.8796 101.176 84.001C92.1389 74.8718 91.6375 60.3852 99.6716 50.6614L96.8796 47.841C96.0098 46.9623 96.0098 45.5377 96.8796 44.659ZM132.675 48.9992C133.544 48.1205 134.955 48.1205 135.825 48.9992C142.912 56.1587 144.746 66.6096 141.34 75.4708C140.895 76.6293 139.605 77.2037 138.458 76.754C137.311 76.3042 136.743 75.0005 137.188 73.8422C139.978 66.5833 138.469 58.0345 132.675 52.1812C131.805 51.3025 131.805 49.8779 132.675 48.9992ZM126.375 55.3631C127.245 54.4844 128.655 54.4844 129.525 55.3631C133.234 59.1098 134.681 64.2759 133.875 69.1231C133.671 70.3487 132.522 71.1749 131.309 70.969C130.096 70.7629 129.278 69.6023 129.482 68.377C130.06 64.9034 129.022 61.2192 126.375 58.5451C125.505 57.6664 125.505 56.2418 126.375 55.3631Z" fill="#002088"/>
<path d="M54.5748 117.218V119.235H47.7729V117.218H54.5748ZM48.633 106.689V119.235H46V106.689H48.633ZM53.6884 111.799V113.763H47.7729V111.799H53.6884ZM54.5661 106.689V108.714H47.7729V106.689H54.5661Z" fill="#002088"/>
<path d="M58.4805 111.842V119.235H55.944V109.912H58.3225L58.4805 111.842ZM58.1294 114.246H57.4273C57.4273 113.597 57.5063 112.999 57.6642 112.454C57.8281 111.902 58.065 111.425 58.3752 111.023C58.6911 110.615 59.0802 110.3 59.5425 110.076C60.0047 109.851 60.5401 109.739 61.1486 109.739C61.5699 109.739 61.9561 109.803 62.3071 109.929C62.6582 110.05 62.9595 110.242 63.2111 110.506C63.4686 110.765 63.6675 111.104 63.8079 111.523C63.9484 111.937 64.0186 112.434 64.0186 113.014V119.235H61.4909V113.289C61.4909 112.864 61.4324 112.537 61.3154 112.307C61.1983 112.077 61.0316 111.917 60.8151 111.825C60.6044 111.733 60.3499 111.687 60.0515 111.687C59.7238 111.687 59.4371 111.753 59.1914 111.885C58.9515 112.017 58.7526 112.201 58.5946 112.436C58.4366 112.666 58.3196 112.936 58.2435 113.246C58.1674 113.557 58.1294 113.89 58.1294 114.246ZM63.7816 113.961L62.8776 114.073C62.8776 113.465 62.9537 112.899 63.1058 112.376C63.2638 111.853 63.4949 111.394 63.7992 110.997C64.1093 110.601 64.4925 110.294 64.9489 110.076C65.4053 109.851 65.9319 109.739 66.5287 109.739C66.9851 109.739 67.4005 109.806 67.775 109.938C68.1495 110.064 68.4684 110.268 68.7317 110.549C69.0008 110.825 69.2056 111.187 69.346 111.635C69.4923 112.083 69.5655 112.632 69.5655 113.281V119.235H67.029V113.281C67.029 112.85 66.9705 112.523 66.8535 112.299C66.7423 112.069 66.5785 111.911 66.362 111.825C66.1513 111.733 65.8997 111.687 65.6072 111.687C65.3029 111.687 65.0367 111.747 64.8085 111.868C64.5803 111.983 64.3901 112.143 64.238 112.35C64.0859 112.557 63.9718 112.798 63.8957 113.074C63.8196 113.344 63.7816 113.64 63.7816 113.961Z" fill="#002088"/>
<path d="M74.0504 111.704V122.819H71.5227V109.912H73.866L74.0504 111.704ZM80.0624 114.47V114.651C80.0624 115.329 79.9805 115.958 79.8167 116.538C79.6587 117.118 79.4246 117.623 79.1145 118.054C78.8044 118.479 78.4182 118.812 77.956 119.054C77.4996 119.289 76.973 119.407 76.3762 119.407C75.7969 119.407 75.2937 119.292 74.8666 119.062C74.4395 118.833 74.0796 118.511 73.7871 118.097C73.5004 117.678 73.2692 117.193 73.0937 116.641C72.9182 116.09 72.7836 115.498 72.69 114.866V114.392C72.7836 113.714 72.9182 113.094 73.0937 112.531C73.2692 111.962 73.5004 111.471 73.7871 111.058C74.0796 110.638 74.4365 110.314 74.8578 110.084C75.285 109.854 75.7852 109.739 76.3586 109.739C76.9613 109.739 77.4908 109.851 77.9472 110.076C78.4095 110.3 78.7956 110.621 79.1057 111.041C79.4217 111.46 79.6587 111.96 79.8167 112.54C79.9805 113.12 80.0624 113.763 80.0624 114.47ZM77.5259 114.651V114.47C77.5259 114.073 77.4908 113.709 77.4206 113.376C77.3563 113.037 77.2509 112.741 77.1047 112.488C76.9642 112.235 76.777 112.04 76.5429 111.902C76.3148 111.759 76.0368 111.687 75.7092 111.687C75.3639 111.687 75.0685 111.741 74.8227 111.85C74.5828 111.96 74.3868 112.118 74.2347 112.324C74.0825 112.531 73.9684 112.778 73.8924 113.065C73.8163 113.353 73.7695 113.677 73.752 114.039V115.237C73.7812 115.662 73.8631 116.044 73.9977 116.383C74.1323 116.716 74.34 116.98 74.6208 117.175C74.9017 117.371 75.2703 117.468 75.7267 117.468C76.0602 117.468 76.3411 117.397 76.5693 117.253C76.7975 117.104 76.9818 116.9 77.1222 116.641C77.2685 116.383 77.3709 116.084 77.4294 115.745C77.4938 115.406 77.5259 115.041 77.5259 114.651Z" fill="#002088"/>
<path d="M86.2851 109.912V111.67H80.7558V109.912H86.2851ZM82.1249 107.611H84.6526V116.426C84.6526 116.696 84.6877 116.903 84.7579 117.046C84.834 117.19 84.9452 117.29 85.0915 117.348C85.2377 117.399 85.422 117.425 85.6444 117.425C85.8024 117.425 85.9428 117.419 86.0657 117.408C86.1944 117.391 86.3026 117.374 86.3904 117.356L86.3992 119.183C86.1827 119.252 85.9487 119.306 85.6971 119.347C85.4455 119.387 85.1675 119.407 84.8633 119.407C84.3074 119.407 83.8218 119.318 83.4063 119.14C82.9968 118.956 82.6808 118.663 82.4584 118.261C82.2361 117.859 82.1249 117.33 82.1249 116.676V107.611Z" fill="#002088"/>
<path d="M90.5418 118.183L93.0607 109.912H95.7727L91.9548 120.639C91.8729 120.875 91.7618 121.127 91.6213 121.397C91.4868 121.667 91.3024 121.923 91.0684 122.164C90.8402 122.411 90.5506 122.612 90.1995 122.767C89.8543 122.922 89.4301 123 88.9269 123C88.687 123 88.491 122.986 88.3388 122.957C88.1867 122.928 88.0053 122.888 87.7947 122.836V121.018C87.859 121.018 87.9263 121.018 87.9966 121.018C88.0668 121.024 88.1341 121.027 88.1984 121.027C88.5319 121.027 88.804 120.99 89.0146 120.915C89.2253 120.84 89.395 120.725 89.5237 120.57C89.6524 120.421 89.7548 120.226 89.8309 119.984L90.5418 118.183ZM89.4886 109.912L91.5511 116.667L91.911 119.295L90.1907 119.476L86.7766 109.912H89.4886Z" fill="#002088"/>
<path d="M109.631 117.218V119.235H103.198V117.218H109.631ZM104.049 106.689V119.235H101.416V106.689H104.049Z" fill="#002088"/>
<path d="M113.651 109.912V119.235H111.114V109.912H113.651ZM110.956 107.482C110.956 107.12 111.085 106.821 111.343 106.586C111.6 106.35 111.945 106.233 112.378 106.233C112.805 106.233 113.148 106.35 113.405 106.586C113.668 106.821 113.8 107.12 113.8 107.482C113.8 107.844 113.668 108.143 113.405 108.378C113.148 108.614 112.805 108.731 112.378 108.731C111.945 108.731 111.6 108.614 111.343 108.378C111.085 108.143 110.956 107.844 110.956 107.482Z" fill="#002088"/>
<path d="M118.97 117.425L121.076 109.912H123.718L120.514 119.235H118.917L118.97 117.425ZM117.521 109.912L119.637 117.434L119.68 119.235H118.074L114.871 109.912H117.521Z" fill="#002088"/>
<path d="M129.098 119.407C128.361 119.407 127.699 119.292 127.114 119.062C126.529 118.827 126.032 118.502 125.622 118.089C125.219 117.675 124.908 117.195 124.692 116.65C124.475 116.098 124.367 115.512 124.367 114.892V114.547C124.367 113.841 124.47 113.195 124.674 112.609C124.879 112.023 125.172 111.514 125.552 111.084C125.938 110.653 126.406 110.323 126.956 110.093C127.506 109.857 128.127 109.739 128.817 109.739C129.49 109.739 130.087 109.849 130.607 110.067C131.128 110.285 131.564 110.595 131.915 110.997C132.272 111.4 132.541 111.882 132.723 112.445C132.904 113.002 132.995 113.623 132.995 114.306V115.34H125.447V113.686H130.511V113.496C130.511 113.152 130.447 112.844 130.318 112.574C130.195 112.299 130.008 112.08 129.756 111.919C129.505 111.759 129.183 111.678 128.791 111.678C128.457 111.678 128.17 111.75 127.931 111.894C127.691 112.037 127.495 112.238 127.343 112.497C127.196 112.755 127.085 113.06 127.009 113.41C126.939 113.755 126.904 114.134 126.904 114.547V114.892C126.904 115.265 126.956 115.61 127.062 115.926C127.173 116.242 127.328 116.515 127.527 116.745C127.732 116.974 127.977 117.152 128.264 117.279C128.557 117.405 128.887 117.468 129.256 117.468C129.712 117.468 130.136 117.382 130.528 117.21C130.926 117.032 131.269 116.765 131.555 116.409L132.784 117.718C132.585 118 132.313 118.27 131.968 118.528C131.628 118.787 131.219 118.999 130.739 119.166C130.259 119.327 129.712 119.407 129.098 119.407Z" fill="#002088"/>
<path d="M145.721 115.952C145.721 115.728 145.686 115.527 145.616 115.349C145.551 115.165 145.428 114.998 145.247 114.849C145.066 114.694 144.811 114.542 144.483 114.392C144.156 114.243 143.732 114.088 143.211 113.927C142.632 113.743 142.082 113.536 141.561 113.307C141.046 113.077 140.59 112.81 140.192 112.505C139.8 112.195 139.489 111.836 139.261 111.428C139.039 111.02 138.928 110.547 138.928 110.007C138.928 109.484 139.045 109.01 139.279 108.585C139.513 108.154 139.841 107.786 140.262 107.482C140.683 107.172 141.18 106.933 141.754 106.767C142.333 106.6 142.968 106.517 143.658 106.517C144.6 106.517 145.423 106.684 146.125 107.017C146.827 107.35 147.371 107.807 147.757 108.387C148.149 108.967 148.345 109.63 148.345 110.377H145.73C145.73 110.009 145.651 109.688 145.493 109.412C145.341 109.131 145.107 108.909 144.791 108.749C144.481 108.588 144.088 108.507 143.615 108.507C143.158 108.507 142.778 108.576 142.474 108.714C142.169 108.846 141.941 109.027 141.789 109.257C141.637 109.481 141.561 109.734 141.561 110.015C141.561 110.228 141.613 110.42 141.719 110.592C141.83 110.765 141.994 110.926 142.21 111.075C142.427 111.224 142.693 111.365 143.009 111.497C143.325 111.629 143.691 111.759 144.106 111.885C144.802 112.092 145.414 112.324 145.94 112.583C146.473 112.841 146.918 113.131 147.274 113.453C147.631 113.775 147.901 114.14 148.082 114.547C148.263 114.955 148.354 115.418 148.354 115.935C148.354 116.48 148.246 116.969 148.029 117.399C147.813 117.83 147.5 118.195 147.09 118.494C146.681 118.792 146.192 119.019 145.624 119.174C145.057 119.329 144.422 119.407 143.72 119.407C143.088 119.407 142.465 119.327 141.85 119.166C141.236 118.999 140.677 118.749 140.174 118.416C139.677 118.083 139.279 117.658 138.98 117.141C138.682 116.624 138.533 116.012 138.533 115.306H141.175C141.175 115.696 141.236 116.027 141.359 116.297C141.482 116.566 141.654 116.785 141.877 116.951C142.105 117.118 142.374 117.239 142.684 117.313C143 117.388 143.345 117.425 143.72 117.425C144.176 117.425 144.551 117.362 144.843 117.236C145.142 117.109 145.361 116.934 145.502 116.71C145.648 116.486 145.721 116.233 145.721 115.952Z" fill="#002088"/>
<path d="M152.453 106V119.235H149.925V106H152.453ZM152.093 114.246H151.399C151.405 113.597 151.493 112.999 151.663 112.454C151.832 111.902 152.075 111.425 152.391 111.023C152.707 110.615 153.085 110.3 153.523 110.076C153.968 109.851 154.46 109.739 154.998 109.739C155.466 109.739 155.89 109.806 156.271 109.938C156.657 110.064 156.987 110.271 157.262 110.558C157.543 110.84 157.76 111.21 157.912 111.67C158.064 112.129 158.14 112.686 158.14 113.341V119.235H155.595V113.324C155.595 112.91 155.533 112.586 155.41 112.35C155.293 112.109 155.121 111.94 154.893 111.842C154.67 111.738 154.395 111.687 154.068 111.687C153.705 111.687 153.395 111.753 153.137 111.885C152.886 112.017 152.684 112.201 152.532 112.436C152.38 112.666 152.268 112.936 152.198 113.246C152.128 113.557 152.093 113.89 152.093 114.246Z" fill="#002088"/>
<path d="M159.658 114.668V114.487C159.658 113.804 159.758 113.175 159.957 112.6C160.156 112.02 160.445 111.517 160.826 111.092C161.206 110.667 161.674 110.337 162.23 110.101C162.786 109.86 163.424 109.739 164.143 109.739C164.863 109.739 165.504 109.86 166.065 110.101C166.627 110.337 167.098 110.667 167.478 111.092C167.865 111.517 168.157 112.02 168.356 112.6C168.555 113.175 168.655 113.804 168.655 114.487V114.668C168.655 115.346 168.555 115.975 168.356 116.555C168.157 117.129 167.865 117.632 167.478 118.063C167.098 118.488 166.63 118.818 166.074 119.054C165.518 119.289 164.881 119.407 164.161 119.407C163.441 119.407 162.8 119.289 162.239 119.054C161.683 118.818 161.212 118.488 160.826 118.063C160.445 117.632 160.156 117.129 159.957 116.555C159.758 115.975 159.658 115.346 159.658 114.668ZM162.186 114.487V114.668C162.186 115.059 162.221 115.423 162.291 115.762C162.362 116.101 162.473 116.4 162.625 116.658C162.783 116.911 162.988 117.109 163.239 117.253C163.491 117.397 163.798 117.468 164.161 117.468C164.512 117.468 164.813 117.397 165.065 117.253C165.316 117.109 165.518 116.911 165.67 116.658C165.823 116.4 165.934 116.101 166.004 115.762C166.08 115.423 166.118 115.059 166.118 114.668V114.487C166.118 114.108 166.08 113.752 166.004 113.419C165.934 113.08 165.82 112.781 165.662 112.523C165.51 112.258 165.308 112.052 165.056 111.902C164.804 111.753 164.5 111.678 164.143 111.678C163.786 111.678 163.482 111.753 163.23 111.902C162.985 112.052 162.783 112.258 162.625 112.523C162.473 112.781 162.362 113.08 162.291 113.419C162.221 113.752 162.186 114.108 162.186 114.487Z" fill="#002088"/>
<path d="M172.92 116.822L174.895 109.912H176.501L175.983 112.626L174.008 119.235H172.665L172.92 116.822ZM171.919 109.912L173.332 116.813L173.464 119.235H171.884L169.48 109.912H171.919ZM178.309 116.701L179.687 109.912H182.136L179.731 119.235H178.16L178.309 116.701ZM176.72 109.912L178.686 116.77L178.958 119.235H177.607L175.632 112.635L175.132 109.912H176.72Z" fill="#002088"/>
<path d="M188.543 116.658C188.543 116.48 188.49 116.319 188.385 116.176C188.279 116.032 188.083 115.9 187.797 115.78C187.516 115.653 187.109 115.538 186.577 115.435C186.097 115.331 185.649 115.202 185.234 115.047C184.824 114.886 184.467 114.694 184.163 114.47C183.865 114.246 183.63 113.982 183.461 113.677C183.291 113.367 183.206 113.014 183.206 112.617C183.206 112.227 183.291 111.859 183.461 111.514C183.636 111.17 183.885 110.865 184.207 110.601C184.534 110.331 184.932 110.121 185.4 109.972C185.874 109.817 186.407 109.739 186.998 109.739C187.823 109.739 188.531 109.869 189.122 110.127C189.719 110.386 190.175 110.742 190.491 111.196C190.813 111.644 190.974 112.155 190.974 112.729H188.446C188.446 112.488 188.393 112.273 188.288 112.083C188.189 111.888 188.031 111.736 187.814 111.626C187.603 111.512 187.328 111.454 186.989 111.454C186.708 111.454 186.465 111.503 186.261 111.601C186.056 111.693 185.898 111.819 185.787 111.98C185.681 112.135 185.629 112.307 185.629 112.497C185.629 112.64 185.658 112.77 185.716 112.884C185.781 112.994 185.883 113.094 186.024 113.186C186.164 113.278 186.345 113.364 186.568 113.445C186.796 113.519 187.077 113.588 187.41 113.651C188.095 113.789 188.706 113.97 189.245 114.194C189.783 114.412 190.21 114.711 190.526 115.09C190.842 115.464 191 115.955 191 116.564C191 116.977 190.906 117.356 190.719 117.701C190.532 118.046 190.263 118.347 189.912 118.606C189.561 118.858 189.139 119.057 188.648 119.2C188.162 119.338 187.615 119.407 187.007 119.407C186.123 119.407 185.374 119.252 184.76 118.942C184.151 118.632 183.689 118.238 183.373 117.761C183.063 117.279 182.908 116.785 182.908 116.279H185.304C185.316 116.618 185.403 116.891 185.567 117.098C185.737 117.305 185.95 117.454 186.208 117.546C186.471 117.638 186.755 117.684 187.059 117.684C187.387 117.684 187.659 117.641 187.875 117.554C188.092 117.463 188.256 117.342 188.367 117.193C188.484 117.038 188.543 116.859 188.543 116.658Z" fill="#002088"/>
</svg>
