<svg width="219" height="181" viewBox="0 0 219 181" fill="none" xmlns="http://www.w3.org/2000/svg">
<path d="M57.102 180.606C88.6385 180.606 114.204 179.615 114.204 178.392C114.204 177.17 88.6385 176.179 57.102 176.179C25.5654 176.179 0 177.17 0 178.392C0 179.615 25.5654 180.606 57.102 180.606Z" fill="#A0DAEA"/>
<path d="M161.877 180.606C193.413 180.606 218.979 179.615 218.979 178.392C218.979 177.17 193.413 176.179 161.877 176.179C130.34 176.179 104.775 177.17 104.775 178.392C104.775 179.615 130.34 180.606 161.877 180.606Z" fill="#A0DAEA"/>
<path d="M83.8944 14.3531L86.4651 20.8905L84.9733 40.68L76.8862 38.7872L78.4348 16.6446L79.7539 13.9805L83.8944 14.3531Z" fill="white"/>
<path d="M94.8436 90.4561H90.7148V93.5295H94.8436V90.4561Z" fill="white"/>
<path d="M100.441 95.5419L95.4001 93.0186C95.2741 92.9548 95.132 92.9301 94.9919 92.9476C94.4643 93.0138 92.9098 93.0564 90.6822 91.7646C90.5886 91.7098 90.4838 91.6769 90.3757 91.6683C90.2676 91.6597 90.1589 91.6756 90.0578 91.7148C89.9567 91.7541 89.8658 91.8156 89.7918 91.8949C89.7178 91.9742 89.6626 92.0691 89.6305 92.1727L88.464 95.9584C88.4309 96.0659 88.4234 96.1798 88.4423 96.2908C88.4612 96.4017 88.5059 96.5067 88.5727 96.5973C88.6396 96.6879 88.7268 96.7615 88.8273 96.8122C88.9278 96.8629 89.0388 96.8894 89.1513 96.8894L100.118 96.9C100.278 96.8984 100.434 96.843 100.559 96.7429C100.685 96.6427 100.773 96.5034 100.81 96.3472C100.847 96.191 100.831 96.0269 100.764 95.881C100.697 95.735 100.583 95.6157 100.441 95.5419Z" fill="#27191C"/>
<path d="M69.346 90.4561H65.2173V93.5295H69.346V90.4561Z" fill="white"/>
<path d="M74.9453 95.5419L69.9044 93.0186C69.7785 92.9548 69.6364 92.9301 69.4963 92.9476C68.9687 93.0138 67.4142 93.0564 65.1866 91.7646C65.0929 91.7098 64.9882 91.6769 64.8801 91.6683C64.772 91.6597 64.6633 91.6756 64.5622 91.7148C64.4611 91.7541 64.3702 91.8156 64.2962 91.8949C64.2222 91.9742 64.167 92.0691 64.1349 92.1727L62.9684 95.9584C62.9353 96.0658 62.9278 96.1796 62.9467 96.2905C62.9655 96.4014 63.0101 96.5063 63.0768 96.5968C63.1435 96.6874 63.2305 96.761 63.3309 96.8118C63.4312 96.8626 63.5421 96.8892 63.6546 96.8894L74.6223 96.9C74.7829 96.8984 74.9382 96.843 75.0637 96.7429C75.1891 96.6427 75.2774 96.5034 75.3146 96.3472C75.3517 96.191 75.3355 96.0269 75.2686 95.881C75.2017 95.735 75.0879 95.6157 74.9453 95.5419Z" fill="#27191C"/>
<path d="M89.893 90.8146H95.5821C95.6364 90.8146 95.6901 90.8029 95.7395 90.7805C95.789 90.758 95.8331 90.7252 95.8688 90.6843C95.9045 90.6434 95.9311 90.5954 95.9468 90.5434C95.9624 90.4914 95.9667 90.4366 95.9595 90.3828L92.8612 67.6191L87.4595 40.1731L73.6501 37.9254C72.8687 37.7982 72.0691 37.8402 71.3054 38.0487C70.5416 38.2573 69.8316 38.6273 69.2232 39.134C68.6149 39.6406 68.1224 40.272 67.7791 40.9853C67.4358 41.6987 67.2497 42.4775 67.2334 43.2691L66.7425 67.5339L64.0393 90.3922C64.0329 90.4457 64.038 90.4999 64.0541 90.5513C64.0702 90.6027 64.0971 90.65 64.1328 90.6903C64.1686 90.7305 64.2125 90.7627 64.2616 90.7848C64.3108 90.8068 64.364 90.8182 64.4178 90.8181H70.0963C70.1818 90.8184 70.2648 90.7898 70.332 90.7369C70.3992 90.6841 70.4467 90.6102 70.4666 90.5271L76.6822 70.3318L78.8625 59.2647C78.8826 59.1702 78.9327 59.0849 79.0053 59.0212C79.0778 58.9575 79.169 58.919 79.2652 58.9113C79.3614 58.9036 79.4576 58.9271 79.5393 58.9784C79.6211 59.0297 79.6841 59.106 79.719 59.196L83.5118 70.1993L89.5298 90.5472C89.5541 90.6245 89.6024 90.6921 89.6677 90.7402C89.733 90.7883 89.8119 90.8143 89.893 90.8146Z" fill="#2F4154"/>
<path d="M124.067 48.4316L126.472 50.8923C126.604 51.0283 126.677 51.2113 126.675 51.4011C126.673 51.5909 126.595 51.7722 126.46 51.905L113.393 64.6638C113.326 64.7296 113.247 64.7815 113.159 64.8165C113.072 64.8515 112.979 64.8689 112.885 64.8678C112.79 64.8667 112.698 64.8471 112.611 64.8101C112.525 64.773 112.446 64.7193 112.381 64.652L109.976 62.1913C110.018 62.1633 110.058 62.1312 110.094 62.0955L115.646 56.6714L118.412 53.9694L123.97 48.5499C124.006 48.5141 124.038 48.4744 124.067 48.4316Z" fill="#64464D"/>
<path d="M112.942 44.5672L113.472 45.109L112.88 45.684L112.351 45.1422C112.114 44.9001 111.791 44.762 111.452 44.758C111.114 44.754 110.787 44.8845 110.545 45.1209L106.987 48.5954C106.745 48.8325 106.607 49.156 106.603 49.4948C106.599 49.8337 106.73 50.1603 106.966 50.4031L107.496 50.9449L106.905 51.5198L106.376 50.978C105.987 50.5793 105.772 50.0426 105.778 49.4856C105.785 48.9287 106.012 48.397 106.41 48.0074L109.968 44.5329C110.165 44.3398 110.399 44.1874 110.655 44.0846C110.911 43.9818 111.185 43.9305 111.462 43.9337C111.738 43.9369 112.011 43.9945 112.265 44.1032C112.519 44.2119 112.749 44.3696 112.942 44.5672Z" fill="#64464D"/>
<path d="M118.142 41.5552L124.2 47.7566C124.322 47.8734 124.404 48.0257 124.434 48.1919C124.464 48.358 124.441 48.5295 124.368 48.6817C124.336 48.737 124.297 48.7873 124.25 48.8308L110.381 62.3905C110.336 62.4348 110.285 62.472 110.229 62.5005C110.075 62.57 109.903 62.589 109.738 62.5548C109.572 62.5206 109.422 62.4349 109.308 62.3101L103.25 56.1087C102.939 55.7905 102.915 55.3066 103.198 55.031L117.061 41.4771C117.347 41.2015 117.831 41.2358 118.142 41.5552Z" fill="#7D4E52"/>
<path d="M103.329 43.9356C103.328 43.9411 103.328 43.9467 103.329 43.9522C103.346 44.0314 103.549 44.1722 103.608 44.2314C103.71 44.3355 103.812 44.4396 103.912 44.5449C104.105 44.7476 104.294 44.9534 104.48 45.1624C104.852 45.5812 105.207 46.013 105.545 46.4578C105.817 46.8127 106.081 47.1676 106.317 47.5521C106.554 47.9366 106.74 48.3565 107.08 48.6535C107.5 49.019 108.052 49.0025 108.556 48.8368C109.127 48.6499 109.45 48.2181 109.864 47.8183C110.068 47.6321 110.243 47.4173 110.385 47.1806C110.643 46.7216 110.865 46.0591 110.598 45.567C110.398 45.2002 110.07 45.0654 109.695 44.9435C109.458 44.869 109.222 44.7223 109.184 44.4822C109.179 44.3935 109.194 44.3049 109.229 44.223C109.263 44.1411 109.315 44.0679 109.381 44.0089C109.5 43.8835 109.651 43.783 109.761 43.6469C109.823 43.5836 109.866 43.5051 109.887 43.4194C109.908 43.3337 109.905 43.244 109.879 43.1595C109.838 43.0815 109.776 43.0169 109.699 42.9733C109.622 42.9297 109.535 42.9089 109.446 42.9135C109.27 42.9257 109.098 42.9685 108.937 43.0401C108.323 43.2625 107.466 43.2033 106.925 42.8295C106.452 42.5042 106.08 42.0522 105.715 41.6074C105.715 41.6074 104.59 42.6721 104.488 42.7774C104.283 42.9785 104.076 43.1785 103.87 43.3772C103.755 43.4849 103.337 43.7854 103.329 43.9356Z" fill="#FEC5A4"/>
<path d="M83.895 14.3535C83.895 14.3535 85.7736 22.2691 83.1047 39.857C82.971 40.7372 83.1319 40.9703 84.0405 42.1556L88.6164 47.381C89.2387 47.8542 89.9923 47.2509 89.8243 46.4902C89.2481 43.8805 88.8021 40.5692 88.4733 38.5013C87.8711 34.7156 88.3975 29.8392 88.3975 29.8392L91.0357 36.3021L103.327 45.1333C103.47 45.2353 103.644 45.2837 103.818 45.2698C103.993 45.2559 104.157 45.1808 104.282 45.0576L106.78 42.5803C106.851 42.5102 106.906 42.4266 106.944 42.3346C106.981 42.2426 106.999 42.144 106.998 42.0447C106.997 41.9454 106.975 41.8474 106.935 41.7565C106.895 41.6657 106.837 41.5837 106.765 41.5156L97.4193 32.7861C97.4193 32.7861 93.701 22.6678 93.1462 21.2375C92.2589 18.9401 90.1815 15.9045 83.895 14.3535Z" fill="#0267C1"/>
<path d="M79.7551 13.9805C79.7551 13.9805 81.2007 27.4598 78.1367 39.187C78.0381 39.5623 77.8583 39.9113 77.6099 40.2094C77.3615 40.5074 77.0506 40.7473 76.6993 40.9119L68.0834 45.1187C67.8502 45.228 67.5897 45.265 67.3353 45.225C67.0809 45.185 66.8443 45.0698 66.6559 44.8942C66.4675 44.7187 66.3359 44.4908 66.2781 44.2399C66.2203 43.9889 66.2388 43.7264 66.3313 43.4861C68.1295 38.8452 68.7849 33.8718 69.2226 28.9445C69.4415 26.4708 69.6059 23.9924 69.8354 21.5198C70.0283 19.4519 70.6399 17.216 72.3198 15.8331C74.3747 14.1449 77.2672 14.2762 79.7551 13.9805Z" fill="#0267C1"/>
<path d="M88.2225 32.4422C88.2225 32.4422 85.2803 33.8736 83.0622 33.2431C80.844 32.6125 74.936 25.499 74.936 25.499L88.2225 32.4422Z" fill="#024D91"/>
<path d="M83.1426 23.8037L84.8828 25.9544C85.2095 26.3577 85.6723 26.6278 86.1841 26.7139L89.5321 27.283L84.6261 27.6876L83.1426 23.8037Z" fill="#024D91"/>
<path d="M129.01 90.1445H124.682V93.3671H129.01V90.1445Z" fill="white"/>
<path d="M118.814 95.4755L124.1 92.8303C124.232 92.764 124.38 92.7381 124.527 92.7558C125.079 92.8267 126.71 92.8741 129.045 91.5219C129.143 91.4646 129.253 91.4302 129.366 91.4213C129.48 91.4123 129.593 91.4291 129.699 91.4702C129.805 91.5114 129.901 91.5759 129.978 91.659C130.056 91.7421 130.114 91.8416 130.147 91.9501L131.371 95.9168C131.405 96.0296 131.413 96.1489 131.393 96.2651C131.373 96.3814 131.326 96.4914 131.256 96.5863C131.186 96.6812 131.095 96.7583 130.99 96.8115C130.884 96.8648 130.768 96.8926 130.65 96.8928L119.152 96.9034C118.983 96.9039 118.817 96.8468 118.684 96.7416C118.55 96.6363 118.456 96.489 118.417 96.3236C118.378 96.1582 118.396 95.9844 118.468 95.8304C118.54 95.6765 118.662 95.5514 118.814 95.4755Z" fill="#27191C"/>
<path d="M145.017 90.1445H140.688V93.3671H145.017V90.1445Z" fill="white"/>
<path d="M134.82 95.4755L140.105 92.8303C140.237 92.7641 140.386 92.7381 140.533 92.7558C141.085 92.8267 142.715 92.8741 145.051 91.5219C145.149 91.4646 145.259 91.4302 145.372 91.4213C145.485 91.4123 145.599 91.4291 145.705 91.4702C145.811 91.5114 145.907 91.5759 145.984 91.659C146.062 91.7421 146.12 91.8416 146.153 91.9501L147.375 95.9168C147.41 96.0295 147.418 96.1487 147.398 96.265C147.379 96.3813 147.332 96.4913 147.262 96.5863C147.192 96.6812 147.101 96.7584 146.996 96.8116C146.89 96.8649 146.774 96.8927 146.656 96.8928L135.158 96.9034C134.988 96.9039 134.823 96.8468 134.69 96.7416C134.556 96.6363 134.462 96.489 134.423 96.3236C134.384 96.1582 134.402 95.9844 134.474 95.8304C134.546 95.6765 134.668 95.5514 134.82 95.4755Z" fill="#27191C"/>
<path d="M133.484 14.6768L137.725 15.0494L140.267 39.4125L136.363 41.9181L128.2 40.5257C128.2 40.5257 129.936 19.2905 133.484 14.6768Z" fill="white"/>
<path d="M146.385 47.5725L146.267 49.9811L146.149 52.4583L145.763 67.6601C145.746 68.0198 145.746 68.3802 145.763 68.7414L146.202 90.0287C146.204 90.0825 146.196 90.1362 146.177 90.1866C146.157 90.237 146.128 90.283 146.091 90.3218C146.054 90.3606 146.009 90.3914 145.959 90.4124C145.91 90.4334 145.856 90.4441 145.802 90.4439L140.289 90.4344C140.194 90.4341 140.102 90.3997 140.03 90.3375C139.957 90.2752 139.91 90.1892 139.895 90.0949L136.658 69.1129L135.246 56.4629C135.241 56.4044 135.214 56.3499 135.172 56.3093C135.129 56.2687 135.074 56.2447 135.015 56.2417C134.956 56.2387 134.899 56.2568 134.852 56.2929C134.806 56.3289 134.774 56.3804 134.762 56.438L132.376 68.37C132.33 68.5827 132.296 68.798 132.274 69.0147L129.92 90.1257C129.909 90.2246 129.861 90.3158 129.787 90.3814C129.712 90.447 129.615 90.4824 129.516 90.4806L124.009 90.3907C123.903 90.3891 123.803 90.346 123.729 90.2706C123.655 90.1953 123.614 90.0939 123.615 89.9884L123.757 68.5829L123.939 52.3755L123.984 48.3533L124.004 46.5137C124.027 44.5353 124.823 42.6444 126.222 41.2458C127.622 39.8471 129.513 39.0517 131.491 39.0299L143.515 38.9033L144.087 39.703C145.718 41.9923 146.528 44.7653 146.385 47.5725Z" fill="#2F4154"/>
<path d="M105.954 28.068L105.668 31.1225C103.857 31.4106 102.003 31.2741 100.254 30.7239C99.8986 30.6105 99.5509 30.475 99.2127 30.3181C98.5324 30.0022 97.8333 29.5515 97.6073 28.8369C97.3589 28.0538 97.8013 27.1571 98.5064 26.7347C99.2115 26.3124 100.108 26.3065 100.893 26.5537C101.239 26.6625 101.583 26.8199 101.947 26.8045C102.267 26.7915 102.607 26.5809 102.673 26.2828C102.682 26.2417 102.686 26.1995 102.685 26.1574C102.671 25.8025 102.289 25.4287 102.503 25.1412C102.695 24.8845 103.101 25.0619 103.35 25.2654C104.166 25.9409 105.381 27.176 105.954 28.068Z" fill="#FEC5A4"/>
<path d="M104.418 28.9982C104.083 29.7483 103.28 30.0902 102.704 30.2818C101.911 30.5386 101.087 30.6874 100.254 30.7243C99.8986 30.6109 99.5509 30.4754 99.2127 30.3185C98.5324 30.0026 97.8333 29.5519 97.6073 28.8373C97.3589 28.0542 97.8013 27.1575 98.5064 26.7351C99.2115 26.3128 100.108 26.3069 100.893 26.5541C101.239 26.663 101.583 26.8203 101.947 26.8049C102.267 26.7919 102.607 26.5813 102.673 26.2832C103.067 26.3472 103.439 26.506 103.758 26.7458C104.466 27.2876 104.75 28.2553 104.418 28.9982Z" fill="#DD9169"/>
<path d="M130.935 46.2501C130.945 47.4496 130.364 48.5924 129.208 48.9107C129.171 48.9213 129.134 48.9308 129.09 48.9391L123.591 50.1836C123.459 50.2133 123.322 50.2099 123.192 50.1735C123.062 50.137 122.942 50.0689 122.845 49.975C122.748 49.8812 122.675 49.7647 122.634 49.6359C122.593 49.5071 122.584 49.3701 122.609 49.2372C125.169 42.1509 125.34 37.2307 125.707 30.2284C125.742 29.5494 125.826 29.0809 125.57 29.4287L125.421 29.6239L121.322 35.2598C120.809 35.9617 120.077 36.4739 119.242 36.7166C118.407 36.9593 117.515 36.9188 116.706 36.6014L104.89 31.9758C104.792 31.937 104.713 31.8608 104.67 31.7639C104.628 31.667 104.626 31.5573 104.664 31.4588L106.067 27.8541C106.101 27.7661 106.165 27.693 106.248 27.648C106.331 27.6029 106.428 27.5888 106.52 27.6081L115.776 29.5009C116.226 29.5932 116.595 29.3045 116.841 28.9094C118.299 26.5634 121.573 21.4232 124.696 18.3474C128.533 14.5724 133.482 14.6682 133.482 14.6682C130.682 24.5582 130.855 35.6644 130.935 46.2501Z" fill="#0267C1"/>
<path d="M147.765 49.7673C147.812 50.033 147.79 50.3064 147.701 50.5611C147.464 51.1384 146.636 51.1337 146.142 50.9823C144.84 50.5879 143.534 50.2066 142.222 49.8383C141.116 49.5295 139.952 49.3828 138.893 48.9191C137.636 48.3678 137.474 47.5633 137.128 46.2951C136.28 43.2086 136.191 40.0843 136.063 36.9138C135.966 34.3963 135.976 31.8753 136.004 29.3555C136.06 24.5051 136.487 20.2391 137.717 15.0469C137.717 15.0469 145.193 15.9661 146.487 20.1469C146.913 21.5227 147.442 23.6108 147.957 25.7934L147.553 25.7071C147.384 25.6705 147.209 25.6737 147.042 25.7164C146.875 25.7591 146.72 25.8401 146.589 25.953C146.459 26.0659 146.356 26.2076 146.29 26.367C146.223 26.5263 146.195 26.6989 146.207 26.8711C145.925 31.4459 145.746 36.0431 146.079 40.6202C146.197 42.1853 146.395 43.7434 146.661 45.2896C146.819 46.2111 147.037 47.1221 147.268 48.0271C147.397 48.5086 147.681 49.1687 147.765 49.7673Z" fill="#0267C1"/>
<path d="M154.098 65.4209V68.8599C154.098 69.0486 154.023 69.2296 153.891 69.3636C153.758 69.4976 153.577 69.5738 153.389 69.5757H135.135C134.946 69.5738 134.766 69.4976 134.633 69.3636C134.5 69.2296 134.425 69.0486 134.425 68.8599V65.4209C134.475 65.4317 134.527 65.4373 134.579 65.4375H142.336V66.9837C142.336 67.0362 142.356 67.0865 142.393 67.1238C142.43 67.161 142.481 67.1821 142.533 67.1824H146.001C146.053 67.1824 146.104 67.1615 146.141 67.1242C146.178 67.0869 146.199 67.0364 146.199 66.9837V65.4375H153.956C154.004 65.4365 154.052 65.4309 154.098 65.4209Z" fill="#64464D"/>
<path d="M148.839 54.893V55.6478H148.016V54.8907C148.016 54.5522 147.881 54.2277 147.642 53.9884C147.403 53.7491 147.078 53.6145 146.74 53.6142H141.771C141.433 53.6145 141.108 53.7491 140.869 53.9883C140.629 54.2276 140.494 54.5521 140.494 54.8907V55.6478H139.671V54.8907C139.672 54.3341 139.893 53.8004 140.287 53.407C140.681 53.0135 141.215 52.7923 141.771 52.792H146.74C147.297 52.7926 147.831 53.0143 148.224 53.4082C148.618 53.8022 148.839 54.3362 148.839 54.893Z" fill="#64464D"/>
<path d="M154.661 56.3703V65.0347C154.666 65.2034 154.618 65.3696 154.524 65.5094C154.429 65.6492 154.293 65.7556 154.134 65.8132C154.074 65.8316 154.011 65.8408 153.948 65.8404H146.191V65.2843C146.191 65.2318 146.17 65.1816 146.133 65.1446C146.095 65.1076 146.045 65.0868 145.993 65.0868H142.525C142.473 65.0868 142.423 65.1076 142.385 65.1446C142.348 65.1817 142.328 65.232 142.328 65.2843V65.8404H134.569C134.506 65.8408 134.444 65.8316 134.384 65.8132C134.225 65.7554 134.089 65.649 133.995 65.5092C133.9 65.3693 133.853 65.2033 133.858 65.0347V56.3703C133.858 55.9255 134.179 55.5635 134.568 55.5635H153.946C154.339 55.5635 154.661 55.9255 154.661 56.3703Z" fill="#7D4E52"/>
<path d="M146.297 65.1662V67.5961C146.297 67.6274 146.284 67.6575 146.262 67.6797C146.24 67.7019 146.21 67.7144 146.178 67.7144H142.334C142.302 67.7144 142.272 67.7019 142.25 67.6797C142.228 67.6575 142.215 67.6274 142.215 67.5961V65.1662C142.215 65.1348 142.228 65.1047 142.25 65.0825C142.272 65.0603 142.302 65.0479 142.334 65.0479H146.178C146.21 65.0479 146.24 65.0603 146.262 65.0825C146.284 65.1047 146.297 65.1348 146.297 65.1662Z" fill="#FFD13D"/>
<path d="M141.076 27.1572L142.969 34.7132C143.066 35.0997 143.109 35.4978 143.097 35.8962L142.807 44.9652L146.899 34.3086L141.076 27.1572Z" fill="#024D91"/>
<path d="M145.95 48.2327C145.954 48.2367 145.957 48.2411 145.96 48.2457C145.998 48.3084 145.953 48.5284 145.951 48.6006C145.951 48.7331 145.951 48.8656 145.951 48.9981C145.951 49.2528 145.956 49.5072 145.966 49.7611C145.984 50.2698 146.022 50.7774 146.077 51.2837C146.121 51.6871 146.173 52.0893 146.257 52.488C146.341 52.8867 146.483 53.2818 146.446 53.6911C146.399 54.1951 146.026 54.5299 145.591 54.7381C145.097 54.9747 144.613 54.8919 144.092 54.8895C143.841 54.8951 143.591 54.864 143.349 54.7973C142.89 54.6577 142.329 54.3607 142.195 53.8698C142.096 53.503 142.227 53.2085 142.398 52.8926C142.502 52.6998 142.573 52.4478 142.444 52.2691C142.391 52.2093 142.326 52.1618 142.252 52.1301C142.179 52.0984 142.1 52.0833 142.02 52.0858C141.86 52.0858 141.701 52.1059 141.547 52.0858C141.467 52.0813 141.39 52.0559 141.324 52.012C141.257 51.9682 141.203 51.9075 141.167 51.8362C141.145 51.759 141.146 51.6772 141.169 51.6004C141.193 51.5237 141.238 51.4552 141.299 51.4032C141.422 51.3009 141.562 51.2209 141.713 51.1666C142.256 50.93 142.777 50.3503 142.906 49.7611C143.015 49.2501 142.976 48.7201 142.936 48.1984C142.936 48.1984 144.347 48.1984 144.474 48.1984C144.734 48.1984 144.995 48.2043 145.257 48.2043C145.389 48.2055 145.853 48.1392 145.95 48.2327Z" fill="#FEC5A4"/>
<path d="M149.412 38.0524L146.701 47.1368L146.255 48.7505C146.232 48.8368 146.178 48.912 146.105 48.9627C146.031 49.0134 145.942 49.0363 145.853 49.0273L142.646 48.715C142.595 48.7099 142.546 48.6946 142.501 48.6702C142.456 48.6457 142.417 48.6126 142.385 48.5726C142.354 48.5327 142.33 48.4868 142.317 48.4377C142.303 48.3886 142.299 48.3373 142.306 48.2867L143.987 35.4261C144.009 35.2541 143.99 35.0792 143.93 34.9162L138.607 20.5627L137.727 15.0498C137.727 15.0498 145.202 15.969 146.496 20.1498C146.922 21.5257 147.624 23.6539 148.292 25.7952C148.94 27.8666 149.239 29.3702 149.608 31.0537C150.111 33.3679 150.044 35.7698 149.412 38.0524Z" fill="#0267C1"/>
<path d="M134.93 17.0811C134.93 17.0811 137.296 21.554 141.898 20.5177C146.5 19.4814 148.05 21.0454 150.951 23.3451C153.411 25.2971 156.307 25.322 159.538 24.4536L162.159 25.3918L160.015 26.8232C155.968 27.8252 152.444 27.8879 149.763 25.3397C147.082 22.7915 145.676 21.0974 140.997 21.7185C136.318 22.3396 134.362 17.6726 134.362 17.6726L134.93 17.0811Z" fill="#FF7F2B"/>
<path d="M138.502 8.4834L137.725 15.0503L134.688 17.8139C134.658 17.8447 134.62 17.868 134.579 17.8817C134.539 17.8955 134.495 17.8994 134.452 17.893C134.41 17.8867 134.369 17.8703 134.334 17.8452C134.299 17.8201 134.27 17.7871 134.25 17.7488L133.483 14.673L133.513 14.3784L133.546 14.04L133.818 11.2919L133.847 11.0174L138.502 8.4834Z" fill="#FEC5A4"/>
<path d="M137.03 10.0586C137.03 10.0586 136.307 13.1912 133.513 14.3825L133.546 14.0442L133.818 11.296L137.03 10.0586Z" fill="#DD9169"/>
<path d="M131.407 5.15058C131.126 6.44007 130.555 8.50326 130.031 9.71467C129.992 9.78007 129.979 9.85775 129.995 9.93234C130.031 10.0388 130.164 10.0696 130.271 10.1015C130.773 10.2494 131.084 10.7439 131.296 11.2218C131.508 11.6998 131.68 12.2215 132.073 12.5669C132.466 12.9124 132.918 13.2767 133.461 13.3241C134.042 13.3702 134.684 13.0117 135.043 12.5717C136.074 11.4667 137.352 9.82232 138.71 8.00639L138.303 4.81934L131.407 5.15058Z" fill="#FEC5A4"/>
<path d="M139.388 4.54115C139.192 4.14481 138.915 3.79354 138.576 3.50956C138.197 3.20316 137.748 2.99968 137.301 2.79975C137.287 2.79265 137.25 2.77964 137.205 2.76071C135.872 1.04297 134.405 1.2429 133.065 1.41443C131.095 1.66878 130.189 2.34428 129.279 1.93023C128.915 1.76461 128.606 1.4168 128.511 1.62974C128.417 1.84269 128.134 3.13454 129.094 4.26196C129.263 4.44986 129.452 4.61777 129.659 4.76238C129.878 4.90084 130.118 5.00497 130.369 5.07115C131.967 5.61652 133.663 5.43906 135.312 5.66265C135.5 5.68868 135.786 5.66265 135.846 5.89216C135.89 6.0708 135.751 6.25771 135.671 6.40559C135.316 7.05507 135.007 7.73412 134.681 8.39897C134.597 8.56815 134.316 9.20579 134.694 9.22709C134.748 9.2276 134.801 9.21671 134.851 9.19515C135.355 9.0106 135.734 8.57288 136.067 8.16947C136.235 7.96718 136.402 7.76251 136.589 7.57796C136.776 7.39341 137.004 7.16036 137.245 7.10475C137.681 7.01011 137.743 7.47504 137.784 7.78972C137.835 8.25181 137.927 8.70859 138.057 9.15493C138.097 9.32105 138.185 9.47146 138.311 9.58673C138.678 9.87893 138.994 9.42584 139.113 9.11352C139.233 8.8012 139.339 8.4948 139.433 8.18012C139.792 6.98172 139.991 5.70761 139.388 4.54115Z" fill="#27191C"/>
<path d="M96.8701 29.7209C98.6849 30.2391 100.892 30.2532 102.685 29.657C103.32 29.4452 103.986 29.1152 104.259 28.5036C104.559 27.8328 104.259 26.9929 103.668 26.5457C103.076 26.0985 102.288 26.0038 101.567 26.1446C101.248 26.2061 100.927 26.3114 100.605 26.2629C100.283 26.2144 99.9661 25.9352 100.013 25.6146C100.061 25.294 100.438 25.0066 100.277 24.7297C100.133 24.4825 99.7531 24.5996 99.513 24.7558C98.7192 25.2716 97.516 26.2475 96.9174 26.981L96.8701 29.7209Z" fill="#FEC5A4"/>
<path d="M97.0771 26.324L97.8319 29.7417C97.8532 29.8378 97.855 29.9373 97.8374 30.0342C97.8198 30.1311 97.7831 30.2235 97.7293 30.306C97.6755 30.3885 97.6059 30.4594 97.5244 30.5147C97.4428 30.5699 97.3511 30.6084 97.2546 30.6278L85.2836 33.0364C84.6147 33.1711 83.9232 33.1434 83.2672 32.9557C82.6112 32.768 82.0097 32.4257 81.5133 31.9575L71.8765 22.8778L78.1465 16.835L85.0009 26.389C85.1027 26.531 85.2403 26.6435 85.3996 26.7152C85.559 26.7868 85.7345 26.8151 85.9082 26.7972L96.2774 25.7466C96.4583 25.7279 96.6399 25.7763 96.7874 25.8828C96.9349 25.9893 97.038 26.1463 97.0771 26.324Z" fill="#0267C1"/>
<path d="M82.3157 15.9941C82.3157 15.9941 79.2741 19.8839 75.0271 18.0964C70.78 16.3088 69.0221 17.5427 65.8409 19.2545C63.1401 20.7061 60.3529 20.2305 57.3977 18.8405L54.7158 19.2912L56.5294 21.0362C60.2464 22.6924 63.6204 23.362 66.6371 21.3757C69.6538 19.3894 71.2958 18.0017 75.6836 19.4048C80.0715 20.8078 82.7534 16.6625 82.7534 16.6625L82.3157 15.9941Z" fill="#FF7F2B"/>
<path d="M80.1387 7.53516L79.7554 13.9802L82.5118 16.7769C82.5357 16.8117 82.5675 16.8403 82.6045 16.8605C82.6415 16.8807 82.6828 16.8919 82.725 16.8931C82.7672 16.8944 82.809 16.8857 82.8472 16.8678C82.8854 16.8499 82.9188 16.8232 82.9448 16.7899L83.8912 14.3529L83.9137 14.0642L83.9397 13.733L84.1515 11.0452L84.1728 10.7766L80.1387 7.53516Z" fill="#FEC5A4"/>
<path d="M81.2817 9.30371C81.2817 9.30371 81.4379 12.4399 83.9175 14.0654L83.9435 13.7341L84.1553 11.0463L81.2817 9.30371Z" fill="#DD9169"/>
<path d="M87.5312 5.55496C87.5797 6.84327 87.7678 8.92302 88.0671 10.1782C88.0932 10.2476 88.0932 10.3241 88.0671 10.3935C88.0127 10.4893 87.8814 10.4952 87.7714 10.5118C87.2639 10.5686 86.8806 10.985 86.5884 11.4133C86.2961 11.8415 86.0465 12.3076 85.61 12.5726C85.1735 12.8376 84.6754 13.1133 84.1454 13.0612C83.5787 13.0056 83.0251 12.5502 82.7554 12.0651C81.9545 10.8253 81.0104 9.02594 80.019 7.04675L80.9584 4.05371L87.5312 5.55496Z" fill="#FEC5A4"/>
<path d="M79.1353 3.43675C79.463 2.40397 80.1066 1.50014 81.0909 1.00801C82.3756 0.366812 83.8118 0.192906 85.2243 0.0450291C86.2441 -0.0614426 87.2083 -0.015304 88.0837 0.58567C89.592 1.62081 90.0818 3.70529 89.4879 5.3769C89.2797 5.96841 89.133 6.61788 88.7166 7.10174C88.5226 7.32533 88.273 7.59033 87.9606 7.62582C87.8426 7.63953 87.7237 7.60955 87.6262 7.54155C87.5288 7.47354 87.4597 7.37222 87.4318 7.25671C87.2769 6.77404 87.4058 6.27717 87.3135 5.78622C87.2591 5.50111 86.9196 5.55553 86.6972 5.54962C86.0335 5.51767 85.707 5.50939 85.041 5.46799C84.6789 5.44788 84.3181 5.42895 83.9549 5.4112C83.7432 5.40056 83.1872 5.25741 83.1185 5.55908C83.0831 5.71997 83.1647 5.88441 83.2144 6.03229C83.4439 6.71726 83.6225 7.4247 83.8225 8.11913C83.8733 8.2954 84.0342 8.95671 83.6675 8.91412C83.6154 8.90543 83.5658 8.88567 83.522 8.85615C83.07 8.59234 82.779 8.10494 82.5282 7.66131C82.4028 7.43771 82.2774 7.21176 82.1295 7C81.997 6.81071 81.803 6.52679 81.5806 6.4357C81.1784 6.27008 81.0388 6.70661 80.9453 7.00236C80.9158 7.09345 80.8862 7.18455 80.8554 7.27327C80.7452 7.61471 80.6083 7.94698 80.4461 8.26701C80.3806 8.42018 80.2695 8.54946 80.1279 8.6373C79.4559 9.00285 79.0182 7.79144 78.868 7.35135C78.6495 6.64238 78.5988 5.89231 78.7201 5.1604C78.8101 4.57526 78.949 3.99868 79.1353 3.43675Z" fill="#27191C"/>
<path d="M98.7593 115.937H15.444C14.5411 115.937 13.8091 116.669 13.8091 117.571V176.589C13.8091 177.492 14.5411 178.224 15.444 178.224H98.7593C99.6623 178.224 100.394 177.492 100.394 176.589V117.571C100.394 116.669 99.6623 115.937 98.7593 115.937Z" fill="#AFD2F2"/>
<path d="M18.6206 116.465C18.6205 117.097 18.7448 117.722 18.9864 118.306C19.2281 118.89 19.5824 119.42 20.0291 119.867C20.4757 120.314 21.006 120.668 21.5897 120.91C22.1734 121.152 22.799 121.276 23.4308 121.276C24.7068 121.276 25.9306 120.769 26.8329 119.867C27.7352 118.965 28.2421 117.741 28.2421 116.465V111.333H18.6206V116.465Z" fill="#E2EAF5"/>
<path d="M37.8623 116.465C37.8623 117.097 37.9868 117.722 38.2285 118.306C38.4703 118.89 38.8247 119.42 39.2715 119.867C39.7183 120.314 40.2487 120.668 40.8324 120.91C41.4162 121.152 42.0418 121.276 42.6736 121.276C43.3054 121.276 43.931 121.152 44.5147 120.91C45.0984 120.668 45.6287 120.314 46.0754 119.867C46.522 119.42 46.8763 118.89 47.118 118.306C47.3597 117.722 47.484 117.097 47.4838 116.465V111.333H37.8623V116.465Z" fill="#E2EAF5"/>
<path d="M57.1055 116.465C57.1055 117.097 57.2299 117.722 57.4717 118.306C57.7135 118.89 58.0679 119.42 58.5147 119.867C58.9615 120.314 59.4919 120.668 60.0756 120.91C60.6593 121.152 61.285 121.276 61.9168 121.276C62.5486 121.276 63.1742 121.152 63.7579 120.91C64.3415 120.668 64.8718 120.314 65.3185 119.867C65.7652 119.42 66.1195 118.89 66.3612 118.306C66.6028 117.722 66.7271 117.097 66.727 116.465V111.333H57.1055V116.465Z" fill="#E2EAF5"/>
<path d="M76.3486 111.333V116.465C76.3486 117.741 76.8555 118.965 77.7578 119.867C78.6601 120.769 79.8839 121.276 81.16 121.276C82.4358 121.276 83.6593 120.769 84.5613 119.867C85.4634 118.964 85.9701 117.741 85.9701 116.465V111.333H76.3486Z" fill="#E2EAF5"/>
<path d="M8.99902 116.465C8.99887 117.097 9.12317 117.722 9.36483 118.306C9.6065 118.89 9.96079 119.42 10.4075 119.867C10.8541 120.314 11.3845 120.668 11.9681 120.91C12.5518 121.152 13.1774 121.276 13.8092 121.276C14.441 121.276 15.0667 121.152 15.6504 120.91C16.2341 120.668 16.7645 120.314 17.2113 119.867C17.6581 119.42 18.0125 118.89 18.2543 118.306C18.4961 117.722 18.6205 117.097 18.6205 116.465V111.333H8.99902V116.465Z" fill="#B31F2C"/>
<path d="M28.2417 116.465C28.2417 117.097 28.3661 117.722 28.6079 118.306C28.8496 118.889 29.2039 119.42 29.6506 119.866C30.0972 120.313 30.6275 120.667 31.2111 120.909C31.7947 121.151 32.4202 121.275 33.0519 121.275C33.6835 121.275 34.309 121.151 34.8926 120.909C35.4762 120.667 36.0065 120.313 36.4532 119.866C36.8998 119.42 37.2541 118.889 37.4959 118.306C37.7376 117.722 37.862 117.097 37.862 116.465V111.333H28.2417V116.465Z" fill="#B31F2C"/>
<path d="M47.4839 116.465C47.4839 117.097 47.6083 117.722 47.8501 118.306C48.0919 118.89 48.4463 119.42 48.8931 119.867C49.3399 120.314 49.8703 120.668 50.454 120.91C51.0377 121.152 51.6634 121.276 52.2952 121.276C52.927 121.276 53.5526 121.152 54.1363 120.91C54.7199 120.668 55.2503 120.314 55.6969 119.867C56.1436 119.42 56.4979 118.89 56.7396 118.306C56.9812 117.722 57.1055 117.097 57.1054 116.465V111.333H47.4839V116.465Z" fill="#B31F2C"/>
<path d="M66.7267 116.465C66.7167 117.103 66.8337 117.737 67.071 118.329C67.3082 118.922 67.661 119.461 68.1087 119.916C68.5564 120.371 69.0901 120.732 69.6788 120.978C70.2674 121.225 70.8992 121.352 71.5374 121.352C72.1756 121.352 72.8074 121.225 73.396 120.978C73.9847 120.732 74.5184 120.371 74.9661 119.916C75.4138 119.461 75.7666 118.922 76.0038 118.329C76.2411 117.737 76.3582 117.103 76.3482 116.465V111.333H66.7267V116.465Z" fill="#B31F2C"/>
<path d="M95.583 116.465C95.583 117.097 95.7075 117.722 95.9492 118.306C96.191 118.89 96.5454 119.42 96.9922 119.867C97.439 120.314 97.9694 120.668 98.5531 120.91C99.1369 121.152 99.7625 121.276 100.394 121.276C101.026 121.276 101.652 121.152 102.235 120.91C102.819 120.668 103.349 120.314 103.796 119.867C104.243 119.42 104.597 118.89 104.839 118.306C105.08 117.722 105.205 117.097 105.205 116.465V111.333H95.583V116.465Z" fill="#E2EAF5"/>
<path d="M85.9614 116.465C85.9614 117.097 86.0859 117.722 86.3277 118.306C86.5695 118.89 86.9239 119.42 87.3706 119.867C87.8174 120.314 88.3478 120.668 88.9316 120.91C89.5153 121.152 90.1409 121.276 90.7728 121.276C91.4045 121.276 92.0301 121.152 92.6138 120.91C93.1975 120.668 93.7278 120.314 94.1745 119.867C94.6212 119.42 94.9754 118.89 95.2171 118.306C95.4588 117.722 95.5831 117.097 95.5829 116.465V111.333H85.9614V116.465Z" fill="#B31F2C"/>
<path d="M8.99902 111.332L13.3951 98.0219C13.5031 97.6955 13.7112 97.4115 13.9898 97.2101C14.2685 97.0088 14.6035 96.9004 14.9472 96.9004H22.4772L18.6205 111.333L8.99902 111.332Z" fill="#EE293A"/>
<path d="M18.6206 111.332L22.4772 96.9004H31.189L28.2421 111.332H18.6206Z" fill="white"/>
<path d="M28.2417 111.332L31.1886 96.9004H39.8992L37.862 111.332H28.2417Z" fill="#EE293A"/>
<path d="M37.8623 111.332L39.8995 96.9004H48.6112L47.4838 111.332H37.8623Z" fill="white"/>
<path d="M47.4839 111.332L48.6113 96.9004H57.3219L57.1054 111.332H47.4839Z" fill="#EE293A"/>
<path d="M57.1055 111.332L57.322 96.9004H66.0337L66.727 111.332H57.1055Z" fill="white"/>
<path d="M66.7265 111.332L66.0332 96.9004H74.7438L76.3479 111.332H66.7265Z" fill="#EE293A"/>
<path d="M76.3483 111.332L74.7441 96.9004H83.4559L85.9698 111.332H76.3483Z" fill="white"/>
<path d="M85.9615 111.332L83.4487 96.9004H92.1593L95.5829 111.332H85.9615Z" fill="#EE293A"/>
<path d="M95.5828 111.333L92.1592 96.9004H99.6548C100.006 96.9003 100.348 97.0135 100.63 97.2232C100.912 97.4329 101.119 97.7279 101.22 98.0645L105.204 111.332L95.5828 111.333Z" fill="white"/>
<path d="M94.5174 135.949H70.6831V178.224H94.5174V135.949Z" fill="#4FAFF7"/>
<path d="M90.6935 161.037H90.4747C90.1793 161.037 89.9399 161.277 89.9399 161.572V164.474C89.9399 164.769 90.1793 165.009 90.4747 165.009H90.6935C90.9888 165.009 91.2283 164.769 91.2283 164.474V161.572C91.2283 161.277 90.9888 161.037 90.6935 161.037Z" fill="#2F4154"/>
<path d="M91.2272 139.611H73.9717V159.008H91.2272V139.611Z" fill="white"/>
<path d="M95.1251 134.413H70.0735C69.6724 134.413 69.3472 134.738 69.3472 135.139V135.429C69.3472 135.83 69.6724 136.156 70.0735 136.156H95.1251C95.5263 136.156 95.8515 135.83 95.8515 135.429V135.139C95.8515 134.738 95.5263 134.413 95.1251 134.413Z" fill="#024D91"/>
<path d="M73.9717 142.913V150.435L87.8473 139.611H78.2045L73.9717 142.913Z" fill="#E2EAF5"/>
<path d="M73.9717 158.125V159.008H82.7568L91.2272 152.286V144.665L73.9717 158.125Z" fill="#E2EAF5"/>
<g opacity="0.3">
<path d="M91.2272 139.612H73.9717V159.009H91.2272V139.612Z" fill="white"/>
</g>
<path d="M58.4859 128.174H25.9907V164.572H58.4859V128.174Z" fill="white"/>
<g opacity="0.8">
<path d="M34.3456 129.025L26.6382 137.967V143.537L39.1462 129.025H34.3456Z" fill="#E2EAF5"/>
<path d="M41.3623 136.428V154.14L32.841 164.026H26.875V153.235L41.3623 136.428Z" fill="#E2EAF5"/>
<path d="M41.3622 157.44V162.897V162.898L40.3885 164.026H35.686L41.3622 157.44Z" fill="#E2EAF5"/>
<path d="M46.0337 129.025L42.9448 132.634V138.204L50.8036 129.025H46.0337Z" fill="#E2EAF5"/>
<path d="M42.9448 146.35V157.515L57.5693 140.431V129.268L42.9448 146.35Z" fill="#E2EAF5"/>
<path d="M57.5693 145.525V154.14L49.1048 164.027H42.9448V162.608L57.5693 145.527V145.525Z" fill="#E2EAF5"/>
<path d="M57.5699 157.44V162.897V162.898L56.6022 164.026H51.9316L57.5699 157.44Z" fill="#E2EAF5"/>
</g>
<g opacity="0.3">
<path d="M57.5678 129.025H42.9434V164.027H57.5678V129.025Z" fill="white"/>
<path d="M41.3606 129.025H26.8745V164.027H41.3606V129.025Z" fill="white"/>
</g>
<path d="M25.2964 165.606H59.152V127.446H25.2964V165.606ZM42.9447 129.026H57.5691V164.028H42.9447V129.026ZM26.8745 129.026H41.3618V164.028H26.8745V129.026Z" fill="#024D91"/>
<path d="M203.535 115.937H120.219C119.316 115.937 118.584 116.669 118.584 117.571V176.589C118.584 177.492 119.316 178.224 120.219 178.224H203.535C204.438 178.224 205.17 177.492 205.17 176.589V117.571C205.17 116.669 204.438 115.937 203.535 115.937Z" fill="#AFD2F2"/>
<path d="M123.396 116.465C123.396 117.097 123.52 117.722 123.762 118.306C124.003 118.89 124.358 119.42 124.804 119.867C125.251 120.314 125.781 120.668 126.365 120.91C126.949 121.152 127.574 121.276 128.206 121.276C128.838 121.276 129.464 121.152 130.047 120.91C130.631 120.668 131.161 120.314 131.608 119.867C132.055 119.42 132.409 118.89 132.651 118.306C132.893 117.722 133.017 117.097 133.017 116.465V111.333H123.396V116.465Z" fill="#E2EAF5"/>
<path d="M142.639 116.465C142.639 117.097 142.763 117.722 143.004 118.306C143.246 118.89 143.6 119.42 144.047 119.867C144.494 120.314 145.024 120.668 145.608 120.91C146.191 121.152 146.817 121.276 147.449 121.276C148.081 121.276 148.706 121.152 149.29 120.91C149.874 120.668 150.404 120.314 150.851 119.867C151.297 119.42 151.652 118.89 151.893 118.306C152.135 117.722 152.259 117.097 152.259 116.465V111.333H142.639V116.465Z" fill="#E2EAF5"/>
<path d="M161.88 116.465C161.88 117.097 162.005 117.722 162.247 118.306C162.488 118.89 162.843 119.42 163.29 119.867C163.736 120.314 164.267 120.668 164.85 120.91C165.434 121.152 166.06 121.276 166.692 121.276C167.323 121.276 167.949 121.152 168.533 120.91C169.116 120.668 169.647 120.314 170.093 119.867C170.54 119.42 170.894 118.89 171.136 118.306C171.378 117.722 171.502 117.097 171.502 116.465V111.333H161.88V116.465Z" fill="#E2EAF5"/>
<path d="M181.124 111.333V116.465C181.124 117.097 181.248 117.722 181.49 118.306C181.732 118.89 182.086 119.42 182.533 119.867C182.98 120.314 183.51 120.668 184.094 120.91C184.677 121.152 185.303 121.276 185.935 121.276C187.211 121.276 188.434 120.769 189.336 119.867C190.238 118.964 190.745 117.741 190.745 116.465V111.333H181.124Z" fill="#E2EAF5"/>
<path d="M113.774 116.465C113.774 117.097 113.899 117.722 114.14 118.306C114.382 118.89 114.736 119.42 115.183 119.867C115.63 120.314 116.16 120.668 116.744 120.91C117.327 121.152 117.953 121.276 118.585 121.276C119.216 121.276 119.842 121.152 120.426 120.91C121.01 120.668 121.54 120.314 121.987 119.867C122.433 119.42 122.788 118.89 123.03 118.306C123.271 117.722 123.396 117.097 123.396 116.465V111.333H113.774V116.465Z" fill="#B31F2C"/>
<path d="M133.017 116.465C133.007 117.103 133.124 117.737 133.361 118.329C133.599 118.922 133.952 119.461 134.399 119.916C134.847 120.371 135.381 120.732 135.969 120.978C136.558 121.225 137.19 121.352 137.828 121.352C138.466 121.352 139.098 121.225 139.687 120.978C140.275 120.732 140.809 120.371 141.257 119.916C141.704 119.461 142.057 118.922 142.294 118.329C142.532 117.737 142.649 117.103 142.639 116.465V111.333H133.017V116.465Z" fill="#B31F2C"/>
<path d="M152.259 116.465C152.259 117.097 152.383 117.722 152.625 118.306C152.867 118.89 153.221 119.42 153.668 119.867C154.115 120.314 154.645 120.668 155.229 120.91C155.813 121.152 156.438 121.276 157.07 121.276C157.702 121.276 158.327 121.152 158.911 120.91C159.495 120.668 160.025 120.314 160.472 119.867C160.919 119.42 161.273 118.89 161.514 118.306C161.756 117.722 161.88 117.097 161.88 116.465V111.333H152.259V116.465Z" fill="#B31F2C"/>
<path d="M171.502 116.465C171.492 117.103 171.609 117.737 171.846 118.329C172.084 118.922 172.436 119.461 172.884 119.916C173.332 120.371 173.866 120.732 174.454 120.978C175.043 121.225 175.675 121.352 176.313 121.352C176.951 121.352 177.583 121.225 178.171 120.978C178.76 120.732 179.294 120.371 179.742 119.916C180.189 119.461 180.542 118.922 180.779 118.329C181.017 117.737 181.134 117.103 181.124 116.465V111.333H171.502V116.465Z" fill="#B31F2C"/>
<path d="M200.358 116.465C200.358 117.097 200.483 117.722 200.725 118.306C200.966 118.89 201.321 119.42 201.768 119.867C202.214 120.314 202.745 120.668 203.329 120.91C203.912 121.152 204.538 121.276 205.17 121.276C205.802 121.276 206.427 121.152 207.011 120.91C207.594 120.668 208.125 120.314 208.571 119.867C209.018 119.42 209.372 118.89 209.614 118.306C209.856 117.722 209.98 117.097 209.98 116.465V111.333H200.358V116.465Z" fill="#E2EAF5"/>
<path d="M190.737 116.465C190.737 117.097 190.861 117.722 191.103 118.306C191.345 118.89 191.699 119.42 192.146 119.867C192.593 120.314 193.123 120.668 193.707 120.91C194.291 121.152 194.916 121.276 195.548 121.276C196.18 121.276 196.806 121.152 197.389 120.91C197.973 120.668 198.503 120.314 198.95 119.867C199.397 119.42 199.751 118.89 199.992 118.306C200.234 117.722 200.358 117.097 200.358 116.465V111.333H190.737V116.465Z" fill="#B31F2C"/>
<path d="M113.774 111.332L118.171 98.0219C118.278 97.6955 118.487 97.4115 118.765 97.2101C119.044 97.0088 119.379 96.9004 119.723 96.9004H127.253L123.396 111.333L113.774 111.332Z" fill="#EE293A"/>
<path d="M123.396 111.332L127.253 96.9004H135.964L133.017 111.332H123.396Z" fill="white"/>
<path d="M133.018 111.332L135.964 96.9004H144.675L142.638 111.332H133.018Z" fill="#EE293A"/>
<path d="M142.637 111.332L144.674 96.9004H153.386L152.259 111.332H142.637Z" fill="white"/>
<path d="M152.259 111.332L153.386 96.9004H162.097L161.88 111.332H152.259Z" fill="#EE293A"/>
<path d="M161.88 111.332L162.097 96.9004H170.809L171.502 111.332H161.88Z" fill="white"/>
<path d="M171.502 111.332L170.809 96.9004H179.519L181.123 111.332H171.502Z" fill="#EE293A"/>
<path d="M181.123 111.332L179.519 96.9004H188.231L190.745 111.332H181.123Z" fill="white"/>
<path d="M190.737 111.332L188.224 96.9004H196.935L200.358 111.332H190.737Z" fill="#EE293A"/>
<path d="M200.358 111.333L196.935 96.9004H204.43C204.782 96.9003 205.124 97.0135 205.406 97.2232C205.687 97.4329 205.894 97.7279 205.995 98.0645L209.98 111.332L200.358 111.333Z" fill="white"/>
<path d="M199.292 135.949H175.458V178.224H199.292V135.949Z" fill="#4FAFF7"/>
<path d="M195.469 161.037H195.25C194.955 161.037 194.715 161.277 194.715 161.572V164.474C194.715 164.769 194.955 165.009 195.25 165.009H195.469C195.764 165.009 196.004 164.769 196.004 164.474V161.572C196.004 161.277 195.764 161.037 195.469 161.037Z" fill="#2F4154"/>
<path d="M196.003 139.611H178.747V159.008H196.003V139.611Z" fill="white"/>
<path d="M199.901 134.413H174.849C174.448 134.413 174.123 134.738 174.123 135.139V135.429C174.123 135.83 174.448 136.156 174.849 136.156H199.901C200.302 136.156 200.627 135.83 200.627 135.429V135.139C200.627 134.738 200.302 134.413 199.901 134.413Z" fill="#024D91"/>
<path d="M178.747 142.913V150.435L192.623 139.611H182.98L178.747 142.913Z" fill="#E2EAF5"/>
<path d="M178.747 158.125V159.008H187.532L196.003 152.286V144.665L178.747 158.125Z" fill="#E2EAF5"/>
<g opacity="0.3">
<path d="M196.003 139.612H178.747V159.009H196.003V139.612Z" fill="white"/>
</g>
<path d="M163.261 128.174H130.766V164.572H163.261V128.174Z" fill="white"/>
<g opacity="0.8">
<path d="M139.12 129.025L131.413 137.967V143.537L143.921 129.025H139.12Z" fill="#E2EAF5"/>
<path d="M146.137 136.428V154.14L137.615 164.026H131.649V153.235L146.137 136.428Z" fill="#E2EAF5"/>
<path d="M146.137 157.44V162.897V162.898L145.163 164.026H140.46L146.137 157.44Z" fill="#E2EAF5"/>
<path d="M150.81 129.025L147.72 132.634V138.204L155.579 129.025H150.81Z" fill="#E2EAF5"/>
<path d="M147.72 146.35V157.515L162.344 140.431V129.268L147.72 146.35Z" fill="#E2EAF5"/>
<path d="M162.344 145.525V154.14L153.88 164.027H147.72V162.608L162.344 145.527V145.525Z" fill="#E2EAF5"/>
<path d="M162.344 157.44V162.897V162.898L161.378 164.026H156.706L162.344 157.44Z" fill="#E2EAF5"/>
</g>
<g opacity="0.3">
<path d="M162.343 129.025H147.719V164.027H162.343V129.025Z" fill="white"/>
<path d="M146.136 129.025H131.65V164.027H146.136V129.025Z" fill="white"/>
</g>
<path d="M130.074 165.606H163.929V127.446H130.074V165.606ZM147.722 129.026H162.346V164.028H147.72L147.722 129.026ZM131.652 129.026H146.139V164.028H131.65L131.652 129.026Z" fill="#024D91"/>
<path d="M177.082 34.7499H211.086C211.123 34.7497 211.159 34.7385 211.19 34.7177C211.221 34.6968 211.245 34.6673 211.259 34.6329C211.273 34.5985 211.277 34.5606 211.269 34.5242C211.262 34.4877 211.244 34.4543 211.217 34.4281C210.603 33.8371 209.85 33.4096 209.027 33.1848C208.644 33.0681 208.245 33.0056 207.844 32.9991C207.371 33.0062 206.898 33.1339 206.435 32.973C205.709 32.7175 205.624 31.9545 205.448 31.3097C204.891 29.2915 202.727 27.795 200.667 28.1546C200.088 28.2552 199.45 28.4468 198.871 28.2445C198.216 28.0138 197.903 27.3277 197.531 26.7953C197.026 26.0734 196.346 25.491 195.556 25.1023C194.765 24.7136 193.889 24.5312 193.009 24.572C192.129 24.6129 191.273 24.8757 190.522 25.336C189.771 25.7963 189.149 26.4391 188.713 27.2046C188.316 27.9331 187.995 28.7006 187.757 29.495C187.707 29.6511 187.654 29.8215 187.495 29.896C187.387 29.9406 187.269 29.9596 187.152 29.9516C186.776 29.9421 186.412 29.8333 186.035 29.8179C185.655 29.8076 185.275 29.8306 184.898 29.8865C184.088 30.0048 183.278 30.478 182.996 31.2482C182.82 31.7214 182.855 32.2881 182.562 32.7069C182.218 33.199 181.534 33.3197 180.937 33.2546C180.339 33.1895 179.754 32.9837 179.162 32.9896C178.097 33.0002 177.205 33.5279 176.905 34.5062C176.896 34.5342 176.894 34.5639 176.898 34.5929C176.903 34.6218 176.915 34.6493 176.932 34.673C176.949 34.6968 176.972 34.7161 176.998 34.7295C177.024 34.7428 177.053 34.7498 177.082 34.7499Z" fill="white"/>
<path d="M13.9369 73.2145C14.4728 72.8454 14.3616 71.899 14.9306 71.5831C15.5789 71.2282 16.3065 72.0469 17.0447 71.9972C17.5711 71.9617 17.9698 71.4779 18.126 70.9739C18.2821 70.4699 18.2655 69.9316 18.3436 69.4099C18.4531 68.6757 18.7527 67.9828 19.2126 67.4C19.6724 66.8172 20.2767 66.3647 20.9653 66.0875C21.654 65.8102 22.4032 65.7178 23.1386 65.8193C23.874 65.9209 24.5701 66.213 25.1578 66.6665C25.786 67.1504 26.2651 67.7975 26.8271 68.3559C27.389 68.9142 28.0905 69.4052 28.882 69.4395C29.6734 69.4738 30.6293 69.0846 31.1829 69.6631C31.61 70.1067 31.5154 70.9147 32.011 71.2862C32.8096 71.8907 33.9039 70.6403 34.8704 70.9135C35.4619 71.0804 35.7387 71.7417 35.8499 72.3438C35.9611 72.946 35.9978 73.599 36.3882 74.0663C36.82 74.5833 37.557 74.7146 38.2302 74.7205C38.9033 74.7264 39.5977 74.646 40.2318 74.8696L40.2508 74.8767C41.0789 75.1795 40.8423 76.4146 39.9704 76.4146L8.68191 76.7778C8.52424 76.7814 8.36805 76.7465 8.22686 76.6763C8.08567 76.606 7.96372 76.5024 7.87155 76.3744C7.03042 75.163 9.71114 74.9476 10.2376 74.5135C10.738 74.1042 11.0657 73.4582 11.7152 73.2453C12.4262 73.0158 13.2969 73.6534 13.9369 73.2145Z" fill="white"/>
</svg>
