<svg width="272" height="204" viewBox="0 0 272 204" fill="none" xmlns="http://www.w3.org/2000/svg">
<path d="M52.2672 171.319C52.2672 171.319 52.168 170.907 51.9317 170.188C51.6398 169.509 51.2702 168.459 50.4694 167.407C49.6775 166.368 48.6327 165.138 47.1339 164.249C45.6507 163.328 43.7793 162.793 41.8774 162.762C39.9779 162.784 38.0264 163.347 36.567 164.484C35.076 165.6 34.2997 167.162 33.8984 168.472C33.4744 169.81 33.6981 170.998 33.8601 171.729C33.9869 172.1 34.0946 172.375 34.1927 172.555C34.2818 172.734 34.329 172.829 34.329 172.829C34.329 172.829 34.3314 172.723 34.3356 172.524C34.332 172.329 34.3661 172.039 34.4217 171.69C34.4947 170.988 34.847 170.048 35.396 169.092C35.9325 168.118 36.8966 167.213 37.9893 166.586C39.1041 165.981 40.4707 165.61 41.8774 165.643C43.2889 165.617 44.7015 165.964 45.9575 166.493C47.2141 167.043 48.3953 167.732 49.287 168.508C50.1799 169.272 50.979 169.943 51.4592 170.485C51.9849 170.996 52.2672 171.319 52.2672 171.319Z" fill="#334FAA"/>
<path d="M43.7589 157.812C43.7589 157.812 43.7147 157.738 43.6328 157.6C43.5514 157.459 43.4264 157.257 43.2548 157.004C42.8774 156.548 42.3582 155.806 41.5066 155.182C40.6621 154.569 39.6166 153.842 38.3332 153.408C37.0587 152.951 35.631 152.699 34.0772 152.784C33.3075 152.861 32.5133 153.037 31.7693 153.365C31.0139 153.694 30.3333 154.196 29.8231 154.795C29.2932 155.382 28.9379 156.105 28.7806 156.83C28.6234 157.548 28.6742 158.298 28.8662 158.893C29.2483 160.118 30.2124 160.679 30.7938 160.899C31.4355 161.085 31.7824 160.963 31.7782 160.984C31.7782 160.984 31.7053 160.941 31.5683 160.861C31.4391 160.773 31.2579 160.638 31.0922 160.422C30.713 160.055 30.4571 159.31 30.4565 158.579C30.4349 157.856 30.9427 157.132 31.6227 156.584C31.9804 156.315 32.3727 156.09 32.8171 155.938C33.2704 155.779 33.7746 155.682 34.3105 155.655C35.3775 155.538 36.582 155.685 37.6795 155.853C38.7763 156.047 39.8469 156.253 40.7213 156.593C41.5903 156.926 42.3905 157.17 42.9025 157.435C43.177 157.544 43.3911 157.639 43.5347 157.707C43.6812 157.776 43.7589 157.812 43.7589 157.812Z" fill="#334FAA"/>
<path d="M58.2551 193.114C58.2317 192.964 55.861 177.869 48.9196 161.184C42.4945 145.74 30.7255 125.726 11.1485 118.089L10.7251 119.173C47.5076 133.524 57.0123 192.695 57.1038 193.291L58.2551 193.114Z" fill="#334FAA"/>
<path d="M55.7522 181.638C55.6811 181.387 48.8151 156.324 61.1104 142.892L60.2516 142.106C47.5167 156.018 54.5591 181.696 54.6314 181.953L55.7522 181.638Z" fill="#334FAA"/>
<path d="M52.1536 169.715C52.0669 169.468 43.2644 145.075 20.1689 145.809L20.2066 146.973C42.4396 146.265 50.9718 169.86 51.055 170.099L52.1536 169.715Z" fill="#334FAA"/>
<path d="M46.3872 155.485C46.2574 155.16 33.6349 122.817 52.6335 112.946L52.0976 111.912C32.1541 122.267 45.1719 155.581 45.3058 155.917L46.3872 155.485Z" fill="#334FAA"/>
<path d="M25.8213 127.227C25.8213 127.227 25.6024 126.999 25.1921 126.613C24.7567 126.286 24.1562 125.714 23.2783 125.305C22.4092 124.903 21.3279 124.407 20.0426 124.276C18.7556 124.114 17.3202 124.309 15.9853 124.838C14.6737 125.418 13.4572 126.369 12.7538 127.606C12.014 128.836 11.95 130.174 12.0541 131.207C12.1504 132.273 12.706 133.026 13.0445 133.47C13.255 133.681 13.4195 133.828 13.5463 133.916C13.6659 134.005 13.7299 134.053 13.7299 134.053C13.7299 134.053 13.7084 133.977 13.6671 133.834C13.6223 133.696 13.584 133.482 13.5517 133.226C13.4428 132.723 13.517 131.996 13.6743 131.246C13.8166 130.48 14.2915 129.684 14.8429 129.047C15.4267 128.418 16.194 127.842 17.1055 127.493C17.9972 127.086 18.9966 126.897 19.9673 126.808C20.9463 126.743 21.9445 126.714 22.7998 126.848C23.6503 126.974 24.4349 127.008 24.9583 127.119C25.5055 127.177 25.8213 127.227 25.8213 127.227Z" fill="#334FAA"/>
<path d="M13.8061 119.858C13.8061 119.858 13.5872 119.63 13.177 119.243C12.741 118.916 12.1411 118.345 11.2631 117.935C10.3941 117.534 9.31278 117.038 8.0281 116.907C6.74103 116.745 5.30564 116.94 3.97073 117.469C2.65854 118.049 1.44265 119 0.738709 120.237C-0.00111501 121.468 -0.0651096 122.804 0.0389562 123.838C0.135247 124.904 0.690863 125.657 1.02938 126.1C1.2399 126.312 1.40497 126.459 1.53176 126.547C1.65138 126.636 1.71537 126.684 1.71537 126.684C1.71537 126.684 1.69384 126.608 1.65257 126.465C1.60772 126.327 1.56944 126.113 1.53714 125.856C1.42829 125.354 1.50246 124.627 1.65975 123.877C1.80209 123.111 2.27697 122.315 2.8284 121.678C3.41212 121.049 4.17946 120.473 5.09093 120.124C5.98267 119.717 6.98206 119.528 7.95274 119.439C8.9318 119.374 9.92999 119.345 10.7852 119.478C11.6357 119.605 12.4204 119.639 12.9437 119.749C13.4904 119.808 13.8061 119.858 13.8061 119.858Z" fill="#334FAA"/>
<path d="M38.2752 141.82C38.2752 141.82 38.1843 141.555 37.9744 141.098C37.725 140.687 37.405 140.01 36.7908 139.41C36.1807 138.823 35.4295 138.1 34.4451 137.602C33.4774 137.076 32.3351 136.731 31.1126 136.587C29.8955 136.503 28.5737 136.653 27.4733 137.234C26.3262 137.782 25.6115 138.787 25.2089 139.617C24.7777 140.477 24.868 141.322 24.9446 141.814C25.0134 142.07 25.0863 142.256 25.1485 142.378C25.2072 142.497 25.2382 142.56 25.2382 142.56C25.2382 142.56 25.258 142.492 25.2945 142.366C25.3286 142.243 25.3979 142.065 25.5056 141.864C25.6563 141.445 26.0845 140.973 26.551 140.526C27.0259 140.056 27.7287 139.763 28.4248 139.587C29.1557 139.421 29.981 139.347 30.8542 139.457C31.7274 139.505 32.6335 139.726 33.4888 139.947C34.3332 140.189 35.1795 140.403 35.8548 140.727C36.5252 141.043 37.1783 141.257 37.5808 141.493C38.027 141.683 38.2752 141.82 38.2752 141.82Z" fill="#334FAA"/>
<path d="M41.4974 131.045C41.4974 131.045 41.5764 130.773 41.6876 130.282C41.7403 129.801 41.9083 129.08 41.8431 128.239C41.7732 127.404 41.7223 126.391 41.4173 125.366C41.1302 124.332 40.6829 123.3 40.0597 122.262C39.3916 121.273 38.4987 120.276 37.3384 119.734C36.7912 119.452 36.1237 119.281 35.5466 119.272C34.9604 119.256 34.4269 119.352 33.9581 119.483C32.9969 119.748 32.4318 120.446 32.1596 120.876C32.0364 121.119 31.973 121.314 31.9455 121.45C31.9168 121.581 31.9019 121.651 31.9019 121.651C31.9019 121.651 31.9593 121.61 32.0669 121.532C32.1692 121.456 32.3367 121.361 32.5484 121.284C32.9359 121.071 33.5615 121.039 34.1913 121.087C34.5107 121.104 34.8522 121.201 35.1656 121.347C35.4891 121.497 35.7326 121.683 36.0394 121.913C36.6058 122.386 37.162 123.024 37.6356 123.819C38.156 124.575 38.6057 125.482 39.0615 126.295C39.4867 127.125 39.9699 127.898 40.272 128.614C40.5752 129.325 40.9574 129.916 41.135 130.357C41.3736 130.788 41.4974 131.045 41.4974 131.045Z" fill="#334FAA"/>
<path d="M42.853 143.705C42.853 143.705 42.9625 143.499 43.1538 143.139C43.2914 142.78 43.6096 142.29 43.8369 141.734C44.0605 141.171 44.4559 140.591 44.8057 140.038C45.1748 139.503 45.5701 138.979 46.0521 138.581C46.4917 138.142 47.0079 137.86 47.4905 137.651C47.966 137.476 48.5647 137.32 49.073 137.406C49.5694 137.474 50.088 137.558 50.3966 137.751C50.567 137.827 50.7082 137.904 50.7931 137.967C50.884 138.029 50.9319 138.062 50.9319 138.062C50.9319 138.062 50.9277 138.004 50.9199 137.894C50.9145 137.779 50.8876 137.617 50.835 137.398C50.6789 137.022 50.4014 136.355 49.7243 135.922C49.076 135.498 48.1568 135.053 47.0605 135.15C45.9744 135.212 44.9331 135.744 44.1209 136.444C43.3464 137.186 42.7681 138.09 42.4942 139.005C42.1933 139.904 42.234 140.776 42.2448 141.463C42.2591 142.16 42.5031 142.728 42.597 143.108C42.7603 143.488 42.853 143.705 42.853 143.705Z" fill="#334FAA"/>
<path d="M44.1333 122.096C44.1333 122.096 44.1835 122.041 44.278 121.937C44.3755 121.837 44.4981 121.682 44.6925 121.517C45.0029 121.141 45.5896 120.739 46.1931 120.288C46.8061 119.828 47.6321 119.498 48.4562 119.215C48.8779 119.086 49.3103 118.984 49.7463 118.906C50.1853 118.844 50.6272 118.818 51.062 118.842C51.4975 118.852 51.9358 118.912 52.3683 119.009C52.7971 119.121 53.2193 119.257 53.6302 119.417C54.4268 119.767 55.2277 120.154 55.8036 120.659C56.3676 121.157 56.925 121.6 57.2043 121.999C57.3867 122.179 57.4986 122.341 57.5883 122.449C57.6744 122.56 57.7205 122.619 57.7205 122.619C57.7205 122.619 57.7229 122.545 57.7276 122.405C57.7282 122.266 57.7486 122.052 57.7247 121.786C57.6481 121.273 57.553 120.458 57.0644 119.642C56.5799 118.846 55.9077 117.888 54.8712 117.204C54.3646 116.849 53.7809 116.565 53.1577 116.346C52.5279 116.141 51.8569 116.013 51.1721 115.963C50.4855 115.961 49.8073 116.037 49.1637 116.194C48.5256 116.366 47.9221 116.605 47.3898 116.918C46.3073 117.526 45.5609 118.423 45.0173 119.18C44.4694 119.958 44.3097 120.761 44.1949 121.267C44.1494 121.53 44.1524 121.745 44.1423 121.883C44.1363 122.022 44.1333 122.096 44.1333 122.096Z" fill="#334FAA"/>
<path d="M50.1992 113.984C50.1992 113.984 50.2674 113.953 50.3948 113.894C50.5234 113.84 50.6974 113.746 50.9408 113.67C51.3738 113.447 52.0718 113.307 52.8033 113.129C53.5473 112.947 54.4366 112.968 55.3056 113.031C55.744 113.077 56.1818 113.153 56.6136 113.252C57.0418 113.367 57.4581 113.517 57.8493 113.71C58.2458 113.89 58.6256 114.118 58.985 114.376C59.3349 114.648 59.6704 114.938 59.9856 115.246C60.5807 115.881 61.165 116.551 61.4969 117.242C61.8205 117.921 62.159 118.548 62.2589 119.025C62.3564 119.261 62.3953 119.455 62.4353 119.589C62.4712 119.725 62.4903 119.797 62.4903 119.797C62.4903 119.797 62.522 119.73 62.5807 119.604C62.6363 119.476 62.7385 119.287 62.8217 119.033C62.9521 118.532 63.1853 117.745 63.0561 116.801C62.9234 115.879 62.6805 114.734 61.9957 113.699C61.6692 113.174 61.244 112.684 60.7565 112.237C60.2577 111.801 59.6907 111.42 59.0807 111.106C58.4503 110.834 57.796 110.638 57.1429 110.53C56.488 110.437 55.8397 110.42 55.2273 110.5C53.9934 110.634 52.9546 111.167 52.1573 111.649C51.3481 112.15 50.8858 112.825 50.582 113.245C50.4373 113.469 50.3553 113.668 50.2919 113.792C50.2309 113.917 50.1992 113.984 50.1992 113.984Z" fill="#334FAA"/>
<path d="M53.3943 160.953C53.3943 160.953 53.4888 160.731 53.6544 160.344C53.7543 159.956 53.9995 159.38 54.0468 158.689C54.0904 158.003 54.1951 157.17 54.0815 156.304C53.9941 155.427 53.7597 154.545 53.4337 153.631C53.0528 152.745 52.5408 151.82 51.789 151.135C51.4338 150.786 50.9978 150.501 50.5683 150.309C50.1383 150.115 49.7137 150.001 49.3255 149.921C48.5331 149.758 47.8554 150.016 47.4673 150.173C47.2693 150.281 47.1306 150.381 47.0421 150.456C46.9553 150.528 46.9087 150.567 46.9087 150.567C46.9087 150.567 47.1581 150.588 47.5199 150.734C47.8836 150.813 48.3202 151.133 48.7496 151.436C49.2089 151.75 49.5337 152.268 49.8662 152.79C50.1796 153.342 50.5031 153.967 50.7573 154.695C51.0677 155.399 51.3261 156.186 51.6192 156.893C51.8859 157.61 52.243 158.28 52.4451 158.887C52.6515 159.489 52.9666 159.997 53.0994 160.368C53.2866 160.74 53.3943 160.953 53.3943 160.953Z" fill="#334FAA"/>
<path d="M53.5455 171.922C53.5455 171.922 53.6526 171.659 53.8649 171.225C54.0204 170.785 54.3733 170.192 54.6741 169.518C54.9701 168.835 55.4707 168.135 55.9653 167.46C56.4785 166.802 57.058 166.158 57.7458 165.674C58.3965 165.144 59.1435 164.798 59.8618 164.567C60.5789 164.368 61.3702 164.229 62.0448 164.341C62.7087 164.438 63.351 164.547 63.7529 164.754C63.9682 164.838 64.1447 164.915 64.2553 164.979C64.3714 165.041 64.433 165.075 64.433 165.075C64.433 165.075 64.4102 165.009 64.3666 164.884C64.3253 164.754 64.2481 164.575 64.1327 164.339C63.8588 163.936 63.421 163.25 62.5974 162.817C61.7996 162.39 60.7213 161.961 59.4874 162.056C58.2578 162.114 57.0281 162.638 56.0078 163.375C55.0222 164.16 54.2249 165.153 53.7668 166.203C53.2812 167.236 53.1801 168.291 53.1053 169.135C53.0312 169.99 53.2351 170.705 53.3099 171.178C53.4492 171.659 53.5455 171.922 53.5455 171.922Z" fill="#334FAA"/>
<path d="M55.2593 151.524C55.2593 151.524 55.4794 151.313 55.8783 150.989C56.2246 150.629 56.8436 150.233 57.4608 149.733C58.084 149.226 58.9076 148.785 59.7455 148.344C60.5947 147.916 61.499 147.498 62.4512 147.243C63.3884 146.919 64.3477 146.77 65.1958 146.726C66.0444 146.716 66.8369 146.774 67.4601 147.125C68.0672 147.458 68.6282 147.845 68.8895 148.245C69.2053 148.619 69.3165 148.913 69.3165 148.913C69.3165 148.913 69.3327 148.839 69.3638 148.7C69.3919 148.558 69.42 148.346 69.4212 148.061C69.3614 147.53 69.2023 146.635 68.4942 145.878C67.8183 145.129 66.7041 144.389 65.4314 144.2C64.1605 143.961 62.8346 144.141 61.6109 144.487C60.3914 144.886 59.2437 145.481 58.3322 146.242C57.395 146.972 56.7611 147.901 56.2533 148.659C55.7449 149.432 55.5553 150.206 55.3998 150.702C55.294 151.229 55.2593 151.524 55.2593 151.524Z" fill="#334FAA"/>
<path d="M59.3188 144.532C59.3188 144.532 59.5389 144.321 59.9379 143.996C60.2841 143.637 60.9032 143.24 61.5204 142.74C62.1436 142.234 62.9671 141.793 63.805 141.352C64.6549 140.924 65.5586 140.505 66.5114 140.251C67.4485 139.926 68.4079 139.777 69.2559 139.734C70.1046 139.723 70.8977 139.781 71.5203 140.133C72.1273 140.466 72.6883 140.852 72.9497 141.252C73.2655 141.626 73.3767 141.92 73.3767 141.92C73.3767 141.92 73.3934 141.846 73.424 141.708C73.4521 141.566 73.4802 141.354 73.4814 141.068C73.4216 140.537 73.2625 139.644 72.5543 138.885C71.8779 138.137 70.7637 137.397 69.4916 137.208C68.2207 136.969 66.8947 137.148 65.6711 137.495C64.4516 137.894 63.3039 138.489 62.3924 139.249C61.4552 139.98 60.8212 140.908 60.3135 141.666C59.8051 142.439 59.6155 143.213 59.46 143.709C59.3535 144.236 59.3188 144.532 59.3188 144.532Z" fill="#334FAA"/>
<path d="M18.0424 122.004C18.0424 122.004 17.9401 121.73 17.7613 121.25C17.5394 120.808 17.3098 120.107 16.9306 119.395C16.546 118.684 16.2255 117.802 15.8959 116.945C15.5915 116.084 15.3206 115.184 15.253 114.291C15.1244 113.408 15.2237 112.551 15.4252 111.812C15.6501 111.101 16.0209 110.352 16.5359 109.88C17.0305 109.405 17.5496 108.991 17.9934 108.839C18.2087 108.741 18.3953 108.668 18.5251 108.639C18.6578 108.603 18.7284 108.585 18.7284 108.585C18.7284 108.585 18.662 108.553 18.5382 108.493C18.4114 108.427 18.22 108.356 17.9539 108.277C17.4461 108.199 16.5741 108.085 15.674 108.507C14.7972 108.908 13.7542 109.583 13.1184 110.755C12.4617 111.898 12.2733 113.298 12.3888 114.599C12.5616 115.897 13.0054 117.115 13.637 118.089C14.2398 119.074 15.0323 119.776 15.6471 120.375C16.2703 120.974 16.9366 121.318 17.3373 121.611C17.7864 121.861 18.0424 122.004 18.0424 122.004Z" fill="#334FAA"/>
<path d="M30.6975 147.856C30.6975 147.856 30.4816 147.697 30.0761 147.439C29.6611 147.246 29.0582 146.864 28.2526 146.706C27.4577 146.553 26.4607 146.361 25.3788 146.535C24.2879 146.679 23.1605 147.155 22.1761 147.864C21.2275 148.619 20.4225 149.628 20.0601 150.763C19.6606 151.892 19.8053 153.006 20.0152 153.851C20.2234 154.723 20.7718 155.29 21.0882 155.634C21.2844 155.793 21.4357 155.905 21.5487 155.97C21.6564 156.037 21.7138 156.073 21.7138 156.073C21.7138 156.073 21.6976 156.008 21.6671 155.884C21.6342 155.766 21.6061 155.584 21.5828 155.365C21.4883 154.944 21.5523 154.325 21.6289 153.698C21.6934 153.056 22.0266 152.372 22.3848 151.781C22.7754 151.195 23.2742 150.61 23.9195 150.158C24.5313 149.658 25.2622 149.296 25.9906 148.992C26.7305 148.711 27.4978 148.422 28.2 148.319C28.8943 148.21 29.5301 148.024 29.9751 147.986C30.4284 147.893 30.6975 147.856 30.6975 147.856Z" fill="#334FAA"/>
<path d="M23.4314 146.837C23.4314 146.837 23.2155 146.679 22.81 146.421C22.3949 146.227 21.7915 145.845 20.9865 145.687C20.1916 145.534 19.1946 145.342 18.1127 145.517C17.0218 145.661 15.8938 146.137 14.91 146.846C13.9614 147.6 13.1564 148.61 12.794 149.744C12.3945 150.874 12.5392 151.987 12.7491 152.833C12.9573 153.705 13.5057 154.271 13.8221 154.616C14.0182 154.775 14.1696 154.886 14.2826 154.952C14.3903 155.019 14.4477 155.054 14.4477 155.054C14.4477 155.054 14.4315 154.989 14.401 154.866C14.3681 154.747 14.34 154.565 14.3167 154.346C14.2222 153.925 14.2862 153.307 14.3627 152.679C14.4273 152.037 14.7605 151.354 15.1187 150.762C15.5093 150.177 16.0081 149.591 16.6534 149.139C17.2652 148.639 17.9961 148.277 18.7245 147.974C19.4644 147.692 20.2317 147.403 20.9338 147.301C21.6282 147.192 22.264 147.005 22.7089 146.968C23.1623 146.874 23.4314 146.837 23.4314 146.837Z" fill="#334FAA"/>
<path d="M114.33 63.1169C114.33 63.1169 114.429 62.7048 114.665 61.9859C114.957 61.3065 115.327 60.2569 116.127 59.2049C116.919 58.166 117.964 56.9357 119.463 56.047C120.946 55.1248 122.818 54.5913 124.719 54.5596C126.619 54.5823 128.57 55.1451 130.03 56.282C131.521 57.3981 132.297 58.9602 132.698 60.2694C133.123 61.6079 132.899 62.7957 132.737 63.5266C132.61 63.8974 132.502 64.1731 132.404 64.3525C132.315 64.5314 132.268 64.627 132.268 64.627C132.268 64.627 132.265 64.5206 132.261 64.3214C132.265 64.1265 132.231 63.8364 132.175 63.4883C132.102 62.7862 131.75 61.846 131.201 60.8896C130.664 59.9154 129.7 59.0105 128.608 58.3843C127.493 57.7784 126.127 57.4082 124.72 57.4411C123.309 57.4148 121.896 57.7617 120.64 58.2904C119.383 58.8406 118.202 59.5302 117.31 60.3059C116.418 61.0703 115.618 61.7407 115.138 62.2826C114.612 62.7939 114.33 63.1169 114.33 63.1169Z" fill="#334FAA"/>
<path d="M122.837 49.611C122.837 49.611 122.882 49.5374 122.964 49.3992C123.045 49.2587 123.17 49.0565 123.342 48.8036C123.719 48.3472 124.238 47.605 125.09 46.9818C125.934 46.3682 126.98 45.6415 128.263 45.2073C129.538 44.7504 130.965 44.498 132.519 44.5841C133.289 44.6613 134.083 44.8371 134.827 45.1654C135.582 45.4938 136.263 45.9956 136.774 46.5954C137.304 47.1816 137.659 47.9052 137.816 48.6301C137.973 49.3478 137.922 50.0978 137.73 50.6935C137.348 51.9184 136.384 52.4788 135.803 52.6994C135.161 52.8848 134.814 52.7628 134.818 52.7838C134.818 52.7838 134.891 52.7413 135.029 52.6612C135.158 52.5727 135.339 52.4381 135.505 52.2222C135.884 51.855 136.14 51.1103 136.14 50.3795C136.162 49.6564 135.654 48.9315 134.974 48.3843C134.617 48.1152 134.224 47.8903 133.78 47.7378C133.327 47.5793 132.822 47.4824 132.286 47.4549C131.219 47.3377 130.015 47.4854 128.917 47.6534C127.821 47.8472 126.75 48.053 125.876 48.3927C125.007 48.7258 124.206 48.9698 123.694 49.2354C123.42 49.3436 123.206 49.4387 123.062 49.5075C122.915 49.5751 122.837 49.611 122.837 49.611Z" fill="#334FAA"/>
<path d="M108.341 84.9132C108.364 84.7625 110.735 69.6675 117.677 52.9829C124.102 37.5387 135.871 17.5258 155.448 9.8877L155.871 10.972C119.089 25.3229 109.584 84.4939 109.493 85.0896L108.341 84.9132Z" fill="#334FAA"/>
<path d="M110.844 73.4362C110.915 73.1844 117.781 48.1218 105.486 34.6902L106.345 33.9043C119.08 47.8162 112.037 73.4942 111.964 73.7513L110.844 73.4362Z" fill="#334FAA"/>
<path d="M114.443 61.5133C114.529 61.2663 123.333 36.873 146.428 37.6081L146.39 38.7719C124.157 38.0644 115.625 61.6592 115.542 61.8979L114.443 61.5133Z" fill="#334FAA"/>
<path d="M120.209 47.2836C120.339 46.9589 132.961 14.6153 113.963 4.74344L114.499 3.70996C134.442 14.0645 121.425 47.3793 121.291 47.7148L120.209 47.2836Z" fill="#334FAA"/>
<path d="M140.775 19.0253C140.775 19.0253 140.994 18.7968 141.404 18.4104C141.839 18.0839 142.44 17.5121 143.318 17.1024C144.187 16.7005 145.268 16.2047 146.553 16.0743C147.84 15.9117 149.275 16.1066 150.61 16.6359C151.922 17.2161 153.138 18.167 153.842 19.4038C154.582 20.6347 154.646 21.9714 154.541 23.0049C154.445 24.0706 153.889 24.8242 153.551 25.2668C153.341 25.4779 153.176 25.6257 153.049 25.7136C152.929 25.8027 152.865 25.8505 152.865 25.8505C152.865 25.8505 152.887 25.774 152.928 25.631C152.973 25.4935 153.011 25.2794 153.043 25.0228C153.152 24.5204 153.078 23.7937 152.921 23.0426C152.778 22.2764 152.303 21.481 151.752 20.844C151.168 20.2154 150.401 19.6395 149.49 19.2902C148.598 18.8835 147.598 18.6939 146.628 18.6054C145.649 18.5402 144.65 18.5109 143.795 18.6449C142.945 18.7711 142.16 18.8052 141.637 18.9158C141.091 18.975 140.775 19.0253 140.775 19.0253Z" fill="#334FAA"/>
<path d="M152.79 11.6561C152.79 11.6561 153.009 11.4276 153.419 11.0413C153.855 10.7147 154.455 10.143 155.333 9.73328C156.202 9.33137 157.283 8.83557 158.569 8.70519C159.856 8.54251 161.291 8.73748 162.626 9.26678C163.938 9.84692 165.154 10.7979 165.858 12.0341C166.598 13.2649 166.662 14.6017 166.558 15.6351C166.462 16.7009 165.905 17.4545 165.567 17.8971C165.357 18.1082 165.192 18.2559 165.065 18.3438C164.945 18.4329 164.881 18.4808 164.881 18.4808C164.881 18.4808 164.903 18.4042 164.944 18.2613C164.989 18.1237 165.027 17.9096 165.06 17.6531C165.168 17.1507 165.094 16.424 164.937 15.6734C164.795 14.9073 164.32 14.1118 163.768 13.4749C163.185 12.8463 162.417 12.2703 161.506 11.9211C160.614 11.515 159.615 11.3248 158.644 11.2363C157.665 11.1711 156.667 11.1418 155.812 11.2757C154.961 11.4019 154.176 11.436 153.653 11.5467C153.106 11.6059 152.79 11.6561 152.79 11.6561Z" fill="#334FAA"/>
<path d="M128.321 33.6184C128.321 33.6184 128.412 33.3528 128.622 32.8965C128.872 32.485 129.191 31.808 129.806 31.2093C130.416 30.6214 131.167 29.8989 132.151 29.4007C133.118 28.875 134.261 28.5299 135.484 28.3858C136.701 28.302 138.023 28.4516 139.123 29.0329C140.27 29.5807 140.985 30.5861 141.388 31.4162C141.819 32.2763 141.728 33.1208 141.652 33.6124C141.583 33.869 141.51 34.055 141.448 34.1764C141.389 34.2954 141.358 34.3588 141.358 34.3588C141.358 34.3588 141.338 34.2918 141.302 34.165C141.268 34.0418 141.199 33.8642 141.091 33.6632C140.94 33.244 140.512 32.7715 140.045 32.3253C139.571 31.8546 138.868 31.5622 138.172 31.3857C137.441 31.2195 136.615 31.1459 135.742 31.2554C134.868 31.3038 133.962 31.5251 133.107 31.7458C132.263 31.988 131.416 32.2021 130.741 32.5257C130.071 32.8421 129.418 33.0562 129.015 33.2918C128.569 33.4814 128.321 33.6184 128.321 33.6184Z" fill="#334FAA"/>
<path d="M125.099 22.8443C125.099 22.8443 125.02 22.5722 124.909 22.0812C124.856 21.6003 124.688 20.879 124.754 20.0375C124.824 19.2032 124.874 18.1901 125.179 17.1649C125.466 16.1309 125.914 15.0986 126.537 14.0609C127.205 13.0711 128.097 12.0741 129.258 11.5328C129.806 11.2505 130.472 11.0795 131.05 11.0711C131.636 11.055 132.169 11.1507 132.639 11.2822C133.6 11.5466 134.166 12.2446 134.437 12.6752C134.561 12.918 134.624 13.113 134.651 13.2481C134.68 13.3791 134.695 13.4491 134.695 13.4491C134.695 13.4491 134.637 13.4078 134.53 13.3301C134.428 13.2541 134.261 13.1596 134.048 13.0825C133.661 12.8695 133.035 12.8378 132.405 12.8857C132.086 12.903 131.745 12.9993 131.431 13.1459C131.108 13.2954 130.864 13.482 130.557 13.7122C129.991 14.1853 129.435 14.8229 128.961 15.6177C128.441 16.3743 127.991 17.281 127.535 18.0938C127.11 18.9239 126.627 19.6972 126.325 20.4131C126.022 21.1236 125.639 21.7151 125.462 22.1553C125.223 22.5871 125.099 22.8443 125.099 22.8443Z" fill="#334FAA"/>
<path d="M123.743 35.5039C123.743 35.5039 123.634 35.2982 123.443 34.9375C123.305 34.5787 122.987 34.0883 122.76 33.5326C122.536 32.9699 122.141 32.3897 121.791 31.8371C121.422 31.3018 121.026 30.7773 120.544 30.3802C120.105 29.9406 119.589 29.6583 119.106 29.4496C118.631 29.2749 118.032 29.1182 117.523 29.2043C117.027 29.2731 116.508 29.3563 116.2 29.5494C116.029 29.6266 115.888 29.7031 115.803 29.7653C115.712 29.8275 115.665 29.861 115.665 29.861C115.665 29.861 115.669 29.8024 115.677 29.6924C115.682 29.5775 115.709 29.4155 115.761 29.1966C115.918 28.821 116.195 28.1535 116.872 27.7205C117.521 27.2965 118.44 26.8521 119.536 26.949C120.622 27.0112 121.663 27.5429 122.475 28.2426C123.25 28.9849 123.828 29.8891 124.102 30.8036C124.403 31.7025 124.362 32.5745 124.352 33.2617C124.337 33.9585 124.093 34.5266 123.999 34.907C123.836 35.2868 123.743 35.5039 123.743 35.5039Z" fill="#334FAA"/>
<path d="M122.463 13.8945C122.463 13.8945 122.413 13.8395 122.318 13.7354C122.221 13.6349 122.098 13.4806 121.904 13.3156C121.593 12.94 121.007 12.5375 120.403 12.0859C119.79 11.6266 118.964 11.2965 118.14 11.0136C117.718 10.8844 117.286 10.7827 116.85 10.7044C116.411 10.6422 115.97 10.6164 115.534 10.6404C115.099 10.6499 114.66 10.7109 114.228 10.8072C113.799 10.9197 113.377 11.0548 112.966 11.2151C112.17 11.565 111.369 11.9525 110.793 12.4573C110.229 12.9549 109.671 13.3987 109.392 13.7982C109.21 13.9776 109.098 14.1403 109.009 14.248C108.923 14.3586 108.876 14.4178 108.876 14.4178C108.876 14.4178 108.874 14.3437 108.869 14.2043C108.868 14.065 108.848 13.8508 108.872 13.5847C108.949 13.0727 109.043 12.257 109.532 11.4406C110.016 10.6445 110.689 9.68702 111.725 9.00282C112.232 8.64815 112.815 8.36407 113.439 8.14457C114.068 7.93943 114.739 7.81204 115.424 7.7618C116.111 7.75881 116.789 7.83597 117.433 7.99266C118.071 8.16431 118.674 8.40354 119.206 8.71694C120.289 9.32458 121.035 10.2223 121.579 10.9789C122.127 11.7564 122.287 12.5602 122.401 13.0656C122.447 13.3287 122.444 13.5434 122.454 13.6822C122.46 13.8203 122.463 13.8945 122.463 13.8945Z" fill="#334FAA"/>
<path d="M116.397 5.78189C116.397 5.78189 116.329 5.75079 116.202 5.69218C116.072 5.63775 115.899 5.54445 115.655 5.4685C115.222 5.24482 114.524 5.10487 113.793 4.92664C113.049 4.74482 112.159 4.76575 111.29 4.82855C110.851 4.8752 110.414 4.95116 109.982 5.05044C109.554 5.16527 109.138 5.31539 108.747 5.50797C108.349 5.68799 107.97 5.91586 107.611 6.17423C107.261 6.44576 106.925 6.73583 106.61 7.04444C106.015 7.679 105.43 8.34945 105.099 9.04023C104.775 9.71905 104.437 10.3458 104.337 10.8231C104.239 11.0599 104.201 11.2531 104.161 11.3877C104.125 11.5235 104.105 11.5958 104.105 11.5958C104.105 11.5958 104.074 11.5288 104.015 11.4026C103.96 11.2747 103.857 11.0857 103.774 10.8315C103.644 10.3303 103.411 9.54261 103.54 8.60004C103.672 7.6778 103.915 6.53308 104.6 5.4972C104.927 4.97269 105.352 4.48226 105.839 4.0355C106.338 3.5995 106.905 3.21912 107.515 2.90453C108.146 2.6324 108.8 2.43683 109.453 2.32858C110.107 2.23648 110.756 2.21913 111.369 2.29867C112.602 2.43264 113.641 2.96554 114.439 3.44759C115.248 3.94818 115.71 4.62401 116.014 5.04386C116.159 5.26814 116.241 5.4667 116.304 5.59051C116.366 5.71491 116.397 5.78189 116.397 5.78189Z" fill="#334FAA"/>
<path d="M113.202 52.7514C113.202 52.7514 113.108 52.5295 112.942 52.1419C112.842 51.7538 112.597 51.1778 112.55 50.4864C112.506 49.8005 112.402 48.9679 112.516 48.1019C112.603 47.2251 112.837 46.3424 113.163 45.4291C113.544 44.5433 114.056 43.6181 114.808 42.9327C115.163 42.584 115.599 42.2987 116.029 42.1068C116.459 41.913 116.883 41.7987 117.272 41.7192C118.064 41.5559 118.742 41.8137 119.13 41.9704C119.328 42.0792 119.467 42.1791 119.556 42.2539C119.642 42.3263 119.688 42.3645 119.688 42.3645C119.688 42.3645 119.439 42.3855 119.077 42.5308C118.714 42.6103 118.277 42.9303 117.848 43.2335C117.389 43.5469 117.064 44.0655 116.731 44.5876C116.418 45.1396 116.094 45.764 115.84 46.4925C115.529 47.1958 115.27 47.9835 114.978 48.6898C114.711 49.4075 114.354 50.0768 114.152 50.6838C113.946 51.2861 113.631 51.7944 113.498 52.1653C113.31 52.5385 113.202 52.7514 113.202 52.7514Z" fill="#334FAA"/>
<path d="M113.051 63.7206C113.051 63.7206 112.944 63.4581 112.732 63.0239C112.576 62.5837 112.223 61.991 111.923 61.3169C111.626 60.6339 111.126 59.9336 110.631 59.2589C110.118 58.6005 109.539 57.9569 108.851 57.4725C108.2 56.9426 107.453 56.5969 106.735 56.3654C106.018 56.1675 105.226 56.0275 104.552 56.1394C103.888 56.2368 103.246 56.3457 102.843 56.5532C102.628 56.6364 102.451 56.7135 102.341 56.7775C102.225 56.8403 102.163 56.8738 102.163 56.8738C102.163 56.8738 102.186 56.8074 102.229 56.6824C102.271 56.5526 102.348 56.3732 102.463 56.1382C102.737 55.7345 103.175 55.0479 103.999 54.6161C104.796 54.189 105.875 53.7596 107.109 53.8553C108.338 53.9133 109.568 54.4366 110.588 55.1741C111.574 55.9587 112.371 56.9516 112.829 58.0018C113.315 59.0359 113.416 60.0903 113.491 60.9336C113.565 61.7888 113.361 62.5041 113.286 62.9772C113.148 63.4581 113.051 63.7206 113.051 63.7206Z" fill="#334FAA"/>
<path d="M111.337 43.3226C111.337 43.3226 111.117 43.1115 110.718 42.7874C110.372 42.4279 109.753 42.0314 109.135 41.5314C108.512 41.0248 107.689 40.584 106.851 40.1427C106.001 39.715 105.097 39.2964 104.145 39.0416C103.208 38.7174 102.248 38.5685 101.4 38.5249C100.552 38.5141 99.7592 38.5715 99.1354 38.9238C98.529 39.2569 97.9674 39.6439 97.706 40.0434C97.3902 40.4172 97.279 40.7114 97.279 40.7114C97.279 40.7114 97.2622 40.6373 97.2317 40.4985C97.2036 40.3568 97.1755 40.145 97.1743 39.8592C97.2341 39.3281 97.3932 38.4345 98.1013 37.6762C98.7778 36.928 99.892 36.1876 101.164 35.9986C102.435 35.7599 103.761 35.9394 104.985 36.2856C106.204 36.6846 107.352 37.2797 108.263 38.0404C109.2 38.7707 109.834 39.6995 110.342 40.4578C110.851 41.2306 111.04 42.0051 111.196 42.5003C111.302 43.0266 111.337 43.3226 111.337 43.3226Z" fill="#334FAA"/>
<path d="M107.277 36.3295C107.277 36.3295 107.057 36.1183 106.658 35.7942C106.312 35.4347 105.693 35.0382 105.076 34.5382C104.453 34.031 103.629 33.5909 102.791 33.1495C101.942 32.7218 101.038 32.3032 100.085 32.0484C99.1477 31.7242 98.189 31.5753 97.3403 31.5317C96.4916 31.5209 95.6992 31.5783 95.0754 31.9306C94.4683 32.2637 93.9073 32.6501 93.6459 33.0502C93.3302 33.424 93.2189 33.7182 93.2189 33.7182C93.2189 33.7182 93.2028 33.6441 93.1717 33.5053C93.1436 33.3636 93.1155 33.1519 93.1143 32.866C93.1741 32.3349 93.3332 31.4414 94.0413 30.683C94.7177 29.9348 95.8319 29.1944 97.104 29.0054C98.375 28.7667 99.7009 28.9462 100.925 29.2931C102.144 29.692 103.292 30.2871 104.203 31.0478C105.14 31.7781 105.774 32.7069 106.282 33.4653C106.791 34.238 106.98 35.0125 107.136 35.5077C107.243 36.034 107.277 36.3295 107.277 36.3295Z" fill="#334FAA"/>
<path d="M148.554 13.8021C148.554 13.8021 148.656 13.5276 148.835 13.0473C149.057 12.6059 149.287 11.9044 149.666 11.1933C150.051 10.4815 150.371 9.59998 150.701 8.74293C151.004 7.88169 151.275 6.98219 151.344 6.08865C151.472 5.20589 151.373 4.34884 151.171 3.61021C150.946 2.8985 150.576 2.1497 150.061 1.67782C149.566 1.20235 149.047 0.788472 148.603 0.63656C148.388 0.538475 148.201 0.466108 148.072 0.436802C147.939 0.401515 147.868 0.382379 147.868 0.382379C147.868 0.382379 147.935 0.350681 148.058 0.290873C148.185 0.224486 148.377 0.153913 148.643 0.0749662C149.15 -0.00278412 150.022 -0.117016 150.923 0.305826C151.799 0.705941 152.842 1.38117 153.478 2.55341C154.135 3.69574 154.323 5.09644 154.208 6.39786C154.035 7.69509 153.591 8.91338 152.96 9.88765C152.357 10.8727 151.564 11.5748 150.949 12.1735C150.326 12.7728 149.66 13.1167 149.259 13.4091C148.81 13.6591 148.554 13.8021 148.554 13.8021Z" fill="#334FAA"/>
<path d="M135.898 39.654C135.898 39.654 136.114 39.4955 136.52 39.2377C136.935 39.0439 137.538 38.6618 138.343 38.5045C139.138 38.3514 140.135 38.1594 141.217 38.334C142.308 38.4782 143.436 38.9542 144.42 39.663C145.368 40.4177 146.173 41.4273 146.536 42.5618C146.935 43.6916 146.791 44.8046 146.581 45.6503C146.373 46.5223 145.824 47.0887 145.508 47.4332C145.312 47.5923 145.16 47.7035 145.048 47.7693C144.94 47.8363 144.883 47.8716 144.883 47.8716C144.883 47.8716 144.899 47.8064 144.929 47.6838C144.962 47.5654 144.99 47.383 145.014 47.1641C145.108 46.743 145.044 46.1246 144.968 45.4972C144.903 44.8555 144.57 44.1725 144.212 43.5804C143.821 42.9949 143.322 42.4093 142.677 41.9572C142.065 41.4572 141.334 41.0953 140.606 40.7915C139.866 40.5104 139.098 40.221 138.397 40.1187C137.702 40.0098 137.066 39.8232 136.622 39.7856C136.168 39.6917 135.898 39.654 135.898 39.654Z" fill="#334FAA"/>
<path d="M143.165 38.6354C143.165 38.6354 143.38 38.4769 143.786 38.2192C144.201 38.0254 144.804 37.6432 145.61 37.4859C146.404 37.3328 147.401 37.1408 148.483 37.3155C149.574 37.4596 150.702 37.9357 151.686 38.6444C152.635 39.3992 153.44 40.4087 153.802 41.5433C154.202 42.6731 154.057 43.7861 153.847 44.6318C153.639 45.5038 153.09 46.0701 152.774 46.4146C152.578 46.5737 152.426 46.685 152.313 46.7508C152.206 46.8177 152.148 46.853 152.148 46.853C152.148 46.853 152.164 46.7878 152.195 46.6652C152.228 46.5468 152.256 46.3644 152.279 46.1455C152.374 45.7245 152.31 45.106 152.233 44.4787C152.169 43.8369 151.835 43.1533 151.477 42.5618C151.087 41.9763 150.588 41.3908 149.943 40.9386C149.331 40.438 148.6 40.0768 147.871 39.773C147.132 39.4919 146.364 39.2024 145.662 39.1001C144.968 38.9913 144.332 38.8047 143.887 38.767C143.434 38.6725 143.165 38.6354 143.165 38.6354Z" fill="#334FAA"/>
<path d="M146.995 154.448C146.995 154.448 147.095 154.036 147.331 153.317C147.623 152.638 147.992 151.588 148.793 150.536C149.585 149.497 150.629 148.267 152.128 147.378C153.611 146.456 155.482 145.922 157.384 145.891C159.284 145.913 161.235 146.476 162.695 147.613C164.186 148.729 164.962 150.291 165.363 151.6C165.788 152.939 165.564 154.127 165.402 154.858C165.275 155.228 165.167 155.504 165.069 155.684C164.98 155.862 164.933 155.958 164.933 155.958C164.933 155.958 164.93 155.852 164.926 155.652C164.93 155.457 164.896 155.167 164.84 154.819C164.767 154.117 164.415 153.176 163.866 152.22C163.329 151.246 162.365 150.341 161.273 149.715C160.158 149.109 158.792 148.739 157.385 148.772C155.973 148.745 154.561 149.092 153.305 149.621C152.048 150.171 150.867 150.861 149.975 151.636C149.082 152.401 148.283 153.071 147.803 153.613C147.278 154.125 146.995 154.448 146.995 154.448Z" fill="#334FAA"/>
<path d="M155.503 140.942C155.503 140.942 155.547 140.868 155.629 140.73C155.711 140.59 155.835 140.387 156.007 140.134C156.384 139.678 156.904 138.936 157.755 138.312C158.6 137.698 159.645 136.972 160.929 136.537C162.203 136.08 163.631 135.828 165.185 135.914C165.954 135.991 166.749 136.167 167.493 136.496C168.248 136.824 168.929 137.326 169.439 137.926C169.969 138.512 170.325 139.235 170.481 139.96C170.639 140.677 170.588 141.428 170.396 142.024C170.014 143.248 169.049 143.809 168.468 144.03C167.826 144.215 167.479 144.093 167.484 144.114C167.484 144.114 167.557 144.071 167.694 143.991C167.823 143.903 168.005 143.768 168.17 143.552C168.549 143.185 168.805 142.44 168.806 141.71C168.828 140.986 168.32 140.262 167.64 139.714C167.282 139.445 166.89 139.22 166.445 139.068C165.992 138.909 165.488 138.812 164.952 138.785C163.885 138.668 162.68 138.815 161.583 138.984C160.486 139.177 159.416 139.383 158.541 139.723C157.672 140.056 156.872 140.3 156.36 140.565C156.085 140.674 155.872 140.769 155.728 140.838C155.581 140.906 155.503 140.942 155.503 140.942Z" fill="#334FAA"/>
<path d="M141.006 176.243C141.03 176.093 143.4 160.998 150.342 144.313C156.767 128.869 168.536 108.855 188.113 101.218L188.536 102.302C151.754 116.653 142.249 175.825 142.158 176.42L141.006 176.243Z" fill="#334FAA"/>
<path d="M143.51 164.767C143.581 164.515 150.447 139.453 138.152 126.021L139.011 125.235C151.746 139.147 144.703 164.825 144.63 165.082L143.51 164.767Z" fill="#334FAA"/>
<path d="M147.109 152.844C147.195 152.597 155.998 128.204 179.094 128.938L179.056 130.102C156.823 129.394 148.291 152.989 148.208 153.228L147.109 152.844Z" fill="#334FAA"/>
<path d="M152.876 138.614C153.006 138.289 165.628 105.945 146.629 96.0735L147.165 95.04C167.109 105.395 154.091 138.709 153.957 139.045L152.876 138.614Z" fill="#334FAA"/>
<path d="M173.441 110.356C173.441 110.356 173.66 110.128 174.07 109.741C174.506 109.415 175.106 108.843 175.984 108.433C176.853 108.032 177.934 107.536 179.219 107.405C180.506 107.243 181.941 107.438 183.276 107.967C184.589 108.547 185.804 109.498 186.508 110.735C187.248 111.965 187.312 113.302 187.208 114.336C187.112 115.402 186.556 116.155 186.218 116.598C186.007 116.809 185.843 116.957 185.716 117.045C185.596 117.134 185.532 117.182 185.532 117.182C185.532 117.182 185.554 117.106 185.595 116.963C185.64 116.825 185.678 116.611 185.711 116.354C185.819 115.852 185.745 115.125 185.588 114.375C185.446 113.609 184.971 112.813 184.419 112.176C183.836 111.547 183.068 110.971 182.157 110.622C181.265 110.215 180.266 110.026 179.295 109.937C178.316 109.872 177.318 109.843 176.462 109.977C175.612 110.103 174.827 110.137 174.304 110.247C173.757 110.306 173.441 110.356 173.441 110.356Z" fill="#334FAA"/>
<path d="M185.456 102.987C185.456 102.987 185.675 102.759 186.085 102.372C186.521 102.046 187.121 101.474 187.999 101.064C188.868 100.662 189.949 100.167 191.235 100.036C192.522 99.8736 193.957 100.069 195.292 100.598C196.604 101.178 197.82 102.129 198.524 103.366C199.264 104.596 199.328 105.933 199.224 106.967C199.128 108.033 198.571 108.786 198.233 109.229C198.023 109.44 197.858 109.588 197.731 109.676C197.611 109.765 197.547 109.813 197.547 109.813C197.547 109.813 197.569 109.736 197.61 109.594C197.655 109.456 197.693 109.242 197.726 108.985C197.834 108.483 197.76 107.756 197.603 107.005C197.461 106.239 196.986 105.443 196.434 104.807C195.851 104.178 195.083 103.602 194.172 103.253C193.28 102.846 192.281 102.656 191.31 102.568C190.331 102.503 189.333 102.473 188.478 102.607C187.627 102.734 186.842 102.768 186.319 102.878C185.772 102.937 185.456 102.987 185.456 102.987Z" fill="#334FAA"/>
<path d="M160.987 124.949C160.987 124.949 161.078 124.684 161.288 124.228C161.537 123.816 161.856 123.139 162.471 122.54C163.081 121.952 163.832 121.23 164.817 120.732C165.784 120.207 166.927 119.861 168.149 119.717C169.366 119.633 170.688 119.783 171.789 120.364C172.936 120.912 173.651 121.917 174.053 122.747C174.484 123.607 174.394 124.452 174.317 124.943C174.249 125.199 174.176 125.386 174.113 125.507C174.055 125.626 174.024 125.69 174.024 125.69C174.024 125.69 174.004 125.622 173.968 125.496C173.933 125.373 173.864 125.195 173.756 124.994C173.605 124.575 173.177 124.103 172.711 123.656C172.236 123.186 171.533 122.893 170.837 122.717C170.106 122.551 169.281 122.477 168.407 122.586C167.534 122.635 166.628 122.856 165.773 123.077C164.928 123.319 164.082 123.533 163.407 123.857C162.736 124.173 162.083 124.387 161.681 124.623C161.236 124.812 160.987 124.949 160.987 124.949Z" fill="#334FAA"/>
<path d="M157.765 114.175C157.765 114.175 157.686 113.903 157.575 113.412C157.522 112.931 157.354 112.21 157.42 111.369C157.49 110.534 157.54 109.521 157.845 108.496C158.132 107.462 158.579 106.43 159.202 105.392C159.871 104.402 160.763 103.405 161.924 102.864C162.471 102.582 163.138 102.411 163.716 102.402C164.302 102.386 164.835 102.482 165.304 102.613C166.265 102.878 166.83 103.576 167.102 104.006C167.226 104.249 167.289 104.444 167.317 104.58C167.345 104.711 167.36 104.781 167.36 104.781C167.36 104.781 167.303 104.739 167.195 104.662C167.093 104.586 166.925 104.491 166.714 104.414C166.326 104.201 165.701 104.169 165.071 104.217C164.751 104.234 164.41 104.33 164.097 104.477C163.773 104.626 163.53 104.813 163.223 105.043C162.656 105.516 162.1 106.154 161.626 106.949C161.106 107.705 160.656 108.612 160.201 109.425C159.775 110.256 159.292 111.028 158.99 111.744C158.687 112.455 158.305 113.046 158.127 113.486C157.888 113.918 157.765 114.175 157.765 114.175Z" fill="#334FAA"/>
<path d="M156.409 126.835C156.409 126.835 156.299 126.629 156.108 126.269C155.971 125.91 155.652 125.419 155.425 124.864C155.201 124.301 154.806 123.721 154.456 123.168C154.087 122.633 153.692 122.108 153.21 121.711C152.77 121.272 152.254 120.989 151.771 120.781C151.297 120.606 150.697 120.449 150.189 120.536C149.693 120.604 149.174 120.687 148.865 120.881C148.695 120.958 148.554 121.034 148.469 121.097C148.379 121.159 148.33 121.192 148.33 121.192C148.33 121.192 148.334 121.134 148.342 121.024C148.347 120.909 148.374 120.747 148.427 120.528C148.583 120.152 148.861 119.485 149.538 119.052C150.187 118.628 151.105 118.183 152.201 118.28C153.288 118.342 154.328 118.874 155.14 119.574C155.915 120.316 156.493 121.22 156.767 122.135C157.068 123.034 157.027 123.906 157.017 124.593C157.002 125.29 156.758 125.858 156.664 126.238C156.502 126.618 156.409 126.835 156.409 126.835Z" fill="#334FAA"/>
<path d="M155.129 105.225C155.129 105.225 155.078 105.169 154.984 105.066C154.886 104.965 154.764 104.811 154.569 104.645C154.258 104.27 153.672 103.867 153.069 103.416C152.456 102.956 151.63 102.626 150.806 102.343C150.384 102.214 149.952 102.112 149.516 102.034C149.077 101.972 148.635 101.946 148.2 101.97C147.764 101.98 147.326 102.041 146.894 102.137C146.465 102.249 146.043 102.384 145.632 102.545C144.835 102.895 144.034 103.282 143.458 103.787C142.894 104.285 142.337 104.728 142.057 105.127C141.875 105.307 141.763 105.469 141.674 105.577C141.587 105.688 141.541 105.747 141.541 105.747C141.541 105.747 141.539 105.673 141.534 105.533C141.534 105.394 141.513 105.18 141.537 104.913C141.614 104.401 141.708 103.585 142.197 102.769C142.681 101.973 143.354 101.015 144.39 100.331C144.897 99.9766 145.48 99.6925 146.104 99.473C146.733 99.2679 147.404 99.1405 148.089 99.0909C148.776 99.0885 149.454 99.165 150.097 99.3217C150.736 99.494 151.339 99.7326 151.871 100.046C152.954 100.654 153.7 101.551 154.245 102.308C154.792 103.086 154.952 103.889 155.067 104.395C155.112 104.658 155.109 104.873 155.12 105.011C155.126 105.151 155.129 105.225 155.129 105.225Z" fill="#334FAA"/>
<path d="M149.064 97.1129C149.064 97.1129 148.995 97.0818 148.868 97.0232C148.739 96.9688 148.565 96.8755 148.321 96.7996C147.888 96.5759 147.19 96.4359 146.459 96.2577C145.715 96.0759 144.826 96.0962 143.957 96.1596C143.518 96.2063 143.08 96.2822 142.649 96.3815C142.22 96.4963 141.804 96.6464 141.414 96.839C141.016 97.019 140.637 97.2469 140.278 97.5053C139.928 97.7768 139.592 98.0669 139.277 98.3755C138.682 99.0101 138.098 99.6805 137.766 100.371C137.442 101.05 137.104 101.677 137.004 102.154C136.906 102.391 136.868 102.584 136.828 102.719C136.792 102.855 136.772 102.927 136.772 102.927C136.772 102.927 136.741 102.86 136.682 102.734C136.627 102.606 136.524 102.417 136.441 102.163C136.311 101.661 136.078 100.874 136.207 99.9311C136.339 99.0089 136.582 97.8641 137.267 96.8283C137.594 96.3031 138.019 95.8133 138.506 95.3666C139.005 94.9306 139.572 94.5502 140.182 94.2356C140.813 93.9635 141.467 93.7679 142.12 93.6596C142.775 93.5675 143.423 93.5502 144.036 93.6297C145.269 93.7637 146.308 94.2966 147.106 94.7786C147.915 95.2792 148.377 95.9551 148.681 96.3749C148.826 96.5992 148.908 96.7978 148.971 96.9216C149.031 97.046 149.064 97.1129 149.064 97.1129Z" fill="#334FAA"/>
<path d="M145.869 144.082C145.869 144.082 145.774 143.86 145.608 143.473C145.508 143.085 145.263 142.509 145.216 141.818C145.172 141.132 145.068 140.3 145.181 139.434C145.269 138.557 145.503 137.674 145.829 136.761C146.21 135.875 146.722 134.95 147.474 134.265C147.829 133.916 148.265 133.631 148.694 133.439C149.124 133.245 149.549 133.131 149.937 133.051C150.73 132.888 151.407 133.146 151.795 133.302C151.993 133.411 152.132 133.511 152.221 133.586C152.307 133.658 152.353 133.697 152.353 133.697C152.353 133.697 152.104 133.717 151.742 133.863C151.379 133.942 150.942 134.262 150.513 134.566C150.054 134.879 149.729 135.397 149.396 135.92C149.083 136.472 148.759 137.096 148.505 137.825C148.194 138.528 147.936 139.316 147.643 140.022C147.376 140.74 147.019 141.409 146.818 142.016C146.611 142.618 146.296 143.126 146.163 143.497C145.976 143.869 145.869 144.082 145.869 144.082Z" fill="#334FAA"/>
<path d="M145.717 155.051C145.717 155.051 145.61 154.788 145.398 154.354C145.242 153.914 144.889 153.321 144.589 152.647C144.293 151.964 143.792 151.264 143.297 150.589C142.784 149.931 142.205 149.287 141.517 148.803C140.866 148.273 140.119 147.927 139.401 147.696C138.684 147.497 137.892 147.358 137.218 147.469C136.554 147.567 135.912 147.676 135.509 147.883C135.294 147.966 135.117 148.044 135.007 148.108C134.891 148.17 134.829 148.204 134.829 148.204C134.829 148.204 134.852 148.138 134.895 148.013C134.937 147.883 135.014 147.703 135.129 147.468C135.403 147.065 135.841 146.378 136.664 145.946C137.462 145.519 138.54 145.09 139.774 145.185C141.004 145.243 142.233 145.767 143.254 146.504C144.239 147.289 145.037 148.282 145.495 149.332C145.98 150.365 146.081 151.42 146.157 152.264C146.231 153.119 146.027 153.834 145.952 154.307C145.813 154.788 145.717 155.051 145.717 155.051Z" fill="#334FAA"/>
<path d="M144.003 134.654C144.003 134.654 143.783 134.443 143.384 134.118C143.038 133.759 142.419 133.363 141.802 132.862C141.179 132.355 140.355 131.915 139.517 131.474C138.668 131.046 137.763 130.627 136.811 130.373C135.874 130.048 134.915 129.9 134.067 129.856C133.218 129.845 132.426 129.903 131.802 130.255C131.195 130.588 130.634 130.974 130.373 131.374C130.057 131.748 129.946 132.042 129.946 132.042C129.946 132.042 129.929 131.968 129.898 131.83C129.87 131.688 129.842 131.476 129.841 131.19C129.901 130.659 130.06 129.765 130.768 129.007C131.444 128.259 132.559 127.519 133.831 127.33C135.102 127.091 136.428 127.27 137.652 127.617C138.871 128.016 140.019 128.611 140.93 129.371C141.867 130.102 142.501 131.031 143.009 131.788C143.518 132.561 143.707 133.336 143.863 133.831C143.969 134.358 144.003 134.654 144.003 134.654Z" fill="#334FAA"/>
<path d="M139.944 127.661C139.944 127.661 139.724 127.449 139.325 127.125C138.978 126.766 138.36 126.369 137.742 125.869C137.119 125.363 136.295 124.922 135.458 124.481C134.608 124.053 133.704 123.634 132.751 123.379C131.814 123.055 130.855 122.906 130.007 122.863C129.158 122.852 128.366 122.909 127.742 123.262C127.135 123.595 126.574 123.982 126.313 124.381C125.997 124.755 125.886 125.049 125.886 125.049C125.886 125.049 125.869 124.975 125.839 124.836C125.811 124.695 125.782 124.483 125.781 124.197C125.841 123.666 126 122.772 126.708 122.014C127.384 121.266 128.499 120.525 129.771 120.336C131.042 120.098 132.368 120.277 133.592 120.624C134.811 121.023 135.959 121.618 136.87 122.379C137.807 123.109 138.441 124.038 138.949 124.796C139.458 125.568 139.647 126.344 139.803 126.838C139.909 127.365 139.944 127.661 139.944 127.661Z" fill="#334FAA"/>
<path d="M181.22 105.133C181.22 105.133 181.322 104.859 181.501 104.378C181.723 103.937 181.952 103.235 182.332 102.524C182.716 101.813 183.037 100.931 183.366 100.074C183.671 99.2128 183.942 98.3132 184.009 97.4197C184.138 96.5369 184.038 95.6799 183.837 94.9413C183.612 94.2296 183.241 93.4808 182.726 93.0089C182.232 92.5334 181.713 92.1195 181.269 91.9676C181.054 91.8695 180.867 91.7972 180.737 91.7679C180.604 91.7326 180.534 91.7134 180.534 91.7134C180.534 91.7134 180.6 91.6817 180.724 91.6219C180.85 91.5555 181.042 91.485 181.308 91.406C181.816 91.3283 182.688 91.214 183.588 91.6369C184.465 92.037 185.508 92.7122 186.144 93.8845C186.8 95.0268 186.989 96.4275 186.873 97.7289C186.7 99.0262 186.257 100.244 185.625 101.219C185.022 102.204 184.23 102.906 183.615 103.505C182.991 104.104 182.326 104.448 181.925 104.74C181.476 104.99 181.22 105.133 181.22 105.133Z" fill="#334FAA"/>
<path d="M168.565 130.985C168.565 130.985 168.781 130.827 169.186 130.569C169.601 130.375 170.205 129.993 171.01 129.836C171.804 129.682 172.802 129.491 173.884 129.665C174.975 129.809 176.103 130.285 177.086 130.994C178.035 131.749 178.84 132.758 179.202 133.893C179.602 135.022 179.457 136.136 179.247 136.981C179.039 137.853 178.491 138.42 178.174 138.764C177.978 138.923 177.827 139.035 177.714 139.1C177.607 139.167 177.549 139.203 177.549 139.203C177.549 139.203 177.565 139.138 177.596 139.014C177.629 138.896 177.657 138.714 177.68 138.495C177.775 138.074 177.711 137.455 177.634 136.828C177.57 136.186 177.236 135.502 176.878 134.911C176.488 134.325 175.989 133.74 175.344 133.288C174.732 132.787 174.001 132.426 173.272 132.122C172.533 131.841 171.765 131.552 171.063 131.449C170.369 131.34 169.733 131.154 169.288 131.116C168.834 131.022 168.565 130.985 168.565 130.985Z" fill="#334FAA"/>
<path d="M175.831 129.967C175.831 129.967 176.046 129.808 176.452 129.55C176.867 129.357 177.47 128.974 178.276 128.817C179.07 128.663 180.067 128.472 181.149 128.647C182.24 128.791 183.368 129.267 184.352 129.976C185.301 130.73 186.106 131.74 186.468 132.874C186.868 134.004 186.723 135.117 186.513 135.963C186.305 136.835 185.756 137.401 185.44 137.746C185.244 137.905 185.092 138.016 184.98 138.082C184.872 138.149 184.815 138.184 184.815 138.184C184.815 138.184 184.831 138.119 184.862 137.996C184.894 137.877 184.923 137.695 184.946 137.476C185.04 137.055 184.976 136.437 184.9 135.809C184.835 135.167 184.502 134.484 184.144 133.892C183.753 133.307 183.255 132.721 182.609 132.269C181.997 131.769 181.267 131.407 180.538 131.104C179.798 130.822 179.031 130.533 178.329 130.431C177.634 130.322 176.999 130.135 176.554 130.098C176.1 130.004 175.831 129.967 175.831 129.967Z" fill="#334FAA"/>
<path d="M156.467 201.032H57.5305C53.1794 201.032 49.6514 197.505 49.6514 193.154V45.5227C49.6514 41.171 53.1788 37.6436 57.5305 37.6436H156.468C160.819 37.6436 164.347 41.171 164.347 45.5227V193.153C164.346 197.505 160.819 201.032 156.467 201.032Z" fill="#9CB2F8"/>
<path d="M156.421 46.2979H58V192.379H156.421V46.2979Z" fill="white"/>
<path d="M80.5566 62.3145V63H78.2861V62.3145H80.5566ZM78.5732 58.7344V63H77.6943V58.7344H78.5732ZM80.2607 60.4717V61.1396H78.2861V60.4717H80.2607ZM80.5537 58.7344V59.4229H78.2861V58.7344H80.5537ZM81.8604 60.4863V63H81.0137V59.8301H81.8076L81.8604 60.4863ZM81.7432 61.3037H81.5088C81.5088 61.083 81.5352 60.8799 81.5879 60.6943C81.6426 60.5068 81.7217 60.3447 81.8252 60.208C81.9307 60.0693 82.0605 59.9619 82.2148 59.8857C82.3691 59.8096 82.5479 59.7715 82.751 59.7715C82.8916 59.7715 83.0205 59.793 83.1377 59.8359C83.2549 59.877 83.3555 59.9424 83.4395 60.0322C83.5254 60.1201 83.5918 60.2354 83.6387 60.3779C83.6855 60.5186 83.709 60.6875 83.709 60.8848V63H82.8652V60.9785C82.8652 60.834 82.8457 60.7227 82.8066 60.6445C82.7676 60.5664 82.7119 60.5117 82.6396 60.4805C82.5693 60.4492 82.4844 60.4336 82.3848 60.4336C82.2754 60.4336 82.1797 60.4561 82.0977 60.501C82.0176 60.5459 81.9512 60.6084 81.8984 60.6885C81.8457 60.7666 81.8066 60.8584 81.7812 60.9639C81.7559 61.0693 81.7432 61.1826 81.7432 61.3037ZM83.6299 61.207L83.3281 61.2451C83.3281 61.0381 83.3535 60.8457 83.4043 60.668C83.457 60.4902 83.5342 60.334 83.6357 60.1992C83.7393 60.0645 83.8672 59.96 84.0195 59.8857C84.1719 59.8096 84.3477 59.7715 84.5469 59.7715C84.6992 59.7715 84.8379 59.7939 84.9629 59.8389C85.0879 59.8818 85.1943 59.9512 85.2822 60.0469C85.3721 60.1406 85.4404 60.2637 85.4873 60.416C85.5361 60.5684 85.5605 60.7549 85.5605 60.9756V63H84.7139V60.9756C84.7139 60.8291 84.6943 60.7178 84.6553 60.6416C84.6182 60.5635 84.5635 60.5098 84.4912 60.4805C84.4209 60.4492 84.3369 60.4336 84.2393 60.4336C84.1377 60.4336 84.0488 60.4541 83.9727 60.4951C83.8965 60.5342 83.833 60.5889 83.7822 60.6592C83.7314 60.7295 83.6934 60.8115 83.668 60.9053C83.6426 60.9971 83.6299 61.0977 83.6299 61.207ZM87.0576 60.4395V64.2188H86.2139V59.8301H86.9961L87.0576 60.4395ZM89.0645 61.3799V61.4414C89.0645 61.6719 89.0371 61.8857 88.9824 62.083C88.9297 62.2803 88.8516 62.4521 88.748 62.5986C88.6445 62.7432 88.5156 62.8564 88.3613 62.9385C88.209 63.0186 88.0332 63.0586 87.834 63.0586C87.6406 63.0586 87.4727 63.0195 87.3301 62.9414C87.1875 62.8633 87.0674 62.7539 86.9697 62.6133C86.874 62.4707 86.7969 62.3057 86.7383 62.1182C86.6797 61.9307 86.6348 61.7295 86.6035 61.5146V61.3535C86.6348 61.123 86.6797 60.9121 86.7383 60.7207C86.7969 60.5273 86.874 60.3604 86.9697 60.2197C87.0674 60.0771 87.1865 59.9668 87.3271 59.8887C87.4697 59.8105 87.6367 59.7715 87.8281 59.7715C88.0293 59.7715 88.2061 59.8096 88.3584 59.8857C88.5127 59.9619 88.6416 60.0713 88.7451 60.2139C88.8506 60.3564 88.9297 60.5264 88.9824 60.7236C89.0371 60.9209 89.0645 61.1396 89.0645 61.3799ZM88.2178 61.4414V61.3799C88.2178 61.2451 88.2061 61.1211 88.1826 61.0078C88.1611 60.8926 88.126 60.792 88.0771 60.7061C88.0303 60.6201 87.9678 60.5537 87.8896 60.5068C87.8135 60.458 87.7207 60.4336 87.6113 60.4336C87.4961 60.4336 87.3975 60.4521 87.3154 60.4893C87.2354 60.5264 87.1699 60.5801 87.1191 60.6504C87.0684 60.7207 87.0303 60.8047 87.0049 60.9023C86.9795 61 86.9639 61.1104 86.958 61.2334V61.6406C86.9678 61.7852 86.9951 61.915 87.04 62.0303C87.085 62.1436 87.1543 62.2334 87.248 62.2998C87.3418 62.3662 87.4648 62.3994 87.6172 62.3994C87.7285 62.3994 87.8223 62.375 87.8984 62.3262C87.9746 62.2754 88.0361 62.2061 88.083 62.1182C88.1318 62.0303 88.166 61.9287 88.1855 61.8135C88.207 61.6982 88.2178 61.5742 88.2178 61.4414ZM91.1416 59.8301V60.4277H89.2959V59.8301H91.1416ZM89.7529 59.0479H90.5967V62.0449C90.5967 62.1367 90.6084 62.207 90.6318 62.2559C90.6572 62.3047 90.6943 62.3389 90.7432 62.3584C90.792 62.376 90.8535 62.3848 90.9277 62.3848C90.9805 62.3848 91.0273 62.3828 91.0684 62.3789C91.1113 62.373 91.1475 62.3672 91.1768 62.3613L91.1797 62.9824C91.1074 63.0059 91.0293 63.0244 90.9453 63.0381C90.8613 63.0518 90.7686 63.0586 90.667 63.0586C90.4814 63.0586 90.3193 63.0283 90.1807 62.9678C90.0439 62.9053 89.9385 62.8057 89.8643 62.6689C89.79 62.5322 89.7529 62.3525 89.7529 62.1299V59.0479ZM92.5625 62.6426L93.4033 59.8301H94.3086L93.0342 63.4775C93.0068 63.5576 92.9697 63.6436 92.9229 63.7354C92.8779 63.8271 92.8164 63.9141 92.7383 63.9961C92.6621 64.0801 92.5654 64.1484 92.4482 64.2012C92.333 64.2539 92.1914 64.2803 92.0234 64.2803C91.9434 64.2803 91.8779 64.2754 91.8271 64.2656C91.7764 64.2559 91.7158 64.2422 91.6455 64.2246V63.6064C91.667 63.6064 91.6895 63.6064 91.7129 63.6064C91.7363 63.6084 91.7588 63.6094 91.7803 63.6094C91.8916 63.6094 91.9824 63.5967 92.0527 63.5713C92.123 63.5459 92.1797 63.5068 92.2227 63.4541C92.2656 63.4033 92.2998 63.3369 92.3252 63.2549L92.5625 62.6426ZM92.2109 59.8301L92.8994 62.127L93.0195 63.0205L92.4453 63.082L91.3057 59.8301H92.2109ZM98.665 61.585H99.541C99.5234 61.8721 99.4443 62.127 99.3037 62.3496C99.165 62.5723 98.9707 62.7461 98.7207 62.8711C98.4727 62.9961 98.1738 63.0586 97.8242 63.0586C97.5508 63.0586 97.3057 63.0117 97.0889 62.918C96.8721 62.8223 96.6865 62.6855 96.5322 62.5078C96.3799 62.3301 96.2637 62.1152 96.1836 61.8633C96.1035 61.6113 96.0635 61.3291 96.0635 61.0166V60.7207C96.0635 60.4082 96.1045 60.126 96.1865 59.874C96.2705 59.6201 96.3896 59.4043 96.5439 59.2266C96.7002 59.0488 96.8867 58.9121 97.1035 58.8164C97.3203 58.7207 97.5625 58.6729 97.8301 58.6729C98.1855 58.6729 98.4854 58.7373 98.7295 58.8662C98.9756 58.9951 99.166 59.1729 99.3008 59.3994C99.4375 59.626 99.5195 59.8838 99.5469 60.1729H98.668C98.6582 60.001 98.624 59.8555 98.5654 59.7363C98.5068 59.6152 98.418 59.5244 98.2988 59.4639C98.1816 59.4014 98.0254 59.3701 97.8301 59.3701C97.6836 59.3701 97.5557 59.3975 97.4463 59.4521C97.3369 59.5068 97.2451 59.5898 97.1709 59.7012C97.0967 59.8125 97.041 59.9531 97.0039 60.123C96.9688 60.291 96.9512 60.4883 96.9512 60.7148V61.0166C96.9512 61.2373 96.9678 61.4316 97.001 61.5996C97.0342 61.7656 97.085 61.9062 97.1533 62.0215C97.2236 62.1348 97.3135 62.2207 97.4229 62.2793C97.5342 62.3359 97.668 62.3643 97.8242 62.3643C98.0078 62.3643 98.1592 62.335 98.2783 62.2764C98.3975 62.2178 98.4883 62.1309 98.5508 62.0156C98.6152 61.9004 98.6533 61.7568 98.665 61.585ZM101.94 62.2412V59.8301H102.784V63H101.99L101.94 62.2412ZM102.034 61.5908L102.283 61.585C102.283 61.7959 102.259 61.9922 102.21 62.1738C102.161 62.3535 102.088 62.5098 101.99 62.6426C101.893 62.7734 101.77 62.876 101.621 62.9502C101.473 63.0225 101.298 63.0586 101.097 63.0586C100.942 63.0586 100.8 63.0371 100.669 62.9941C100.54 62.9492 100.429 62.8799 100.335 62.7861C100.243 62.6904 100.171 62.5684 100.118 62.4199C100.067 62.2695 100.042 62.0889 100.042 61.8779V59.8301H100.886V61.8838C100.886 61.9775 100.896 62.0566 100.918 62.1211C100.941 62.1855 100.974 62.2383 101.015 62.2793C101.056 62.3203 101.104 62.3496 101.158 62.3672C101.215 62.3848 101.277 62.3936 101.346 62.3936C101.52 62.3936 101.656 62.3584 101.756 62.2881C101.857 62.2178 101.929 62.1221 101.97 62.001C102.013 61.8779 102.034 61.7412 102.034 61.5908ZM105.143 62.124C105.143 62.0635 105.125 62.0088 105.09 61.96C105.055 61.9111 104.989 61.8662 104.894 61.8252C104.8 61.7822 104.664 61.7432 104.486 61.708C104.326 61.6729 104.177 61.6289 104.038 61.5762C103.901 61.5215 103.782 61.4561 103.681 61.3799C103.581 61.3037 103.503 61.2139 103.446 61.1104C103.39 61.0049 103.361 60.8848 103.361 60.75C103.361 60.6172 103.39 60.4922 103.446 60.375C103.505 60.2578 103.588 60.1543 103.695 60.0645C103.805 59.9727 103.938 59.9014 104.094 59.8506C104.252 59.7979 104.43 59.7715 104.627 59.7715C104.902 59.7715 105.139 59.8154 105.336 59.9033C105.535 59.9912 105.688 60.1123 105.793 60.2666C105.9 60.4189 105.954 60.5928 105.954 60.7881H105.11C105.11 60.7061 105.093 60.6328 105.058 60.5684C105.024 60.502 104.972 60.4502 104.899 60.4131C104.829 60.374 104.737 60.3545 104.624 60.3545C104.53 60.3545 104.449 60.3711 104.381 60.4043C104.312 60.4355 104.26 60.4785 104.223 60.5332C104.188 60.5859 104.17 60.6445 104.17 60.709C104.17 60.7578 104.18 60.8018 104.199 60.8408C104.221 60.8779 104.255 60.9121 104.302 60.9434C104.349 60.9746 104.409 61.0039 104.483 61.0312C104.56 61.0566 104.653 61.0801 104.765 61.1016C104.993 61.1484 105.197 61.21 105.377 61.2861C105.557 61.3604 105.699 61.4619 105.805 61.5908C105.91 61.7178 105.963 61.8848 105.963 62.0918C105.963 62.2324 105.932 62.3613 105.869 62.4785C105.807 62.5957 105.717 62.6982 105.6 62.7861C105.482 62.8721 105.342 62.9395 105.178 62.9883C105.016 63.0352 104.833 63.0586 104.63 63.0586C104.335 63.0586 104.085 63.0059 103.88 62.9004C103.677 62.7949 103.522 62.6611 103.417 62.499C103.313 62.335 103.262 62.167 103.262 61.9951H104.062C104.065 62.1104 104.095 62.2031 104.149 62.2734C104.206 62.3438 104.277 62.3945 104.363 62.4258C104.451 62.457 104.546 62.4727 104.647 62.4727C104.757 62.4727 104.848 62.458 104.92 62.4287C104.992 62.3975 105.047 62.3564 105.084 62.3057C105.123 62.2529 105.143 62.1924 105.143 62.124ZM108.063 59.8301V60.4277H106.218V59.8301H108.063ZM106.675 59.0479H107.519V62.0449C107.519 62.1367 107.53 62.207 107.554 62.2559C107.579 62.3047 107.616 62.3389 107.665 62.3584C107.714 62.376 107.775 62.3848 107.85 62.3848C107.902 62.3848 107.949 62.3828 107.99 62.3789C108.033 62.373 108.069 62.3672 108.099 62.3613L108.102 62.9824C108.029 63.0059 107.951 63.0244 107.867 63.0381C107.783 63.0518 107.69 63.0586 107.589 63.0586C107.403 63.0586 107.241 63.0283 107.103 62.9678C106.966 62.9053 106.86 62.8057 106.786 62.6689C106.712 62.5322 106.675 62.3525 106.675 62.1299V59.0479ZM108.333 61.4473V61.3857C108.333 61.1533 108.366 60.9395 108.433 60.7441C108.499 60.5469 108.596 60.376 108.723 60.2314C108.85 60.0869 109.006 59.9746 109.191 59.8945C109.377 59.8125 109.59 59.7715 109.83 59.7715C110.07 59.7715 110.284 59.8125 110.472 59.8945C110.659 59.9746 110.816 60.0869 110.943 60.2314C111.072 60.376 111.17 60.5469 111.236 60.7441C111.303 60.9395 111.336 61.1533 111.336 61.3857V61.4473C111.336 61.6777 111.303 61.8916 111.236 62.0889C111.17 62.2842 111.072 62.4551 110.943 62.6016C110.816 62.7461 110.66 62.8584 110.475 62.9385C110.289 63.0186 110.076 63.0586 109.836 63.0586C109.596 63.0586 109.382 63.0186 109.194 62.9385C109.009 62.8584 108.852 62.7461 108.723 62.6016C108.596 62.4551 108.499 62.2842 108.433 62.0889C108.366 61.8916 108.333 61.6777 108.333 61.4473ZM109.177 61.3857V61.4473C109.177 61.5801 109.188 61.7041 109.212 61.8193C109.235 61.9346 109.272 62.0361 109.323 62.124C109.376 62.21 109.444 62.2773 109.528 62.3262C109.612 62.375 109.715 62.3994 109.836 62.3994C109.953 62.3994 110.054 62.375 110.138 62.3262C110.222 62.2773 110.289 62.21 110.34 62.124C110.391 62.0361 110.428 61.9346 110.451 61.8193C110.477 61.7041 110.489 61.5801 110.489 61.4473V61.3857C110.489 61.2568 110.477 61.1357 110.451 61.0225C110.428 60.9072 110.39 60.8057 110.337 60.7178C110.286 60.6279 110.219 60.5576 110.135 60.5068C110.051 60.4561 109.949 60.4307 109.83 60.4307C109.711 60.4307 109.609 60.4561 109.525 60.5068C109.443 60.5576 109.376 60.6279 109.323 60.7178C109.272 60.8057 109.235 60.9072 109.212 61.0225C109.188 61.1357 109.177 61.2568 109.177 61.3857ZM112.698 60.4863V63H111.852V59.8301H112.646L112.698 60.4863ZM112.581 61.3037H112.347C112.347 61.083 112.373 60.8799 112.426 60.6943C112.48 60.5068 112.56 60.3447 112.663 60.208C112.769 60.0693 112.898 59.9619 113.053 59.8857C113.207 59.8096 113.386 59.7715 113.589 59.7715C113.729 59.7715 113.858 59.793 113.976 59.8359C114.093 59.877 114.193 59.9424 114.277 60.0322C114.363 60.1201 114.43 60.2354 114.477 60.3779C114.523 60.5186 114.547 60.6875 114.547 60.8848V63H113.703V60.9785C113.703 60.834 113.684 60.7227 113.645 60.6445C113.605 60.5664 113.55 60.5117 113.478 60.4805C113.407 60.4492 113.322 60.4336 113.223 60.4336C113.113 60.4336 113.018 60.4561 112.936 60.501C112.855 60.5459 112.789 60.6084 112.736 60.6885C112.684 60.7666 112.645 60.8584 112.619 60.9639C112.594 61.0693 112.581 61.1826 112.581 61.3037ZM114.468 61.207L114.166 61.2451C114.166 61.0381 114.191 60.8457 114.242 60.668C114.295 60.4902 114.372 60.334 114.474 60.1992C114.577 60.0645 114.705 59.96 114.857 59.8857C115.01 59.8096 115.186 59.7715 115.385 59.7715C115.537 59.7715 115.676 59.7939 115.801 59.8389C115.926 59.8818 116.032 59.9512 116.12 60.0469C116.21 60.1406 116.278 60.2637 116.325 60.416C116.374 60.5684 116.398 60.7549 116.398 60.9756V63H115.552V60.9756C115.552 60.8291 115.532 60.7178 115.493 60.6416C115.456 60.5635 115.401 60.5098 115.329 60.4805C115.259 60.4492 115.175 60.4336 115.077 60.4336C114.976 60.4336 114.887 60.4541 114.811 60.4951C114.734 60.5342 114.671 60.5889 114.62 60.6592C114.569 60.7295 114.531 60.8115 114.506 60.9053C114.48 60.9971 114.468 61.0977 114.468 61.207ZM118.511 63.0586C118.265 63.0586 118.044 63.0195 117.849 62.9414C117.653 62.8613 117.487 62.751 117.351 62.6104C117.216 62.4697 117.112 62.3066 117.04 62.1211C116.968 61.9336 116.932 61.7344 116.932 61.5234V61.4062C116.932 61.166 116.966 60.9463 117.034 60.7471C117.103 60.5479 117.2 60.375 117.327 60.2285C117.456 60.082 117.612 59.9697 117.796 59.8916C117.979 59.8115 118.187 59.7715 118.417 59.7715C118.642 59.7715 118.841 59.8086 119.015 59.8828C119.188 59.957 119.334 60.0625 119.451 60.1992C119.57 60.3359 119.66 60.5 119.721 60.6914C119.781 60.8809 119.812 61.0918 119.812 61.3242V61.6758H117.292V61.1133H118.982V61.0488C118.982 60.9316 118.961 60.8271 118.918 60.7354C118.877 60.6416 118.814 60.5674 118.73 60.5127C118.646 60.458 118.539 60.4307 118.408 60.4307C118.297 60.4307 118.201 60.4551 118.121 60.5039C118.041 60.5527 117.976 60.6211 117.925 60.709C117.876 60.7969 117.839 60.9004 117.813 61.0195C117.79 61.1367 117.778 61.2656 117.778 61.4062V61.5234C117.778 61.6504 117.796 61.7676 117.831 61.875C117.868 61.9824 117.92 62.0752 117.986 62.1533C118.055 62.2314 118.137 62.292 118.232 62.335C118.33 62.3779 118.44 62.3994 118.563 62.3994C118.716 62.3994 118.857 62.3701 118.988 62.3115C119.121 62.251 119.235 62.1602 119.331 62.0391L119.741 62.4844C119.675 62.5801 119.584 62.6719 119.469 62.7598C119.355 62.8477 119.219 62.9199 119.059 62.9766C118.898 63.0312 118.716 63.0586 118.511 63.0586ZM121.136 60.5215V63H120.292V59.8301H121.086L121.136 60.5215ZM122.091 59.8096L122.076 60.5918C122.035 60.5859 121.985 60.5811 121.927 60.5771C121.87 60.5713 121.818 60.5684 121.771 60.5684C121.652 60.5684 121.549 60.584 121.461 60.6152C121.375 60.6445 121.303 60.6885 121.244 60.7471C121.188 60.8057 121.145 60.877 121.115 60.9609C121.088 61.0449 121.072 61.1406 121.068 61.248L120.898 61.1953C120.898 60.9902 120.919 60.8018 120.96 60.6299C121.001 60.4561 121.061 60.3047 121.139 60.1758C121.219 60.0469 121.316 59.9473 121.432 59.877C121.547 59.8066 121.679 59.7715 121.827 59.7715C121.874 59.7715 121.922 59.7754 121.971 59.7832C122.02 59.7891 122.06 59.7979 122.091 59.8096ZM124.203 62.124C124.203 62.0635 124.186 62.0088 124.15 61.96C124.115 61.9111 124.05 61.8662 123.954 61.8252C123.86 61.7822 123.725 61.7432 123.547 61.708C123.387 61.6729 123.237 61.6289 123.099 61.5762C122.962 61.5215 122.843 61.4561 122.741 61.3799C122.642 61.3037 122.563 61.2139 122.507 61.1104C122.45 61.0049 122.422 60.8848 122.422 60.75C122.422 60.6172 122.45 60.4922 122.507 60.375C122.565 60.2578 122.648 60.1543 122.756 60.0645C122.865 59.9727 122.998 59.9014 123.154 59.8506C123.312 59.7979 123.49 59.7715 123.688 59.7715C123.963 59.7715 124.199 59.8154 124.396 59.9033C124.596 59.9912 124.748 60.1123 124.854 60.2666C124.961 60.4189 125.015 60.5928 125.015 60.7881H124.171C124.171 60.7061 124.153 60.6328 124.118 60.5684C124.085 60.502 124.032 60.4502 123.96 60.4131C123.89 60.374 123.798 60.3545 123.685 60.3545C123.591 60.3545 123.51 60.3711 123.441 60.4043C123.373 60.4355 123.32 60.4785 123.283 60.5332C123.248 60.5859 123.23 60.6445 123.23 60.709C123.23 60.7578 123.24 60.8018 123.26 60.8408C123.281 60.8779 123.315 60.9121 123.362 60.9434C123.409 60.9746 123.47 61.0039 123.544 61.0312C123.62 61.0566 123.714 61.0801 123.825 61.1016C124.054 61.1484 124.258 61.21 124.438 61.2861C124.617 61.3604 124.76 61.4619 124.865 61.5908C124.971 61.7178 125.023 61.8848 125.023 62.0918C125.023 62.2324 124.992 62.3613 124.93 62.4785C124.867 62.5957 124.777 62.6982 124.66 62.7861C124.543 62.8721 124.402 62.9395 124.238 62.9883C124.076 63.0352 123.894 63.0586 123.69 63.0586C123.396 63.0586 123.146 63.0059 122.94 62.9004C122.737 62.7949 122.583 62.6611 122.478 62.499C122.374 62.335 122.322 62.167 122.322 61.9951H123.122C123.126 62.1104 123.155 62.2031 123.21 62.2734C123.267 62.3438 123.338 62.3945 123.424 62.4258C123.512 62.457 123.606 62.4727 123.708 62.4727C123.817 62.4727 123.908 62.458 123.98 62.4287C124.053 62.3975 124.107 62.3564 124.145 62.3057C124.184 62.2529 124.203 62.1924 124.203 62.124ZM129.86 62.3145V63H127.713V62.3145H129.86ZM127.997 58.7344V63H127.118V58.7344H127.997ZM131.202 59.8301V63H130.355V59.8301H131.202ZM130.303 59.0039C130.303 58.8809 130.346 58.7793 130.432 58.6992C130.518 58.6191 130.633 58.5791 130.777 58.5791C130.92 58.5791 131.034 58.6191 131.12 58.6992C131.208 58.7793 131.252 58.8809 131.252 59.0039C131.252 59.127 131.208 59.2285 131.12 59.3086C131.034 59.3887 130.92 59.4287 130.777 59.4287C130.633 59.4287 130.518 59.3887 130.432 59.3086C130.346 59.2285 130.303 59.127 130.303 59.0039ZM133.613 62.124C133.613 62.0635 133.596 62.0088 133.561 61.96C133.525 61.9111 133.46 61.8662 133.364 61.8252C133.271 61.7822 133.135 61.7432 132.957 61.708C132.797 61.6729 132.647 61.6289 132.509 61.5762C132.372 61.5215 132.253 61.4561 132.151 61.3799C132.052 61.3037 131.974 61.2139 131.917 61.1104C131.86 61.0049 131.832 60.8848 131.832 60.75C131.832 60.6172 131.86 60.4922 131.917 60.375C131.976 60.2578 132.059 60.1543 132.166 60.0645C132.275 59.9727 132.408 59.9014 132.564 59.8506C132.723 59.7979 132.9 59.7715 133.098 59.7715C133.373 59.7715 133.609 59.8154 133.807 59.9033C134.006 59.9912 134.158 60.1123 134.264 60.2666C134.371 60.4189 134.425 60.5928 134.425 60.7881H133.581C133.581 60.7061 133.563 60.6328 133.528 60.5684C133.495 60.502 133.442 60.4502 133.37 60.4131C133.3 60.374 133.208 60.3545 133.095 60.3545C133.001 60.3545 132.92 60.3711 132.852 60.4043C132.783 60.4355 132.73 60.4785 132.693 60.5332C132.658 60.5859 132.641 60.6445 132.641 60.709C132.641 60.7578 132.65 60.8018 132.67 60.8408C132.691 60.8779 132.726 60.9121 132.772 60.9434C132.819 60.9746 132.88 61.0039 132.954 61.0312C133.03 61.0566 133.124 61.0801 133.235 61.1016C133.464 61.1484 133.668 61.21 133.848 61.2861C134.027 61.3604 134.17 61.4619 134.275 61.5908C134.381 61.7178 134.434 61.8848 134.434 62.0918C134.434 62.2324 134.402 62.3613 134.34 62.4785C134.277 62.5957 134.188 62.6982 134.07 62.7861C133.953 62.8721 133.812 62.9395 133.648 62.9883C133.486 63.0352 133.304 63.0586 133.101 63.0586C132.806 63.0586 132.556 63.0059 132.351 62.9004C132.147 62.7949 131.993 62.6611 131.888 62.499C131.784 62.335 131.732 62.167 131.732 61.9951H132.532C132.536 62.1104 132.565 62.2031 132.62 62.2734C132.677 62.3438 132.748 62.3945 132.834 62.4258C132.922 62.457 133.017 62.4727 133.118 62.4727C133.228 62.4727 133.318 62.458 133.391 62.4287C133.463 62.3975 133.518 62.3564 133.555 62.3057C133.594 62.2529 133.613 62.1924 133.613 62.124ZM136.534 59.8301V60.4277H134.688V59.8301H136.534ZM135.146 59.0479H135.989V62.0449C135.989 62.1367 136.001 62.207 136.024 62.2559C136.05 62.3047 136.087 62.3389 136.136 62.3584C136.185 62.376 136.246 62.3848 136.32 62.3848C136.373 62.3848 136.42 62.3828 136.461 62.3789C136.504 62.373 136.54 62.3672 136.569 62.3613L136.572 62.9824C136.5 63.0059 136.422 63.0244 136.338 63.0381C136.254 63.0518 136.161 63.0586 136.06 63.0586C135.874 63.0586 135.712 63.0283 135.573 62.9678C135.437 62.9053 135.331 62.8057 135.257 62.6689C135.183 62.5322 135.146 62.3525 135.146 62.1299V59.0479Z" fill="#002088"/>
<path d="M134.327 52.1396H79.6705C76.9265 52.1396 74.7017 49.9153 74.7017 47.1707C74.7017 40.2629 80.3015 34.6631 87.2093 34.6631H126.788C133.696 34.6631 139.296 40.2629 139.296 47.1707C139.296 49.9147 137.071 52.1396 134.327 52.1396Z" fill="url(#paint0_linear_474_14531)"/>
<path d="M112.479 27.0812C111.08 25.6817 109.142 24.8145 107.001 24.8145C102.718 24.8145 99.2437 28.2833 99.2437 32.5656V34.6648H114.752V32.5656C114.752 30.4244 113.885 28.4867 112.479 27.0812ZM107.001 34.0787C105.296 34.0787 103.921 32.7031 103.921 30.9986C103.921 29.3 105.296 27.9185 107.001 27.9185C108.699 27.9185 110.081 29.3 110.081 30.9986C110.081 32.7031 108.699 34.0787 107.001 34.0787Z" fill="#809CF8"/>
<path d="M252.179 197.652L251.141 200.521C250.895 201.21 249.917 201.21 249.661 200.521L248.623 197.652H252.179Z" fill="#263172"/>
<path d="M256.919 104.428V184.576H243.894V128.103V104.006V95.854V91.7213C243.894 90.3338 244.993 89.2028 246.371 89.1514V89.1926H254.431V89.1514C255.809 89.1926 256.919 90.3338 256.919 91.7213V94.4868C256.241 93.8804 255.346 93.5305 254.205 93.5102C251.029 93.4384 249.456 97.6842 250.998 99.8941C252.539 102.115 256.066 100.542 256.775 104.52C256.775 104.52 256.826 104.489 256.919 104.428Z" fill="#9CB2F8"/>
<path d="M256.919 94.4863C256.24 93.8799 255.346 93.53 254.205 93.5097C251.028 93.4379 249.455 97.6837 250.997 99.8936C252.539 102.114 256.065 100.541 256.775 104.52C256.775 104.52 256.826 104.489 256.919 104.427C257.381 104.118 258.789 102.895 258.738 99.832C258.697 97.4779 258.153 95.5659 256.919 94.4863Z" fill="#EED7BA"/>
<path d="M256.919 184.576L252.179 197.653H248.622L243.894 184.576H256.919Z" fill="#002395"/>
<path d="M254.43 84.3602V89.1509C254.399 89.1509 254.379 89.1509 254.348 89.1509H246.463C246.432 89.1509 246.401 89.1509 246.37 89.1509V84.3602C246.37 83.1372 247.059 82.078 248.056 81.5331C248.518 81.2861 249.043 81.1426 249.598 81.1426H251.202C252.991 81.1426 254.43 82.5816 254.43 84.3602Z" fill="#002395"/>
<path d="M248.005 81.1428L248.057 81.5334C247.06 82.0782 246.371 83.1368 246.371 84.3605V89.1511C244.993 89.2025 243.893 90.3335 243.893 91.7211V95.8538L242.989 96.3675L242.783 95.9973L235.073 82.4688C234.559 93.8592 236.779 111.51 236.779 111.51C228.133 115.273 197.2 112.281 197.2 112.281L197.806 78.418C191.638 81.8204 164.344 81.6045 164.344 81.6045L164.735 70.8104C164.735 70.8104 189.665 66.1843 198.834 61.5581C204.663 58.6078 208.868 57.2507 211.15 56.6443L211.14 56.6545C212.476 58.3817 213.391 59.5019 217.637 59.5946C221.872 59.6766 224.144 56.2537 224.144 56.2537C224.144 56.2537 236.821 55.5654 248.005 81.1428Z" fill="#FECA7A"/>
<path d="M243.894 95.8535V104.006L241.447 105.034L240.871 125.728H239.01V111.51V98.619L242.989 96.3679L243.894 95.8535Z" fill="#002395"/>
<path d="M242.105 128.103C242.105 128.226 242.105 128.36 242.094 128.493C241.961 130.354 239.011 130.035 239.011 130.035V125.728H240.871C241.344 125.728 242.105 126.499 242.105 128.103Z" fill="#002395"/>
<path d="M236.78 111.511L234.642 116.044V116.383C222.316 118.697 198.579 115.962 198.579 115.962L197.201 112.281C197.201 112.282 228.134 115.274 236.78 111.511Z" fill="#F7BA6B"/>
<path d="M234.641 116.383L235.669 192.806H235.093H226.736H225.903C221.616 168.472 217.854 125.131 217.854 125.131H215.623L200.835 192.137H200.208H191.469H190.637L198.578 115.961C198.578 115.961 222.315 118.695 234.641 116.383Z" fill="#002395"/>
<path d="M235.094 192.807V199.473C235.094 200.333 234.396 201.031 233.536 201.031H225.829C224.976 201.031 224.37 200.201 224.63 199.388L226.735 192.807H235.094Z" fill="#845E40"/>
<path d="M221.493 54.7529L224.145 56.2541C224.145 56.2541 221.873 59.6775 217.638 59.595C213.392 59.5023 212.477 58.3821 211.141 56.6548L211.151 56.6447C212.456 56.3055 213.135 56.2027 213.135 56.2027C213.135 56.2027 218.666 58.8653 221.534 55.4419C221.534 55.4419 221.514 55.1847 221.493 54.7529Z" fill="#F7BA6B"/>
<path d="M222.901 33.7611C224.361 38.3459 222.223 46.1383 221.708 48.5438C221.637 48.8626 221.585 49.2118 221.544 49.5922C219.92 48.091 220.146 46.2101 220.146 46.2101C221.893 44.2567 221.75 41.7897 220.485 41.2137C219.22 40.6384 218.624 43.8453 218.573 44.0408C218.531 44.2364 217.031 43.9996 216.969 43.9996C216.908 43.9996 217.011 42.7968 216.908 41.8405C216.805 40.874 215.725 40.7197 215.263 39.8256C214.79 38.9207 215.129 38.0678 214.461 37.0397C213.803 36.0116 211.377 36.5463 209.793 36.8035C209.053 36.9267 207.655 37.0607 206.37 36.8035C204.9 36.526 203.605 35.724 203.666 33.8017C203.8 30.2037 208.642 30.6768 208.642 30.6768C208.765 30.6768 213.175 31.4064 214.769 31.2318C216.353 31.0679 221.452 29.1762 222.901 33.7611Z" fill="#845E40"/>
<path d="M221.492 54.7526C221.513 55.1844 221.534 55.4416 221.534 55.4416C218.665 58.865 213.135 56.2023 213.135 56.2023V55.051V52.563C211.85 52.563 209.773 52.7891 208.2 51.0313C205.887 48.4716 206.288 37.0608 206.37 36.8036C207.655 37.0608 209.053 36.9268 209.793 36.8036C211.377 36.5465 213.802 36.0118 214.461 37.0399C215.129 38.068 214.79 38.9214 215.263 39.8257C215.725 40.7199 216.805 40.8742 216.908 41.8406C217.01 42.797 216.908 43.9997 216.969 43.9997C217.031 43.9997 218.532 44.236 218.573 44.041C218.624 43.846 219.22 40.6385 220.485 41.2139C221.749 41.7898 221.893 44.2569 220.146 46.2102C220.146 46.2102 219.92 48.0918 221.544 49.5924C221.349 51.3705 221.431 53.6324 221.492 54.7526Z" fill="#EED7BA"/>
<path d="M213.135 55.0518V56.2031C213.135 56.2031 212.457 56.3059 211.15 56.645L213.135 55.0518Z" fill="#F7BA6B"/>
<path d="M200.207 192.137L199.591 199.225C199.504 200.229 198.668 201.001 197.66 201.005C194.099 201.018 186.149 201.042 182.857 201.024C182.333 201.021 182.091 200.375 182.484 200.03C185.099 197.73 191.47 192.137 191.47 192.137H200.207Z" fill="#845E40"/>
<path d="M18.7278 203.864H269.713C270.495 203.864 271.129 203.23 271.129 202.448C271.129 201.665 270.495 201.031 269.713 201.031H18.7278C17.9455 201.031 17.3115 201.665 17.3115 202.448C17.3115 203.23 17.9455 203.864 18.7278 203.864Z" fill="#E6E9F4"/>
<defs>
<linearGradient id="paint0_linear_474_14531" x1="106.999" y1="52.1396" x2="106.999" y2="34.6631" gradientUnits="userSpaceOnUse">
<stop offset="0.07" stop-color="#6581E0"/>
<stop offset="0.98" stop-color="#9CB1F8"/>
<stop offset="1" stop-color="#6581E0"/>
</linearGradient>
</defs>
</svg>
