<svg width="202" height="246" viewBox="0 0 202 246" fill="none" xmlns="http://www.w3.org/2000/svg">
<path d="M167.445 230.717C206.964 206.339 209.252 138.351 172.555 78.8612C135.859 19.3709 74.0739 -9.09393 34.5551 15.2832C-4.96368 39.6603 -7.25161 107.648 29.4449 167.139C66.1414 226.629 127.926 255.094 167.445 230.717Z" fill="#E8EEFE"/>
<path d="M133.943 97.4878V114.374C118.211 111.994 113.563 81.7034 113.442 80.8832C113.438 80.8711 113.438 80.8672 113.438 80.8672L115.983 76.8467C119.871 89.9815 133.943 97.4878 133.943 97.4878Z" fill="#EBB08B"/>
<path d="M133.943 107.117V114.374C118.211 111.994 113.563 81.704 113.442 80.8838C113.667 81.5231 120.941 102.088 131.004 105.622C132.146 106.024 133.119 106.53 133.943 107.117Z" fill="#E3A47F"/>
<path d="M122.963 180.849H49.226C45.5218 180.849 41.9895 177.846 41.3363 174.142L15.3551 26.7949C14.7019 23.0906 17.1753 20.0879 20.8795 20.0879H94.6167C98.3208 20.0879 101.853 23.0908 102.506 26.7949L128.488 174.142C129.141 177.846 126.667 180.849 122.963 180.849Z" fill="#889BDB"/>
<path d="M127.13 180.849H53.3925C49.6883 180.849 46.156 177.846 45.5028 174.142L19.5216 26.7949C18.8684 23.0906 21.3418 20.0879 25.046 20.0879H98.7832C102.487 20.0879 106.02 23.0908 106.673 26.7949L132.654 174.142C133.307 177.846 130.834 180.849 127.13 180.849Z" fill="#9AB4ED"/>
<path d="M126.843 167.771H49.0667L24.0059 25.6436H101.782L126.843 167.771Z" fill="white"/>
<path d="M64.7559 22.9097C64.8362 23.3651 63.8521 23.7343 62.5576 23.7343C61.2633 23.7343 60.1488 23.3651 60.0685 22.9097C59.9883 22.4543 60.9725 22.085 62.2668 22.085C63.5613 22.0851 64.6758 22.4543 64.7559 22.9097Z" fill="#889BDB"/>
<path d="M86.1787 25.6436L115.54 43.7236H131.082L101.782 25.6436H86.1787Z" fill="#4653AB"/>
<path d="M70.6362 25.6436L99.9972 43.7236H115.539L86.178 25.6436H70.6362Z" fill="#86A6EB"/>
<path d="M55.0938 25.6436L84.4549 43.7236H99.9968L70.6356 25.6436H55.0938Z" fill="#4653AB"/>
<path d="M39.5513 25.6436L68.9124 43.7236H84.4542L55.093 25.6436H39.5513Z" fill="#86A6EB"/>
<path d="M24.0068 25.6436L53.368 43.7236H68.9098L39.5487 25.6436H24.0068Z" fill="#4653AB"/>
<path d="M115.54 43.7217C115.54 48.0129 119.02 51.4926 123.311 51.4926C127.602 51.4926 131.082 48.0129 131.082 43.7217H115.54Z" fill="#3947A0"/>
<path d="M84.4541 43.7217C84.4541 48.0129 87.9338 51.4926 92.225 51.4926C96.5161 51.4926 99.996 48.0129 99.996 43.7217H84.4541Z" fill="#3947A0"/>
<path d="M53.3682 43.7217C53.3682 48.0129 56.848 51.4926 61.139 51.4926C65.4302 51.4926 68.9099 48.0129 68.9099 43.7217H53.3682Z" fill="#3947A0"/>
<path d="M99.9976 43.7217C99.9976 48.0129 103.477 51.4926 107.768 51.4926C112.06 51.4926 115.539 48.0129 115.539 43.7217H99.9976Z" fill="#779BEA"/>
<path d="M68.9121 43.7217C68.9121 48.0129 72.3918 51.4926 76.683 51.4926C80.9742 51.4926 84.4539 48.0129 84.4539 43.7217H68.9121Z" fill="#779BEA"/>
<path d="M60.5625 132.563H103.62C105.726 132.563 107.132 130.856 106.761 128.75C106.389 126.644 104.381 124.937 102.275 124.937H59.2179C57.1118 124.937 55.7057 126.644 56.0771 128.75C56.4484 130.856 58.4565 132.563 60.5625 132.563Z" fill="#9AB4ED"/>
<path d="M70.5662 154.807H101.461C103.085 154.807 104.262 153.63 104.24 152.027L104 134.312H60.7988L66.8066 152.027C67.3501 153.63 68.9422 154.807 70.5662 154.807Z" fill="#9AB4ED"/>
<path d="M96.8071 128.75C97.0933 130.373 98.6414 131.689 100.265 131.689C101.888 131.689 102.972 130.373 102.686 128.75C102.4 127.127 100.851 125.811 99.2282 125.811C97.6048 125.811 96.5209 127.127 96.8071 128.75Z" fill="#9AB4ED"/>
<path d="M99.821 130.18C100.112 130.18 100.391 130.091 100.612 129.907C101.169 129.443 101.153 128.549 100.576 127.91L85.3729 111.068C84.7961 110.429 83.8773 110.287 83.3196 110.752C82.7626 111.216 82.7786 112.11 83.3553 112.749L98.5589 129.591C98.9066 129.976 99.3787 130.18 99.821 130.18Z" fill="#9AB4ED"/>
<path d="M66.0433 128.75C66.3295 130.373 65.2456 131.689 63.6222 131.689C61.9988 131.689 60.4508 130.373 60.1645 128.75C59.8783 127.127 60.9622 125.811 62.5855 125.811C64.209 125.811 65.7571 127.127 66.0433 128.75Z" fill="#9AB4ED"/>
<path d="M63.5333 130.18C63.2419 130.18 62.9324 130.091 62.646 129.907C61.9253 129.443 61.6259 128.549 61.9772 127.91L71.2416 111.068C71.593 110.429 72.4617 110.287 73.1831 110.752C73.9038 111.216 74.2032 112.11 73.8518 112.749L64.5875 129.591C64.3757 129.976 63.9756 130.18 63.5333 130.18Z" fill="#9AB4ED"/>
<path d="M95.3659 151.09C96.1952 151.09 96.749 150.418 96.6028 149.589L94.804 139.387C94.6578 138.558 93.8669 137.886 93.0376 137.886C92.2083 137.886 91.6544 138.558 91.8008 139.387L93.5994 149.589C93.7458 150.418 94.5367 151.09 95.3659 151.09Z" fill="white"/>
<path d="M88.694 151.09C89.5234 151.09 90.0772 150.418 89.9309 149.589L88.1322 139.387C87.9859 138.558 87.1952 137.886 86.3657 137.886C85.5364 137.886 84.9826 138.558 85.1289 139.387L86.9276 149.589C87.0738 150.418 87.8647 151.09 88.694 151.09Z" fill="white"/>
<path d="M82.0223 151.09C82.8516 151.09 83.4054 150.418 83.259 149.589L81.4603 139.387C81.314 138.558 80.5232 137.886 79.6938 137.886C78.8645 137.886 78.3107 138.558 78.457 139.387L80.2558 149.589C80.402 150.418 81.1929 151.09 82.0223 151.09Z" fill="white"/>
<path d="M75.3752 151.232C76.2046 151.232 76.7584 150.559 76.612 149.73L74.8133 139.529C74.667 138.7 73.8762 138.027 73.0468 138.027C72.2175 138.027 71.6638 138.7 71.81 139.529L73.6088 149.73C73.755 150.559 74.5458 151.232 75.3752 151.232Z" fill="white"/>
<path d="M91.2978 92.9691C98.5454 85.054 96.7686 71.6308 87.3293 62.9876C77.8901 54.3444 64.3627 53.7542 57.1151 61.6694C49.8675 69.5845 51.6442 83.0077 61.0835 91.6508C70.5228 100.294 84.0502 100.884 91.2978 92.9691Z" fill="#F56E64"/>
<path d="M66.3105 88.3881C64.9194 87.2055 64.5813 85.288 65.5554 84.1054L80.2533 66.2609C81.2274 65.0784 83.1449 65.0784 84.536 66.2609C85.9271 67.4435 86.2651 69.361 85.2911 70.5436L70.5932 88.3881C69.6192 89.5706 67.7015 89.5706 66.3105 88.3881Z" fill="white"/>
<path d="M84.1549 88.3881L63.164 70.5436C61.773 69.361 61.4348 67.4435 62.4089 66.2609C63.3829 65.0784 65.3005 65.0784 66.6915 66.2609L87.6825 84.1054C89.0736 85.288 89.4116 87.2055 88.4376 88.3881C87.4635 89.5706 85.546 89.5706 84.1549 88.3881Z" fill="white"/>
<path d="M115.985 76.847C115.985 76.847 115.739 74.3626 115.032 74.1465C114.325 73.9304 114.233 77.7483 115.803 78.5196L115.985 76.847Z" fill="#EBB08B"/>
<path d="M151.946 94.0361L144.13 116.752L143.37 118.963L133.854 115.075C132.881 112.253 132.491 109.025 132.39 106.057C132.21 100.851 132.917 96.4485 132.917 96.4485C146.317 99.2629 151.946 94.0361 151.946 94.0361Z" fill="#FFDB59"/>
<path d="M153.092 130.152L152.955 134.933L152.874 137.651L150.474 220.211C150.474 220.211 150.474 220.207 150.47 220.203C150.225 219.624 133.373 182.527 131.355 173.352C129.324 164.105 140.423 130.152 140.423 130.152L153.092 130.152Z" fill="#334FAA"/>
<path d="M151.355 217.276L150.473 220.214C150.473 220.214 146.445 220.256 145.518 220.219C145.281 220.209 145.165 219.067 145.345 218.913C146.789 217.681 151.355 217.276 151.355 217.276Z" fill="#47423F"/>
<path d="M152.875 137.65L150.474 220.211C150.474 220.211 150.474 220.207 150.47 220.203C150.318 219.64 140.387 183.456 138.469 170.827C136.531 158.094 144.926 136.931 144.926 136.931L152.875 137.65Z" fill="#23409E"/>
<path d="M150.475 220.209C150.475 220.209 147.661 189.251 144.645 172.365C142.434 159.986 144.223 142.199 145.333 133.592C145.518 132.172 145.682 131.007 145.807 130.15C145.96 129.117 146.052 128.542 146.052 128.542L153.092 130.15L165.853 133.065L162.134 157.087C176.809 185.834 150.475 220.209 150.475 220.209Z" fill="#334FAA"/>
<path d="M144.545 103.006L144.13 116.752L143.371 118.963L133.854 115.075C132.881 112.253 132.491 109.025 132.391 106.057C141.34 107.111 144.545 103.006 144.545 103.006Z" fill="#FFC859"/>
<path d="M165.853 133.065L162.134 157.087L159.885 137.696L145.332 133.592L144.223 133.399L145.389 130.15H145.807C145.96 129.117 146.052 128.542 146.052 128.542L153.092 130.15L165.853 133.065Z" fill="#23409E"/>
<path d="M166.537 133.73L137.742 133.304C137.742 133.304 137.939 130.972 138.297 127.68C138.337 127.302 138.381 126.916 138.425 126.514C139.073 120.817 140.142 112.973 141.493 108.912C143.773 102.077 151.946 94.0361 151.946 94.0361L157.498 108.96L163.244 124.399L167.159 132.767C167.371 133.219 167.036 133.737 166.537 133.73Z" fill="#FFDB59"/>
<path d="M163.243 124.399L160.975 130.152L138.296 127.679C138.336 127.301 138.38 126.915 138.425 126.513C152.199 120.977 154.961 107.762 154.961 107.762L157.498 108.96L163.243 124.399Z" fill="#FFC859"/>
<path d="M135.549 133.434H142.94C143.402 133.434 143.717 132.965 143.541 132.538L138.211 119.568C138.111 119.325 137.874 119.166 137.611 119.166H130.219C129.757 119.166 129.443 119.635 129.619 120.062L134.949 133.032C135.049 133.275 135.286 133.434 135.549 133.434Z" fill="#4653AB"/>
<path d="M142.76 132.538L137.43 119.568C137.33 119.325 137.092 119.166 136.829 119.166H137.611C137.874 119.166 138.112 119.325 138.212 119.568L143.541 132.538C143.717 132.965 143.403 133.434 142.941 133.434H142.159C142.621 133.434 142.935 132.965 142.76 132.538Z" fill="#406D99"/>
<path d="M134.293 120.761C134.481 121.209 134.478 121.637 134.285 121.719C134.093 121.8 133.783 121.503 133.595 121.055C133.406 120.607 133.41 120.179 133.602 120.097C133.795 120.016 134.104 120.313 134.293 120.761Z" fill="#406D99"/>
<path d="M153.421 117.622C153.421 117.622 162.4 123.787 174.327 122.715C174.327 122.715 167.708 114.399 153.421 117.622Z" fill="#FFC859"/>
<path d="M173.391 118.963C173.391 118.963 173.391 129.951 163.875 134.108C154.358 138.261 141.694 129.215 141.694 129.215C139.683 129.014 136.869 125.866 138.212 125.327C139.551 124.793 141.492 126.2 141.492 126.2C151.162 126.899 155.058 121.391 156.597 117.455C157.426 115.332 157.574 113.668 157.574 113.668L173.391 118.963Z" fill="#EBB08B"/>
<path d="M173.391 118.963C173.391 118.963 173.391 129.951 163.875 134.108C154.358 138.261 141.694 129.215 141.694 129.215C163.891 133.103 167.341 123.566 167.341 123.566C164.124 120.704 156.598 117.455 156.598 117.455C157.426 115.332 157.575 113.668 157.575 113.668L173.391 118.963Z" fill="#E3A47F"/>
<path d="M174.328 122.714C174.328 122.714 171.976 120.539 167.228 118.987C163.847 117.878 159.252 117.086 153.422 117.624C153.422 117.624 157.442 108.643 152.887 101.944L151.946 94.0361C151.946 94.0361 154.105 93.7909 157.088 94.2573C164.213 95.3628 176.029 100.517 174.328 122.714Z" fill="#FFDB59"/>
<path d="M144.117 89.8829C141.101 87.6752 138.588 80.1861 140.572 78.4885C142.233 77.0664 145.998 75.8913 148.921 79.3273C154.732 78.1828 154.028 88.7716 149.524 91.1754C148.659 91.0665 144.117 89.8829 144.117 89.8829Z" fill="#47423F"/>
<path d="M146.005 88.1475C146.005 88.1475 145.802 90.3282 145.924 93.0734C146.026 95.4442 146.366 98.2308 147.27 100.416C147.57 101.142 147.935 101.803 148.373 102.354C150.952 100.024 153.556 95.0696 152.943 94.0456C152.159 92.7338 151.15 89.7113 151.15 89.7113L146.005 88.1475Z" fill="#EBB08B"/>
<path d="M145.924 93.0731C146.026 95.4439 146.366 98.2305 147.27 100.415C148.998 96.099 148.315 92.335 148.315 92.335L145.924 93.0731Z" fill="#E3A47F"/>
<path d="M148.308 87.3454C148.242 87.4188 148.133 87.3641 148.142 87.2654C148.425 84.0628 146.736 80.5349 143.894 80.5686C139.085 80.626 139.949 97.1168 144.558 96.4605C147.538 96.036 152.397 87.8764 150.69 86.5316C149.824 85.8491 148.748 86.8578 148.308 87.3454Z" fill="#EBB08B"/>
<path d="M174.328 122.714C174.328 122.714 171.976 120.539 167.228 118.987C167.943 99.7971 157.088 94.2568 157.088 94.2568C164.212 95.3624 176.028 100.517 174.328 122.714Z" fill="#FFC859"/>
<path d="M44.0356 221.791C44.0352 222.085 44.2727 222.323 44.5662 222.324L61.2664 222.352L80.2986 222.383L84.4359 222.39L96.593 222.358L96.6184 206.572L96.6258 202.437L96.6484 188.838L84.4866 188.87L80.3498 188.865L61.3218 188.833L44.6966 188.805C44.3616 188.804 44.0896 189.075 44.0892 189.41L44.0667 202.438L44.0612 206.573L44.0356 221.791Z" fill="#334FAA"/>
<path d="M44.5204 222.324L60.7812 222.351C61.0492 222.352 61.267 222.135 61.2673 221.867L61.2929 206.591L61.3005 202.456L61.3213 189.318C61.3218 189.05 61.1048 188.833 60.8367 188.832L44.5759 188.805C44.3077 188.804 44.0901 189.021 44.0896 189.289L44.0669 202.439L44.0615 206.573L44.0356 221.837C44.0354 222.106 44.2523 222.324 44.5204 222.324Z" fill="#23409E"/>
<path d="M56.5079 197.429L57.083 197.429L57.0838 191.992L56.5087 191.992L56.5079 197.429Z" fill="#334FAA"/>
<path d="M55.6544 197.427L56.2295 197.427L56.2303 191.99L55.6552 191.99L55.6544 197.427Z" fill="#334FAA"/>
<path d="M55.0304 197.427L55.3179 197.427L55.3188 191.99L55.0313 191.99L55.0304 197.427Z" fill="#334FAA"/>
<path d="M52.6148 197.427L53.1899 197.427L53.1907 191.99L52.6156 191.99L52.6148 197.427Z" fill="#334FAA"/>
<path d="M49.818 197.427L50.3931 197.427L50.3939 191.99L49.8187 191.99L49.818 197.427Z" fill="#334FAA"/>
<path d="M48.8712 197.425L49.4463 197.425L49.447 191.988L48.8718 191.988L48.8712 197.425Z" fill="#334FAA"/>
<path d="M48.3092 197.425L48.5967 197.425L48.5976 191.988L48.3101 191.988L48.3092 197.425Z" fill="#334FAA"/>
<path d="M50.791 197.427L52.1899 197.427L52.1909 191.99L50.792 191.99L50.791 197.427Z" fill="#334FAA"/>
<path d="M53.5455 197.427L54.5039 197.427L54.5048 191.99L53.5464 191.99L53.5455 197.427Z" fill="#334FAA"/>
<path d="M77.2354 222.379L81.3726 222.386L81.4234 188.865L77.2866 188.86L77.2354 222.379Z" fill="#FFDB59"/>
<path d="M44.0615 206.572L61.293 206.59L96.6187 206.572L96.6261 202.437L61.3004 202.455L44.067 202.438L44.0615 206.572Z" fill="#FFDB59"/>
<path d="M103.559 161.718H76.3491V222.228H103.559V161.718Z" fill="#F56E64"/>
<path d="M87.4799 161.718H76.3491V222.228H87.4799V161.718Z" fill="#F05E54"/>
<path d="M97.6832 161.721H94.5913V222.256H97.6832V161.721Z" fill="#FFDB59"/>
<path d="M103.559 190.626H76.3491V193.35H103.559V190.626Z" fill="#FFDB59"/>
<path d="M78.9125 173.094L78.9126 173.756L83.8802 173.755L83.8802 173.094L78.9125 173.094Z" fill="#F56E64"/>
<path d="M78.9125 172.112L78.9126 172.773L83.8802 172.773L83.8802 172.111L78.9125 172.112Z" fill="#F56E64"/>
<path d="M78.9126 171.393L78.9126 171.724L83.8802 171.723L83.8802 171.392L78.9126 171.393Z" fill="#F56E64"/>
<path d="M78.9125 168.615L78.9126 169.276L83.8802 169.275L83.8801 168.614L78.9125 168.615Z" fill="#F56E64"/>
<path d="M78.9125 165.395L78.9126 166.057L83.8802 166.056L83.8801 165.394L78.9125 165.395Z" fill="#F56E64"/>
<path d="M78.9125 164.308L78.9126 164.97L83.8802 164.969L83.8802 164.308L78.9125 164.308Z" fill="#F56E64"/>
<path d="M78.9116 163.659L78.9116 163.99L83.8793 163.99L83.8792 163.659L78.9116 163.659Z" fill="#F56E64"/>
<path d="M78.9124 166.516L78.9126 168.126L83.8802 168.125L83.88 166.516L78.9124 166.516Z" fill="#F56E64"/>
<path d="M78.9125 169.684L78.9126 170.787L83.8802 170.787L83.8801 169.684L78.9125 169.684Z" fill="#F56E64"/>
</svg>
