<svg width="40" height="40" viewBox="0 0 40 40" fill="none" xmlns="http://www.w3.org/2000/svg">
<rect width="40" height="40" rx="20" fill="#002395"/>
<path d="M28.0211 10.4375H11.9786C11.5713 10.4378 11.1729 10.5563 10.8317 10.7787C10.4905 11.001 10.2211 11.3176 10.0563 11.6901C9.89157 12.0625 9.83844 12.4748 9.9034 12.8768C9.96836 13.2789 10.1486 13.6534 10.4223 13.955L17.3748 21.6013V28.8125C17.3749 28.9535 17.4147 29.0916 17.4896 29.2109C17.5646 29.3303 17.6716 29.4262 17.7986 29.4875C17.9 29.5375 18.0117 29.5632 18.1248 29.5625C18.2953 29.5624 18.4606 29.5042 18.5936 29.3975L19.9998 28.2725L22.3436 26.3975C22.4313 26.3273 22.5021 26.2383 22.5507 26.137C22.5994 26.0357 22.6247 25.9249 22.6248 25.8125V21.6013L29.5773 13.955C29.851 13.6534 30.0313 13.2789 30.0962 12.8768C30.1612 12.4748 30.108 12.0625 29.9433 11.6901C29.7785 11.3176 29.5092 11.001 29.1679 10.7787C28.8267 10.5563 28.4283 10.4378 28.0211 10.4375Z" fill="white"/>
</svg>
