<?xml version="1.0" encoding="UTF-8"?>
<svg id="Layer_1" data-name="Layer 1" xmlns="http://www.w3.org/2000/svg" viewBox="0 0 40 40">
  <defs>
    <style>
      .cls-1 {
        fill: #002395;
      }

      .cls-2 {
        fill: #fff;
      }
    </style>
  </defs>
  <path class="cls-1" d="M20,0h0c11.05,0,20,8.95,20,20h0c0,11.05-8.95,20-20,20h0C8.95,40,0,31.05,0,20h0C0,8.95,8.95,0,20,0Z"/>
  <g>
    <path class="cls-2" d="M24.91,16.19c-.34-.08-.7-.12-1.07-.12-2.7,0-4.89,2.19-4.89,4.89,0,.92.26,1.78.71,2.52.38.64.91,1.18,1.54,1.57.76.5,1.67.79,2.63.79,1.79,0,3.34-.96,4.19-2.37.45-.74.7-1.6.7-2.52,0-2.33-1.63-4.28-3.82-4.76h0ZM26.28,20.31l-2.61,2.41c-.14.13-.34.21-.52.21-.2,0-.39-.07-.55-.23l-1.2-1.2c-.3-.3-.3-.79,0-1.09s.79-.3,1.09,0l.68.68,2.07-1.9c.32-.29.8-.27,1.09.04.29.32.27.8-.04,1.09h0Z"/>
    <path class="cls-2" d="M30.1,12.88c-.07.4-.25.77-.52,1.08l-2.17,2.38c-.66-.52-1.44-.89-2.29-1.08-.4-.1-.83-.14-1.28-.14-3.22,0-5.84,2.61-5.84,5.84,0,1.09.31,2.12.85,3.01.46.76,1.09,1.41,1.85,1.88.45.3.95.53,1.47.7l-2.17,1.72-1.4,1.13c-.14.11-.3.16-.47.16-.12,0-.23-.02-.33-.07-.13-.06-.23-.16-.31-.28-.07-.12-.11-.26-.11-.4v-7.21l-6.96-7.64c-.27-.31-.45-.68-.51-1.08-.07-.4-.02-.82.15-1.19.16-.37.43-.69.77-.91.35-.22.74-.34,1.15-.34h16.04c.41,0,.81.12,1.15.34.34.22.61.54.78.91.16.37.21.79.15,1.19Z"/>
  </g>
</svg>