<svg width="20" height="21" viewBox="0 0 20 21" fill="none" xmlns="http://www.w3.org/2000/svg">
<g clip-path="url(#clip0_370_4483)">
<path d="M14.5441 20.5C14.4041 20.5 14.2608 20.4825 14.1191 20.445L1.23331 16.9942C0.349972 16.7509 -0.176695 15.8359 0.054972 14.9525L1.68081 8.89254C1.74081 8.67004 1.96914 8.54087 2.19081 8.59754C2.41331 8.6567 2.54497 8.88587 2.48581 9.10754L0.860805 15.1659C0.744972 15.6075 1.00997 16.0675 1.45247 16.19L14.3333 19.6392C14.7758 19.7559 15.2325 19.4925 15.3475 19.0525L15.9983 16.6409C16.0583 16.4184 16.2866 16.2859 16.5091 16.3467C16.7316 16.4067 16.8625 16.6359 16.8033 16.8575L16.1533 19.2659C15.9575 20.0075 15.2825 20.5 14.5441 20.5Z" fill="#595959"/>
<path d="M18.3333 15.5001H4.99998C4.08081 15.5001 3.33331 14.7526 3.33331 13.8334V3.83341C3.33331 2.91425 4.08081 2.16675 4.99998 2.16675H18.3333C19.2525 2.16675 20 2.91425 20 3.83341V13.8334C20 14.7526 19.2525 15.5001 18.3333 15.5001ZM4.99998 3.00008C4.54081 3.00008 4.16665 3.37425 4.16665 3.83341V13.8334C4.16665 14.2926 4.54081 14.6667 4.99998 14.6667H18.3333C18.7925 14.6667 19.1666 14.2926 19.1666 13.8334V3.83341C19.1666 3.37425 18.7925 3.00008 18.3333 3.00008H4.99998Z" fill="#595959"/>
<path d="M7.49998 8.00008C6.58081 8.00008 5.83331 7.25258 5.83331 6.33341C5.83331 5.41425 6.58081 4.66675 7.49998 4.66675C8.41915 4.66675 9.16665 5.41425 9.16665 6.33341C9.16665 7.25258 8.41915 8.00008 7.49998 8.00008ZM7.49998 5.50008C7.04081 5.50008 6.66665 5.87425 6.66665 6.33341C6.66665 6.79258 7.04081 7.16675 7.49998 7.16675C7.95915 7.16675 8.33331 6.79258 8.33331 6.33341C8.33331 5.87425 7.95915 5.50008 7.49998 5.50008Z" fill="#595959"/>
<path d="M3.80835 14.6084C3.70169 14.6084 3.59502 14.5676 3.51335 14.4867C3.35085 14.3242 3.35085 14.0601 3.51335 13.8976L7.44919 9.96175C7.92085 9.49008 8.74502 9.49008 9.21669 9.96175L10.3884 11.1334L13.6317 7.24175C13.8675 6.95925 14.2142 6.79508 14.5834 6.79175H14.5925C14.9575 6.79175 15.3034 6.95008 15.5417 7.22758L19.9 12.3126C20.05 12.4867 20.03 12.7501 19.855 12.9001C19.6809 13.0501 19.4184 13.0309 19.2675 12.8551L14.9092 7.77008C14.8284 7.67675 14.7167 7.62508 14.5925 7.62508C14.5059 7.61758 14.3534 7.67758 14.2725 7.77508L10.7367 12.0176C10.6617 12.1076 10.5525 12.1617 10.435 12.1667C10.3167 12.1751 10.2042 12.1284 10.1217 12.0451L8.62752 10.5509C8.47002 10.3942 8.19585 10.3942 8.03835 10.5509L4.10252 14.4867C4.02169 14.5676 3.91502 14.6084 3.80835 14.6084Z" fill="#595959"/>
</g>
<defs>
<clipPath id="clip0_370_4483">
<rect width="20" height="20" fill="white" transform="translate(0 0.5)"/>
</clipPath>
</defs>
</svg>
