<svg width="24" height="24" viewBox="0 0 24 24" fill="none" xmlns="http://www.w3.org/2000/svg">
<path d="M11.9893 2.00007C11.8578 2.00136 11.7278 2.02867 11.6068 2.08046C11.4859 2.13226 11.3762 2.20752 11.2843 2.30192C11.1923 2.39631 11.1197 2.50805 11.0708 2.63064C11.0218 2.75323 10.9974 2.88427 10.9989 3.01635V11.0544C10.999 11.321 11.1045 11.5768 11.2922 11.7653C11.48 11.9538 11.7345 12.0596 12 12.0596C12.2655 12.0596 12.52 11.9538 12.7078 11.7653C12.8955 11.5768 13.001 11.321 13.0011 11.0544V3.01635C13.0026 2.88245 12.9775 2.74958 12.9272 2.62557C12.8769 2.50156 12.8025 2.38887 12.7082 2.29419C12.6139 2.19951 12.5018 2.12475 12.3783 2.07423C12.2548 2.02371 12.1226 1.9985 11.9893 2.00007ZM17.8238 4.01498C17.7912 4.01404 17.7586 4.01469 17.7261 4.01694C17.5284 4.0338 17.3402 4.10938 17.1853 4.23401C17.0304 4.35865 16.916 4.52669 16.8565 4.71683C16.7971 4.90698 16.7952 5.11066 16.8513 5.30185C16.9074 5.49304 17.0188 5.66315 17.1714 5.79055C18.9038 7.2682 19.9998 9.46751 19.9998 11.9372C19.9998 16.3967 16.4347 19.991 12.0049 19.991C7.57505 19.991 4.00214 16.3967 4.00215 11.9372C4.00215 9.4818 5.08422 7.29742 6.79929 5.81997C6.89921 5.7343 6.98136 5.62967 7.04103 5.51212C7.1007 5.39457 7.13674 5.26637 7.14708 5.13483C7.15743 5.00329 7.14187 4.87106 7.10131 4.74556C7.06075 4.62005 6.99597 4.50381 6.91068 4.40345C6.82538 4.30309 6.72125 4.22059 6.60421 4.16066C6.48717 4.10072 6.35953 4.06446 6.22857 4.05408C6.0976 4.0437 5.96589 4.05935 5.84094 4.1001C5.71599 4.14085 5.60025 4.2059 5.50034 4.29157C3.35939 6.1359 2.00001 8.88497 2 11.9372C1.99999 17.4806 6.49228 22 12.0049 22C17.5175 22 22 17.4806 22 11.9372C22 8.86717 20.6272 6.10679 18.4645 4.26216C18.2866 4.10644 18.0597 4.01889 17.8238 4.01498Z" fill="#595959"/>
</svg>
