<?xml version="1.0" encoding="UTF-8"?>
<svg id="OBJECTS" xmlns="http://www.w3.org/2000/svg" viewBox="0 0 40 40">
  <defs>
    <style>
      .cls-1 {
        fill: #fff;
      }

      .cls-2 {
        fill: #002395;
      }
    </style>
  </defs>
  <circle class="cls-2" cx="20" cy="20" r="20"/>
  <g id="_Group_" data-name="&amp;lt;Group&amp;gt;">
    <path class="cls-1" d="M25.76,10.59v2.88h-11.52v-2.88h-3.6v21.69h18.71V10.59h-3.6ZM14.96,29.66l-1.95-1.95,1.02-1.02.93.93,2.37-2.37,1.02,1.02-3.39,3.39ZM14.96,25.34l-1.95-1.95,1.02-1.02.93.93,2.37-2.37,1.02,1.02-3.39,3.39ZM14.96,21.02l-1.95-1.95,1.02-1.02.93.93,2.37-2.37,1.02,1.02-3.39,3.39ZM26.48,27.92h-7.2v-1.44h7.2v1.44ZM26.48,23.6h-7.2v-1.44h7.2v1.44ZM26.48,19.28h-7.2v-1.44h7.2v1.44Z"/>
    <path class="cls-1" d="M21.44,9.16c0-.8-.64-1.44-1.44-1.44s-1.44.64-1.44,1.44h-2.88v2.88h8.64v-2.88h-2.88Z"/>
  </g>
</svg>