<svg width="40" height="40" viewBox="0 0 40 40" fill="none" xmlns="http://www.w3.org/2000/svg">
<g clip-path="url(#clip0_312_7141)">
<path d="M29.0883 39.9999C28.8083 39.9999 28.5216 39.9649 28.2383 39.8899L2.46661 32.9883C0.699944 32.5016 -0.353389 30.6716 0.109944 28.905L3.36161 16.785C3.48161 16.34 3.93828 16.0816 4.38161 16.195C4.82661 16.3133 5.08994 16.7716 4.97161 17.215L1.72161 29.3316C1.48994 30.215 2.01994 31.1349 2.90494 31.3799L28.6666 38.2783C29.5516 38.5116 30.4649 37.985 30.6949 37.105L31.9966 32.2816C32.1166 31.8366 32.5733 31.5716 33.0183 31.6933C33.4633 31.8133 33.7249 32.2716 33.6066 32.7149L32.3066 37.5316C31.9149 39.0149 30.5649 39.9999 29.0883 39.9999Z" fill="#A0A0A0"/>
<path d="M36.6667 30H10.0001C8.16175 30 6.66675 28.505 6.66675 26.6667V6.66671C6.66675 4.82837 8.16175 3.33337 10.0001 3.33337H36.6667C38.5051 3.33337 40.0001 4.82837 40.0001 6.66671V26.6667C40.0001 28.505 38.5051 30 36.6667 30ZM10.0001 5.00004C9.08175 5.00004 8.33341 5.74837 8.33341 6.66671V26.6667C8.33341 27.585 9.08175 28.3334 10.0001 28.3334H36.6667C37.5851 28.3334 38.3334 27.585 38.3334 26.6667V6.66671C38.3334 5.74837 37.5851 5.00004 36.6667 5.00004H10.0001Z" fill="#A0A0A0"/>
<path d="M15.0001 15C13.1617 15 11.6667 13.505 11.6667 11.6667C11.6667 9.82837 13.1617 8.33337 15.0001 8.33337C16.8384 8.33337 18.3334 9.82837 18.3334 11.6667C18.3334 13.505 16.8384 15 15.0001 15ZM15.0001 10C14.0817 10 13.3334 10.7484 13.3334 11.6667C13.3334 12.585 14.0817 13.3334 15.0001 13.3334C15.9184 13.3334 16.6667 12.585 16.6667 11.6667C16.6667 10.7484 15.9184 10 15.0001 10Z" fill="#A0A0A0"/>
<path d="M7.61671 28.2167C7.40338 28.2167 7.19004 28.135 7.02671 27.9734C6.70171 27.6484 6.70171 27.12 7.02671 26.795L14.8984 18.9234C15.8417 17.98 17.49 17.98 18.4334 18.9234L20.7767 21.2667L27.2634 13.4834C27.735 12.9184 28.4284 12.59 29.1667 12.5834H29.185C29.915 12.5834 30.6067 12.9 31.0834 13.455L39.8 23.625C40.1 23.9734 40.06 24.5 39.71 24.8C39.3617 25.1 38.8367 25.0617 38.535 24.71L29.8184 14.54C29.6567 14.3534 29.4334 14.25 29.185 14.25C29.0117 14.235 28.7067 14.355 28.545 14.55L21.4734 23.035C21.3234 23.215 21.105 23.3234 20.87 23.3334C20.6334 23.35 20.4084 23.2567 20.2434 23.09L17.255 20.1017C16.94 19.7884 16.3917 19.7884 16.0767 20.1017L8.20504 27.9734C8.04338 28.135 7.83004 28.2167 7.61671 28.2167Z" fill="#A0A0A0"/>
</g>
<defs>
<clipPath id="clip0_312_7141">
<rect width="40" height="40" fill="white"/>
</clipPath>
</defs>
</svg>
