<svg width="20" height="21" viewBox="0 0 20 21" fill="none" xmlns="http://www.w3.org/2000/svg">
<g clip-path="url(#clip0_370_4524)">
<path d="M10.011 9.57251C9.64278 9.57251 9.3443 9.87099 9.3443 10.2392C9.34426 10.5054 9.50071 10.7345 9.72629 10.8414V11.6518C9.72629 11.809 9.85371 11.9365 10.0109 11.9365C10.1682 11.9365 10.2956 11.809 10.2956 11.6518V10.8414C10.5212 10.7345 10.6777 10.5054 10.6777 10.2392C10.6777 9.87099 10.3792 9.57251 10.011 9.57251Z" fill="#595959"/>
<path d="M17.1148 4.8418C15.8894 4.35691 14.9169 3.46387 14.3762 2.32723C14.2292 2.01813 13.9114 1.81836 13.5665 1.81836H6.43358C6.08874 1.81836 5.77093 2.01809 5.62389 2.32723C5.08327 3.46387 4.11065 4.35691 2.8853 4.8418C2.54159 4.97777 2.31952 5.30543 2.31952 5.67648V7.41133C2.31952 9.68551 2.98268 11.932 4.23733 13.9081C5.50417 15.9036 7.33987 17.5712 9.54585 18.7306L9.58178 18.7495C9.71276 18.8184 9.85639 18.8528 10.0001 18.8528C10.1437 18.8528 10.2873 18.8184 10.4182 18.7496L10.4543 18.7306C12.6603 17.5711 14.496 15.9036 15.7628 13.9081C17.0174 11.932 17.6806 9.68547 17.6806 7.41133V5.67648C17.6806 5.30539 17.4585 4.97777 17.1148 4.8418ZM17.1114 7.41137C17.1114 9.57727 16.4789 11.7183 15.2823 13.603C14.0686 15.5146 12.3075 17.1135 10.1895 18.2268L10.1535 18.2457C10.0574 18.2962 9.94272 18.2962 9.84663 18.2457L9.81069 18.2268C7.69261 17.1135 5.93151 15.5146 4.71784 13.603C3.52124 11.7183 2.88874 9.57727 2.88874 7.41133V5.67648C2.88874 5.54051 2.9696 5.42062 3.09471 5.37113C4.45448 4.83309 5.53522 3.83891 6.13792 2.57176C6.19108 2.45992 6.30714 2.38766 6.43354 2.38766H13.5665C13.6929 2.38766 13.8089 2.45992 13.8621 2.57176C14.4649 3.83891 15.5457 4.83309 16.9054 5.37117C17.0305 5.42066 17.1114 5.54055 17.1114 5.67652V7.41137Z" fill="#595959"/>
<path d="M18.5419 10.1125C18.3886 10.0778 18.2362 10.174 18.2015 10.3274C17.3347 14.1624 14.6945 17.4883 10.958 19.4523L10.0896 19.9087C10.0336 19.9381 9.96662 19.9381 9.91057 19.9087L9.04225 19.4523C5.29983 17.4853 2.65834 14.1536 1.7951 10.3117C1.76069 10.1583 1.60834 10.0619 1.45502 10.0963C1.30166 10.1308 1.20526 10.2831 1.23971 10.4364C2.13955 14.4415 4.88694 17.9113 8.7774 19.9562L9.64572 20.4126C9.7567 20.4708 9.87838 20.5 10.0001 20.5C10.1218 20.5 10.2435 20.4708 10.3545 20.4125L11.2228 19.9561C15.1071 17.9145 17.8531 14.4507 18.7568 10.4529C18.7914 10.2996 18.6952 10.1472 18.5419 10.1125Z" fill="#595959"/>
<path d="M18.4033 3.75691C16.8835 3.59656 15.6884 2.52973 15.4971 1.16262C15.4442 0.784844 15.1196 0.5 14.7419 0.5H5.25818C4.88056 0.5 4.55591 0.784844 4.50306 1.16262C4.31173 2.52977 3.11666 3.59656 1.59681 3.75691C1.21169 3.79754 0.921265 4.12289 0.921265 4.51367V7.57008C0.921265 8.01422 0.944272 8.46324 0.989663 8.90473C1.00474 9.05121 1.12833 9.16027 1.27248 9.16027C1.2822 9.16027 1.29205 9.15977 1.30193 9.15875C1.4583 9.1427 1.57205 9.00289 1.55595 8.84652C1.51255 8.4243 1.49052 7.99484 1.49052 7.57008V4.51367C1.49052 4.4166 1.56345 4.33281 1.65654 4.32301C3.43685 4.1352 4.83919 2.86801 5.06685 1.24148C5.08083 1.14168 5.16126 1.06926 5.25818 1.06926H14.7419C14.8388 1.06926 14.9193 1.14168 14.9333 1.24148C15.1608 2.86801 16.5632 4.13516 18.3435 4.32301C18.4366 4.33281 18.5095 4.4166 18.5095 4.51367V7.57008C18.5095 7.99035 18.488 8.41535 18.4455 8.83336C18.4296 8.98973 18.5435 9.12941 18.6999 9.14531C18.8561 9.16133 18.9959 9.0473 19.0119 8.89094C19.0563 8.45391 19.0788 8.00953 19.0788 7.57008V4.51367C19.0788 4.12289 18.7885 3.79754 18.4033 3.75691Z" fill="#595959"/>
<path d="M13.2601 7.6042H12.7921V6.24553C12.7921 4.71197 11.5445 3.46436 10.0109 3.46436C8.47737 3.46436 7.22971 4.71197 7.22971 6.24553V7.6042H6.76174C6.2626 7.6042 5.85651 8.01029 5.85651 8.50943V12.5848C5.85651 13.0839 6.2626 13.49 6.76174 13.49H13.2601C13.7593 13.49 14.1654 13.0839 14.1654 12.5848V8.50943C14.1654 8.01029 13.7593 7.6042 13.2601 7.6042ZM7.79901 6.24557C7.79901 5.02592 8.79127 4.03365 10.011 4.03365C11.2306 4.03365 12.2229 5.02592 12.2229 6.24557V7.60424H7.79901V6.24557ZM13.5961 12.5848C13.5961 12.77 13.4454 12.9208 13.2601 12.9208H6.76174C6.57647 12.9208 6.42576 12.77 6.42576 12.5848V8.50943C6.42576 8.3242 6.57651 8.17346 6.76174 8.17346H13.2601C13.4454 8.17346 13.5961 8.32416 13.5961 8.50943V12.5848Z" fill="#595959"/>
</g>
<defs>
<clipPath id="clip0_370_4524">
<rect width="20" height="20" fill="white" transform="translate(0 0.5)"/>
</clipPath>
</defs>
</svg>
