<svg width="32" height="32" viewBox="0 0 32 32" fill="none" xmlns="http://www.w3.org/2000/svg">
<g clip-path="url(#clip0_120_3448)">
<path d="M13.8572 14.8334C14.218 14.9844 14.5922 15.101 14.9749 15.1817V29C14.7402 28.9395 14.5117 28.8569 14.2927 28.7532L5.58367 24.8777C4.8147 24.5355 4.16143 23.9776 3.70289 23.2718C3.24435 22.566 3.0002 21.7423 3 20.9006V11.2337C3.00115 10.846 3.05486 10.4602 3.15966 10.087L13.8572 14.8334ZM20.1567 11.5965L8.327 6.0373L5.58367 7.25656C5.08892 7.47403 4.64051 7.78447 4.2628 8.171L14.7281 12.8303C15.1486 13.0169 15.6035 13.1133 16.0635 13.1133C16.5235 13.1133 16.9784 13.0169 17.3989 12.8303L20.1567 11.5965ZM27.8642 8.171C27.4865 7.78447 27.038 7.47403 26.5433 7.25656L17.8343 3.38106C17.2777 3.12989 16.6741 3 16.0635 3C15.4529 3 14.8492 3.12989 14.2927 3.38106L10.9687 4.86159L22.7984 10.4208L27.8642 8.171ZM28.9673 10.087L23.8725 12.3513V15.9075C23.8725 16.1962 23.7578 16.4731 23.5537 16.6773C23.3495 16.8814 23.0726 16.9961 22.7839 16.9961C22.4952 16.9961 22.2183 16.8814 22.0141 16.6773C21.81 16.4731 21.6953 16.1962 21.6953 15.9075V13.3093L18.2698 14.8334C17.9066 14.9779 17.533 15.0943 17.1521 15.1817V29C17.3868 28.9395 17.6152 28.8569 17.8343 28.7532L26.5433 24.8777C27.3123 24.5355 27.9655 23.9776 28.4241 23.2718C28.8826 22.566 29.1268 21.7423 29.127 20.9006V11.2337C29.1258 10.846 29.0721 10.4602 28.9673 10.087Z" fill="#002395"/>
</g>
<defs>
<clipPath id="clip0_120_3448">
<rect width="26" height="26" fill="white" transform="translate(3 3)"/>
</clipPath>
</defs>
</svg>
