<svg width="32" height="32" viewBox="0 0 32 32" fill="none" xmlns="http://www.w3.org/2000/svg">
<path d="M11.5702 22.9992C11.3176 22.9984 11.0746 22.9019 10.8902 22.7292C9.97701 21.8622 9.24981 20.8185 8.75288 19.6615C8.25595 18.5045 7.99968 17.2584 7.99968 15.9992C7.99968 14.74 8.25595 13.494 8.75288 12.337C9.24981 11.18 9.97701 10.1362 10.8902 9.26923C11.087 9.10966 11.337 9.03073 11.5897 9.04839C11.8425 9.06604 12.0791 9.17897 12.2518 9.36435C12.4244 9.54973 12.5203 9.79375 12.52 10.0471C12.5197 10.3004 12.4233 10.5442 12.2502 10.7292C11.5394 11.4106 10.9737 12.2287 10.5873 13.1344C10.2009 14.0401 10.0016 15.0146 10.0016 15.9992C10.0016 16.9839 10.2009 17.9584 10.5873 18.8641C10.9737 19.7697 11.5394 20.5879 12.2502 21.2692C12.3964 21.4061 12.4982 21.5838 12.5422 21.7791C12.5863 21.9745 12.5707 22.1786 12.4974 22.3651C12.4242 22.5515 12.2966 22.7116 12.1313 22.8246C11.966 22.9377 11.7705 22.9985 11.5702 22.9992ZM7.5702 25.6792C7.75645 25.4919 7.86099 25.2384 7.86099 24.9742C7.86099 24.71 7.75645 24.4566 7.5702 24.2692C6.45144 23.2019 5.56087 21.9186 4.9524 20.4971C4.34392 19.0756 4.03019 17.5455 4.03019 15.9992C4.03019 14.453 4.34392 12.9228 4.9524 11.5013C5.56087 10.0798 6.45144 8.79658 7.5702 7.72923C7.76381 7.54225 7.87521 7.28602 7.8799 7.0169C7.88459 6.74779 7.78218 6.48784 7.5952 6.29423C7.40822 6.10062 7.15199 5.98922 6.88288 5.98453C6.61376 5.97984 6.35381 6.08225 6.1602 6.26923C4.84292 7.52443 3.79424 9.03404 3.0777 10.7066C2.36116 12.3791 1.9917 14.1797 1.9917 15.9992C1.9917 17.8188 2.36116 19.6194 3.0777 21.2919C3.79424 22.9644 4.84292 24.474 6.1602 25.7292C6.25642 25.8198 6.36963 25.8903 6.49329 25.9368C6.61694 25.9834 6.74859 26.0049 6.88062 26.0003C7.01266 25.9956 7.14246 25.9649 7.26254 25.9098C7.38262 25.8547 7.49058 25.7763 7.5802 25.6792H7.5702ZM21.1002 22.7292C22.0134 21.8622 22.7406 20.8185 23.2375 19.6615C23.7345 18.5045 23.9907 17.2584 23.9907 15.9992C23.9907 14.74 23.7345 13.494 23.2375 12.337C22.7406 11.18 22.0134 10.1362 21.1002 9.26923C21.0043 9.17927 20.8917 9.10908 20.7687 9.06266C20.6457 9.01624 20.5148 8.99449 20.3834 8.99867C20.252 9.00285 20.1227 9.03287 20.0029 9.08701C19.8831 9.14115 19.7752 9.21836 19.6852 9.31423C19.5952 9.41009 19.5251 9.52274 19.4786 9.64573C19.4322 9.76872 19.4105 9.89965 19.4146 10.031C19.4188 10.1624 19.4488 10.2917 19.503 10.4115C19.5571 10.5313 19.6343 10.6393 19.7302 10.7292C20.4449 11.4084 21.0139 12.2258 21.4028 13.1318C21.7917 14.0377 21.9922 15.0133 21.9922 15.9992C21.9922 16.9851 21.7917 17.9607 21.4028 18.8667C21.0139 19.7727 20.4449 20.5901 19.7302 21.2692C19.5372 21.4499 19.4235 21.6997 19.4142 21.9639C19.4048 22.2281 19.5004 22.4853 19.6802 22.6792C19.7746 22.781 19.8891 22.862 20.0165 22.9171C20.1439 22.9722 20.2814 23.0002 20.4202 22.9992C20.6728 22.9984 20.9158 22.9019 21.1002 22.7292ZM25.8202 25.7292C27.1413 24.4763 28.1935 22.9674 28.9125 21.2946C29.6314 19.6217 30.0022 17.82 30.0022 15.9992C30.0022 14.1784 29.6314 12.3767 28.9125 10.7039C28.1935 9.03107 27.1413 7.52219 25.8202 6.26923C25.6234 6.10966 25.3734 6.03073 25.1207 6.04839C24.8679 6.06604 24.6313 6.17897 24.4586 6.36435C24.286 6.54973 24.1901 6.79375 24.1904 7.0471C24.1907 7.30045 24.2871 7.54424 24.4602 7.72923C25.579 8.79658 26.4695 10.0798 27.078 11.5013C27.6865 12.9228 28.0002 14.453 28.0002 15.9992C28.0002 17.5455 27.6865 19.0756 27.078 20.4971C26.4695 21.9186 25.579 23.2019 24.4602 24.2692C24.2672 24.4499 24.1535 24.6997 24.1441 24.9639C24.1348 25.2281 24.2304 25.4853 24.4102 25.6792C24.5034 25.7798 24.6164 25.8601 24.7419 25.9151C24.8675 25.9702 25.0031 25.9988 25.1402 25.9992C25.3928 25.9984 25.6358 25.9019 25.8202 25.7292ZM18.0002 15.9992C18.0002 15.6037 17.8829 15.217 17.6631 14.8881C17.4434 14.5592 17.131 14.3028 16.7656 14.1515C16.4001 14.0001 15.998 13.9605 15.61 14.0377C15.2221 14.1148 14.8657 14.3053 14.586 14.585C14.3063 14.8647 14.1158 15.2211 14.0386 15.609C13.9615 15.997 14.0011 16.3991 14.1524 16.7646C14.3038 17.13 14.5602 17.4424 14.8891 17.6622C15.218 17.8819 15.6046 17.9992 16.0002 17.9992C16.5306 17.9992 17.0393 17.7885 17.4144 17.4134C17.7895 17.0384 18.0002 16.5297 18.0002 15.9992Z" fill="#002395"/>
</svg>
