<?xml version="1.0" encoding="UTF-8"?>
<svg id="Layer_1" data-name="Layer 1" xmlns="http://www.w3.org/2000/svg" viewBox="0 0 28 28">
  <defs>
    <style>
      .cls-1 {
        fill: #002395;
      }
    </style>
  </defs>
  <path class="cls-1" d="M15.63,5.66l1.35.61c.7.32,1.24.9,1.52,1.61.28.72.26,1.51-.04,2.22l-.14.33-.5-1c-.03-.06-.08-.12-.13-.16-.06-.04-.12-.08-.19-.09-.07-.02-.14-.02-.21,0-.07.01-.13.04-.19.09l-.77.58c-.67.5-1.48.77-2.32.77s-1.65-.27-2.32-.77l-.77-.58c-.06-.04-.12-.07-.19-.09-.07-.01-.14-.01-.21,0-.07.02-.13.05-.19.09-.06.04-.1.1-.13.16l-.53,1.07-.4-.8c-.16-.31-.23-.66-.21-1,.02-.35.12-.69.3-.98.18-.3.44-.54.74-.71.3-.17.65-.26.99-.26.37,0,.74.09,1.07.27.33.18.61.43.81.74l.15.23.8-.54-.15-.23c-.43-.64-1.08-1.11-1.82-1.32.55-.34,1.17-.54,1.81-.58.64-.04,1.29.07,1.87.33ZM18.83,12.55h.48c.13,0,.25.05.34.14.09.09.14.21.14.34s-.05.25-.14.34c-.09.09-.21.14-.34.14h-.48v-.97ZM12.55,18.11c.94.3,1.95.3,2.9,0v.99l-1.45,1.45-1.45-1.45v-.99ZM14,17.37c-1.02,0-2.01-.41-2.73-1.13-.72-.72-1.13-1.71-1.13-2.73v-1.82l.66-1.31.31.23c.84.63,1.85.97,2.9.97s2.06-.34,2.9-.97l.31-.23.66,1.31v1.82c0,1.02-.41,2.01-1.13,2.73-.72.72-1.71,1.13-2.73,1.13ZM9.17,13.51h-.48c-.13,0-.25-.05-.34-.14-.09-.09-.14-.21-.14-.34s.05-.25.14-.34c.09-.09.21-.14.34-.14h.48v.97ZM2.9,23.19v.46H0v-5.95c0-.29.08-.57.24-.8.16-.24.38-.42.65-.53l4.6-1.92c.09-.04.16-.1.22-.18.05-.08.08-.17.08-.27v-1.9c0-.09-.03-.18-.08-.26-.05-.08-.12-.14-.2-.18-.58-.29-1.07-.71-1.44-1.24-.37-.53-.6-1.14-.67-1.78-.01-.12-.07-.23-.16-.31-.09-.08-.2-.12-.32-.12h-.51c-.13,0-.25-.05-.34-.14s-.14-.21-.14-.34.05-.25.14-.34c.09-.09.21-.14.34-.14h.48c.06,0,.13-.01.19-.04.06-.02.11-.06.16-.11.04-.05.08-.1.1-.16.02-.06.04-.12.04-.19v-.48c0-.07-.02-.15-.05-.21l-.83-1.66c-.14-.28-.21-.58-.21-.9,0-.31.07-.62.2-.9.13-.28.33-.53.58-.72s.53-.33.83-.39c.07-.02.13-.04.19-.09l.83-.63C5.47.36,6.14.1,6.83.03c.7-.08,1.4.03,2.04.32l1.35.61c.7.32,1.24.9,1.52,1.61.28.72.26,1.51-.04,2.22l-.08.18c-.18.1-.36.22-.53.34l-.76.57c-.76.2-1.42.69-1.83,1.36-.26.43-.41.93-.43,1.43-.02.51.09,1.01.32,1.46l.72,1.44h-.42c-.38,0-.75.15-1.02.42-.27.27-.42.64-.42,1.02s.15.75.42,1.02c.27.27.64.42,1.02.42h.58c.14.67.42,1.3.82,1.85.4.55.91,1.02,1.5,1.36v1.25l-6.92,1.92c-.51.14-.96.45-1.27.87-.32.42-.49.93-.49,1.46ZM24.14,27.99h-2.9v-3.86h-.97v3.86H7.72v-3.86h-.97v3.86h-2.9v-4.81c0-.32.1-.62.3-.88.19-.25.46-.43.77-.52l7-1.95,1.73,1.73s.1.08.16.1c.06.02.12.04.18.04s.13-.01.18-.04c.06-.02.11-.06.16-.1l1.73-1.73,7,1.95c.31.09.57.27.77.52.19.25.3.56.3.88v4.81ZM25.1,23.65v-.46c0-.53-.17-1.04-.49-1.46-.32-.42-.77-.72-1.27-.87l-6.92-1.92v-1.25c.59-.34,1.1-.8,1.5-1.36.4-.55.68-1.18.82-1.85h.58c.38,0,.75-.15,1.02-.42.27-.27.42-.64.42-1.02s-.15-.75-.42-1.02c-.27-.27-.64-.42-1.02-.42h-.44l.47-1.1c.4-.94.42-2,.06-2.95-.37-.95-1.09-1.72-2.02-2.15l-1.12-.51-.24-.48c-.14-.28-.21-.58-.21-.9,0-.31.07-.62.2-.9.13-.28.33-.53.58-.72.24-.19.53-.33.83-.39.07-.02.13-.04.19-.09l.83-.63c.56-.41,1.23-.67,1.92-.75.7-.08,1.4.03,2.04.32l1.35.61c.7.32,1.24.9,1.52,1.61.28.72.26,1.51-.04,2.22l-.56,1.28c-.03.06-.04.13-.04.19v.48c0,.13.05.25.14.34.09.09.21.14.34.14h.48c.13,0,.25.05.34.14.09.09.14.21.14.34s-.05.25-.14.34c-.09.09-.21.14-.34.14h-.51c-.12,0-.23.04-.32.12-.09.08-.14.19-.16.31-.07.64-.3,1.26-.67,1.79-.37.53-.87.96-1.45,1.24-.08.04-.15.1-.2.18-.05.08-.07.16-.07.25v1.9c0,.1.03.19.08.27.05.08.13.14.22.18l4.61,1.92c.26.11.49.29.65.53.16.24.24.52.24.8v5.95h-2.9Z"/>
</svg>