<svg width="32" height="32" viewBox="0 0 32 32" fill="none" xmlns="http://www.w3.org/2000/svg">
<path d="M16.0002 3C13.229 3 10.9746 5.25489 10.9746 8.02607V8.12911H12.4975V8.02607C12.4975 6.09451 14.0687 4.52288 16.0002 4.52288C17.9318 4.52288 19.5029 6.09451 19.5029 8.02607V8.12911H21.0258V8.02607C21.0257 5.25489 18.7714 3 16.0002 3Z" fill="#002395"/>
<path d="M26.2948 24.4402L25.1338 9.80966C25.0618 8.86701 24.2642 8.12891 23.319 8.12891H21.0256V11.527C21.0256 11.9479 20.6849 12.2885 20.2641 12.2885C19.8438 12.2885 19.5026 11.9479 19.5026 11.527V8.12891H12.4973V11.527C12.4973 11.9479 12.1562 12.2885 11.7358 12.2885C11.315 12.2885 10.9744 11.9479 10.9744 11.527V8.12891H8.68089C7.7357 8.12891 6.93818 8.86701 6.86612 9.80763L5.70465 24.4422C5.61482 25.6144 6.02143 26.7809 6.81991 27.6429C7.61845 28.5048 8.75046 28.9997 9.92564 28.9997H22.0743C23.2495 28.9997 24.3815 28.5048 25.1801 27.6428C25.9786 26.7809 26.3852 25.6143 26.2948 24.4402ZM19.4306 16.9896L15.4923 20.9279C15.3436 21.0766 15.1486 21.1512 14.9537 21.1512C14.7588 21.1512 14.5639 21.0766 14.4152 20.9279L12.5694 19.0821C12.2719 18.7846 12.2719 18.3029 12.5694 18.0054C12.8669 17.7079 13.3492 17.7079 13.6461 18.0054L14.9538 19.3126L18.3539 15.9125C18.6509 15.6155 19.1331 15.6155 19.4306 15.9125C19.728 16.2099 19.728 16.6922 19.4306 16.9896Z" fill="#002395"/>
</svg>
