<?xml version="1.0" encoding="UTF-8"?>
<svg id="Layer_1" data-name="Layer 1" xmlns="http://www.w3.org/2000/svg" viewBox="0 0 28 28">
  <defs>
    <style>
      .cls-1, .cls-2 {
        fill: #002395;
      }

      .cls-2 {
        fill-rule: evenodd;
      }
    </style>
  </defs>
  <path class="cls-2" d="M18.95,19.88h1.84V6.32h-.34c-.63,0-1.2-.3-1.57-.76-.37.46-.93.76-1.57.76h-1.74c-.63,0-1.2-.3-1.57-.76-.37.46-.93.76-1.57.76h-1.74c-.63,0-1.2-.3-1.57-.76-.37.46-.93.76-1.57.76h-.34v13.56h1.84v-2.04c0-1.36,1.11-2.47,2.47-2.47h4.96c1.36,0,2.47,1.11,2.47,2.47v2.04ZM16.27,18.51c0-.24.2-.44.44-.44s.44.2.44.44v1.37h.93v-2.04c0-.88-.72-1.6-1.6-1.6h-1.14v3.64h.93v-1.37ZM11.73,18.51v1.37h.93v-3.64h-1.14c-.88,0-1.6.72-1.6,1.6v2.04h.93v-1.37c0-.24.2-.44.44-.44s.44.19.44.44ZM13.53,16.24v.93h.93v-.93h-.93ZM14.47,19.88v-1.84h-.93v1.84h.93ZM13.56,0h-2.54l-1.19,2.38h3.73V0ZM18.17,2.38l-1.19-2.38h-2.54v2.38h3.73ZM13.56,3.25h-4v1.06c0,.62.51,1.13,1.13,1.13h1.74c.62,0,1.13-.51,1.13-1.13v-1.06ZM18.44,3.25h-4v1.06c0,.62.51,1.13,1.13,1.13h1.74c.62,0,1.13-.51,1.13-1.13v-1.06ZM19.31,4.31c0,.62.51,1.13,1.13,1.13h1.74c.62,0,1.13-.51,1.13-1.13v-.96s0-.07,0-.11h-3.99v1.06ZM20.57.26c-.16-.16-.38-.26-.62-.26h-2l1.19,2.38h3.55l-2.12-2.12ZM8.05,0c-.23,0-.45.09-.62.26l-2.12,2.12h.55c.24,0,.44.2.44.44s-.2.44-.44.44h-1.16s0,.07,0,.11v.96c0,.62.51,1.13,1.13,1.13h1.74c.62,0,1.13-.51,1.13-1.13v-1.06h-.8c-.24,0-.44-.2-.44-.44s.2-.44.44-.44h.96l1.19-2.38h-2ZM5.82,6.32c-.14,0-.28-.01-.41-.04v13.61h.93V6.32h-.52ZM7.86,21.68h15.63v-.93H4.51v.93h1.25c.24,0,.44.2.44.44s-.2.44-.44.44h-.35v5.44h17.17v-5.44H7.86c-.24,0-.44-.19-.44-.44s.2-.44.44-.44ZM15.37,8.73c-.36-.39-.84-.61-1.37-.61s-1.02.22-1.37.61c-.28.31-.44.68-.47,1.09l.29-.29c.31-.31.78-.39,1.18-.19.24.12.52.12.76,0,.39-.2.87-.12,1.18.19l.29.29c-.03-.4-.19-.78-.47-1.09ZM14,13.56c.86,0,1.56-.64,1.65-1.49l.11-1.11-.82-.82s-.11-.05-.17-.03c-.48.24-1.06.24-1.54,0-.06-.03-.13-.02-.17.03l-.82.82.11,1.11c.09.85.79,1.49,1.65,1.49ZM20.34,26.87h-4.54c-.48,0-.87-.39-.87-.87v-1.84c0-.48.39-.87.87-.87h4.54c.48,0,.87.39.87.87v1.84c0,.48-.39.87-.87.87ZM20.34,24.17h-4.54v1.84h4.54v-1.84Z"/>
  <path class="cls-1" d="M22.23,6.27h.93v13.56h-.93V6.27Z"/>
</svg>