<svg width="32" height="32" viewBox="0 0 32 32" fill="none" xmlns="http://www.w3.org/2000/svg">
<g clip-path="url(#clip0_120_3663)">
<path d="M15.9998 2.66602C8.63984 2.66602 2.6665 8.63935 2.6665 15.9993C2.6665 23.3593 8.63984 29.3327 15.9998 29.3327C23.3598 29.3327 29.3332 23.3593 29.3332 15.9993C29.3332 8.63935 23.3598 2.66602 15.9998 2.66602ZM15.9998 7.99935C18.5732 7.99935 20.6665 10.0927 20.6665 12.666C20.6665 15.2393 18.5732 17.3327 15.9998 17.3327C13.4265 17.3327 11.3332 15.2393 11.3332 12.666C11.3332 10.0927 13.4265 7.99935 15.9998 7.99935ZM15.9998 26.666C13.2932 26.666 10.0932 25.5727 7.81317 22.826C10.0665 21.066 12.9065 19.9993 15.9998 19.9993C19.0932 19.9993 21.9332 21.066 24.1865 22.826C21.9065 25.5727 18.7065 26.666 15.9998 26.666Z" fill="#002395"/>
</g>
<defs>
<clipPath id="clip0_120_3663">
<rect width="32" height="32" fill="white"/>
</clipPath>
</defs>
</svg>
