<svg width="20" height="20" viewBox="0 0 20 20" fill="none" xmlns="http://www.w3.org/2000/svg">
<path d="M15.4301 13.4529C14.4719 13.4529 13.6085 13.8667 13.0093 14.525L7.61977 11.187C7.76366 10.8186 7.84346 10.4185 7.84346 9.99998C7.84346 9.58128 7.76366 9.18119 7.61977 8.813L13.0093 5.47484C13.6085 6.1331 14.4719 6.54707 15.4301 6.54707C17.2352 6.54707 18.7037 5.07857 18.7037 3.27346C18.7037 1.46835 17.2352 0 15.4301 0C13.625 0 12.1565 1.4685 12.1565 3.27361C12.1565 3.69216 12.2365 4.09225 12.3802 4.46059L6.9908 7.7986C6.39159 7.14034 5.52825 6.72637 4.57 6.72637C2.76489 6.72637 1.29639 8.19502 1.29639 9.99998C1.29639 11.8051 2.76489 13.2736 4.57 13.2736C5.52825 13.2736 6.39159 12.8598 6.9908 12.2014L12.3802 15.5394C12.2365 15.9077 12.1565 16.3078 12.1565 16.7265C12.1565 18.5315 13.625 20 15.4301 20C17.2352 20 18.7037 18.5315 18.7037 16.7265C18.7037 14.9214 17.2352 13.4529 15.4301 13.4529ZM13.3502 3.27361C13.3502 2.12677 14.2833 1.19369 15.4301 1.19369C16.577 1.19369 17.51 2.12677 17.51 3.27361C17.51 4.42046 16.577 5.35353 15.4301 5.35353C14.2833 5.35353 13.3502 4.42046 13.3502 3.27361ZM4.57 12.0799C3.423 12.0799 2.48993 11.1468 2.48993 9.99998C2.48993 8.85313 3.423 7.92006 4.57 7.92006C5.71685 7.92006 6.64977 8.85313 6.64977 9.99998C6.64977 11.1468 5.71685 12.0799 4.57 12.0799ZM13.3502 16.7263C13.3502 15.5795 14.2833 14.6464 15.4301 14.6464C16.577 14.6464 17.51 15.5795 17.51 16.7263C17.51 17.8732 16.577 18.8063 15.4301 18.8063C14.2833 18.8063 13.3502 17.8732 13.3502 16.7263Z" fill="#8C8C8C"/>
</svg>
