<svg width="200" height="200" viewBox="0 0 200 200" fill="none" xmlns="http://www.w3.org/2000/svg">
<g clip-path="url(#clip0_1383_3309)">
<path d="M100 200C155.228 200 200 155.228 200 100C200 44.7715 155.228 0 100 0C44.7715 0 0 44.7715 0 100C0 155.228 44.7715 200 100 200Z" fill="#00BA00"/>
<path fill-rule="evenodd" clip-rule="evenodd" d="M68.7748 148.77L32.2016 109.626C27.1945 104.267 27.4819 95.7881 32.841 90.781C38.2 85.7739 46.6788 86.0621 51.6859 91.4204L79.8969 121.614L124.551 79.892C124.953 79.5165 125.372 79.1724 125.806 78.8558L146.806 59.2362C152.165 54.2291 160.644 54.5172 165.65 59.8763C170.658 65.2346 170.369 73.7141 165.011 78.7212L100.874 138.646L100.806 138.573L78.6197 159.302L68.7748 148.77Z" fill="white"/>
</g>
<defs>
<clipPath id="clip0_1383_3309">
<rect width="200" height="200" fill="white"/>
</clipPath>
</defs>
</svg>
