<?xml version="1.0" encoding="UTF-8"?>
<svg id="Layer_1" data-name="Layer 1" xmlns="http://www.w3.org/2000/svg" viewBox="0 0 40 40">
  <defs>
    <style>
      .cls-1 {
        fill: #fff;
      }

      .cls-2 {
        fill: #595959;
      }
    </style>
  </defs>
  <rect class="cls-2" x="1.5" y="1.5" width="37" height="37" rx="4.91" ry="4.91"/>
  <path class="cls-1" d="M27.37,28.22c-.2,0-.41-.04-.61-.12l-6.76-2.63-6.76,2.63c-.67.26-1.4.08-1.87-.46-.47-.54-.54-1.29-.19-1.91l7.36-13.09c.3-.53.84-.85,1.45-.85s1.15.32,1.45.85l7.36,13.09c.35.62.27,1.37-.19,1.91-.33.38-.78.58-1.25.58ZM20,24.4l7.12,2.77c.41.16.67-.1.75-.19.07-.08.29-.38.08-.76l-7.36-13.09c-.24-.43-.93-.43-1.17,0l-7.36,13.09c-.21.38,0,.68.08.76.07.08.34.34.75.19l7.12-2.77Z"/>
</svg>