<?xml version="1.0" encoding="UTF-8"?>
<svg id="Layer_1" data-name="Layer 1" xmlns="http://www.w3.org/2000/svg" viewBox="0 0 40 40">
  <defs>
    <style>
      .cls-1 {
        fill: #595959;
      }
    </style>
  </defs>
  <path class="cls-1" d="M27.37,28.32c-.22,0-.44-.04-.65-.12l-6.72-2.61-6.72,2.61c-.71.27-1.49.08-1.98-.49-.5-.57-.58-1.37-.21-2.03l7.37-13.09c.32-.57.9-.9,1.55-.9s1.23.34,1.55.9l7.37,13.09c.37.66.29,1.46-.21,2.03-.35.4-.83.62-1.33.62ZM20,24.28l7.16,2.79c.34.13.57-.09.63-.16.06-.07.25-.32.06-.64l-7.36-13.09c-.15-.26-.39-.29-.49-.29s-.34.03-.49.29l-7.36,13.09c-.18.32,0,.57.06.64.06.07.28.29.63.16l7.16-2.79Z"/>
  <path class="cls-1" d="M33.59,39.34H6.41c-3.17,0-5.75-2.58-5.75-5.75V6.41C.66,3.24,3.24.66,6.41.66h27.18c3.17,0,5.75,2.58,5.75,5.75v27.18c0,3.17-2.58,5.75-5.75,5.75ZM6.41,2.34c-2.25,0-4.07,1.83-4.07,4.07v27.18c0,2.25,1.83,4.07,4.07,4.07h27.18c2.25,0,4.07-1.83,4.07-4.07V6.41c0-2.25-1.83-4.07-4.07-4.07H6.41Z"/>
</svg>