<svg width="40" height="40" viewBox="0 0 40 40" fill="none" xmlns="http://www.w3.org/2000/svg">
<g clip-path="url(#clip0_120_3324)">
<path d="M33.3272 14.7033C31.4785 7.33865 24.0097 2.86711 16.6451 4.71581C10.8898 6.16057 6.71076 11.1348 6.28018 17.053C2.19368 17.7269 -0.572818 21.5859 0.101093 25.6724C0.700168 29.3054 3.8481 31.966 7.53005 31.9513H13.7794V29.4516H7.53005C4.76894 29.4516 2.53059 27.2133 2.53059 24.4522C2.53059 21.6911 4.76894 19.4527 7.53005 19.4527C8.22036 19.4527 8.77991 18.8932 8.77991 18.2028C8.77366 11.9903 13.8049 6.949 20.0174 6.94283C25.3953 6.93744 30.0247 10.7394 31.065 16.0156C31.1677 16.5424 31.5952 16.9449 32.1274 17.0155C35.5443 17.5021 37.9198 20.6665 37.4333 24.0834C36.9964 27.1516 34.3766 29.4362 31.2774 29.4516H26.278V31.9513H31.2774C36.1094 31.9367 40.0146 28.0078 39.9999 23.1758C39.9877 19.1536 37.2346 15.6578 33.3272 14.7033Z" fill="#8C8C8C"/>
<path d="M19.1411 19.8146L14.1416 24.8141L15.9039 26.5764L18.7786 23.7142V35.7004H21.2783V23.7142L24.1405 26.5764L25.9028 24.8141L20.9034 19.8146C20.4158 19.33 19.6286 19.33 19.1411 19.8146Z" fill="#8C8C8C"/>
</g>
<defs>
<clipPath id="clip0_120_3324">
<rect width="40" height="40" fill="white"/>
</clipPath>
</defs>
</svg>
