<svg width="40" height="40" viewBox="0 0 40 40" fill="none" xmlns="http://www.w3.org/2000/svg">
<rect width="40" height="40" rx="20" fill="#002395"/>
<g clip-path="url(#clip0_1177_2872)">
<path d="M28.3333 20.8333C28.1123 20.8333 27.9003 20.921 27.7441 21.0773C27.5878 21.2336 27.5 21.4456 27.5 21.6666V25.1774C27.4993 25.7932 27.2544 26.3835 26.819 26.8189C26.3836 27.2544 25.7932 27.4993 25.1775 27.4999H14.8225C14.2067 27.4993 13.6164 27.2544 13.181 26.8189C12.7455 26.3835 12.5006 25.7932 12.5 25.1774V21.6666C12.5 21.4456 12.4122 21.2336 12.2559 21.0773C12.0996 20.921 11.8877 20.8333 11.6666 20.8333C11.4456 20.8333 11.2337 20.921 11.0774 21.0773C10.9211 21.2336 10.8333 21.4456 10.8333 21.6666V25.1774C10.8344 26.2351 11.2551 27.2491 12.0029 27.997C12.7508 28.7448 13.7648 29.1655 14.8225 29.1666H25.1775C26.2351 29.1655 27.2492 28.7448 27.997 27.997C28.7449 27.2491 29.1655 26.2351 29.1666 25.1774V21.6666C29.1666 21.4456 29.0789 21.2336 28.9226 21.0773C28.7663 20.921 28.5543 20.8333 28.3333 20.8333Z" fill="white"/>
<path d="M15.5891 17.2558L19.1666 13.6783V24.1667C19.1666 24.3877 19.2544 24.5996 19.4107 24.7559C19.567 24.9122 19.779 25 20 25C20.221 25 20.4329 24.9122 20.5892 24.7559C20.7455 24.5996 20.8333 24.3877 20.8333 24.1667V13.6783L24.4108 17.2558C24.568 17.4076 24.7785 17.4916 24.997 17.4897C25.2155 17.4878 25.4245 17.4002 25.579 17.2457C25.7335 17.0912 25.8211 16.8821 25.823 16.6637C25.8249 16.4452 25.7409 16.2347 25.5891 16.0775L20.5891 11.0775C20.4329 10.9213 20.2209 10.8335 20 10.8335C19.779 10.8335 19.5671 10.9213 19.4108 11.0775L14.4108 16.0775C14.259 16.2347 14.175 16.4452 14.1769 16.6637C14.1788 16.8821 14.2665 17.0912 14.421 17.2457C14.5755 17.4002 14.7845 17.4878 15.003 17.4897C15.2215 17.4916 15.432 17.4076 15.5891 17.2558Z" fill="white"/>
</g>
<defs>
<clipPath id="clip0_1177_2872">
<rect width="20" height="20" fill="white" transform="translate(10 10)"/>
</clipPath>
</defs>
</svg>
