<svg width="40" height="40" viewBox="0 0 40 40" fill="none" xmlns="http://www.w3.org/2000/svg">
<path d="M36.2499 18.3335V28.3335C36.3478 29.1779 36.2534 30.0336 35.974 30.8364C35.6945 31.6392 35.2371 32.3685 34.636 32.9696C34.0349 33.5707 33.3056 34.0281 32.5028 34.3076C31.7 34.587 30.8443 34.6814 29.9999 34.5835H9.9999C9.15547 34.6814 8.29983 34.587 7.497 34.3076C6.69418 34.0281 5.96493 33.5707 5.36383 32.9696C4.76273 32.3685 4.30533 31.6392 4.02584 30.8364C3.74636 30.0336 3.65202 29.1779 3.7499 28.3335V11.6668C3.65202 10.8224 3.74636 9.96677 4.02584 9.16394C4.30533 8.36111 4.76273 7.63187 5.36383 7.03077C5.96493 6.42967 6.69418 5.97226 7.497 5.69278C8.29983 5.41329 9.15547 5.31896 9.9999 5.41683H23.3332C23.6648 5.41683 23.9827 5.54853 24.2171 5.78295C24.4515 6.01737 24.5832 6.33531 24.5832 6.66683C24.5832 6.99835 24.4515 7.3163 24.2171 7.55072C23.9827 7.78514 23.6648 7.91683 23.3332 7.91683H9.9999C7.37156 7.91683 6.2499 9.0385 6.2499 11.6668V27.0835L10.4832 22.8502C10.7979 22.5379 11.2233 22.3627 11.6666 22.3627C12.1099 22.3627 12.5352 22.5379 12.8499 22.8502L14.4166 24.4168C14.5723 24.5695 14.7818 24.655 14.9999 24.655C15.218 24.655 15.4275 24.5695 15.5832 24.4168L23.8166 16.1835C24.1312 15.8712 24.5566 15.696 24.9999 15.696C25.4432 15.696 25.8686 15.8712 26.1832 16.1835L33.7499 23.7502V18.3335C33.7499 18.002 33.8816 17.684 34.116 17.4496C34.3504 17.2152 34.6684 17.0835 34.9999 17.0835C35.3314 17.0835 35.6494 17.2152 35.8838 17.4496C36.1182 17.684 36.2499 18.002 36.2499 18.3335ZM13.3216 12.9168C12.7682 12.9184 12.2381 13.1395 11.8476 13.5316C11.4572 13.9237 11.2383 14.4547 11.2391 15.0081C11.2398 15.5614 11.4602 16.0919 11.8518 16.4829C12.2433 16.8739 12.774 17.0935 13.3274 17.0935C13.8808 17.0935 14.4115 16.8739 14.803 16.4829C15.1946 16.0919 15.415 15.5614 15.4157 15.0081C15.4165 14.4547 15.1976 13.9237 14.8072 13.5316C14.4167 13.1395 13.8866 12.9184 13.3332 12.9168H13.3216ZM30.8832 8.3835L31.2499 8.0185V11.6668C31.2499 11.9984 31.3816 12.3163 31.616 12.5507C31.8504 12.7851 32.1684 12.9168 32.4999 12.9168C32.8314 12.9168 33.1494 12.7851 33.3838 12.5507C33.6182 12.3163 33.7499 11.9984 33.7499 11.6668V8.0185L34.1166 8.3835C34.3535 8.6043 34.6669 8.7245 34.9908 8.71879C35.3146 8.71308 35.6236 8.58189 35.8526 8.35287C36.0816 8.12385 36.2128 7.81487 36.2185 7.49104C36.2242 7.1672 36.104 6.85379 35.8832 6.61683L33.3832 4.11683C33.1486 3.88316 32.831 3.75195 32.4999 3.75195C32.1688 3.75195 31.8512 3.88316 31.6166 4.11683L29.1166 6.61683C28.8958 6.85379 28.7756 7.1672 28.7813 7.49104C28.787 7.81487 28.9182 8.12385 29.1472 8.35287C29.3762 8.58189 29.6852 8.71308 30.009 8.71879C30.3329 8.7245 30.6463 8.6043 30.8832 8.3835Z" fill="#002395"/>
</svg>
