<svg width="32" height="32" viewBox="0 0 32 32" fill="none" xmlns="http://www.w3.org/2000/svg">
<g clip-path="url(#clip0_387_5292)">
<path d="M16.0002 8.73633C15.1744 8.73633 14.3829 9.08752 13.8288 9.69983C13.2747 10.3121 13.0041 11.1345 13.0862 11.9561C13.2019 13.1124 13.1772 12.8655 13.2924 14.0183C13.4321 15.4153 14.5962 16.4688 16.0002 16.4688C17.4041 16.4688 18.5682 15.4153 18.7079 14.0183C18.823 12.8668 18.7984 13.1138 18.9141 11.9562C18.9962 11.1346 18.7256 10.3121 18.1715 9.69983C17.6174 9.08752 16.826 8.73633 16.0002 8.73633ZM16.0002 9.67383C16.5699 9.67383 17.0942 9.90652 17.4764 10.3288C17.7757 10.6595 17.9505 11.0652 17.9851 11.4978L17.6732 11.1859C17.3392 10.8519 16.8301 10.7706 16.4064 10.9838C16.1519 11.1118 15.8482 11.1118 15.5938 10.9838C15.1703 10.7708 14.6611 10.852 14.327 11.1859L14.0151 11.4978C14.0497 11.0652 14.2245 10.6595 14.5238 10.3288C14.9062 9.90645 15.4305 9.67383 16.0002 9.67383ZM17.775 13.925C17.6834 14.8407 16.9204 15.5313 16.0002 15.5313C15.0799 15.5313 14.3169 14.8407 14.2253 13.925L14.1061 12.7328L14.9901 11.8489C15.0376 11.8014 15.1109 11.7903 15.1726 11.8213C15.6908 12.082 16.3095 12.082 16.8278 11.8213C16.8895 11.7903 16.9629 11.8013 17.0104 11.8489L17.8944 12.7328L17.775 13.925Z" fill="#8C8C8C"/>
<path d="M26.209 22.3262H26.1758V10.7153C26.1758 10.4563 25.966 10.2465 25.7071 10.2465C25.4481 10.2465 25.2383 10.4563 25.2383 10.7153V22.3261H24.2344V7.73238H24.7961C24.9476 7.73238 25.0955 7.71662 25.2383 7.68675V8.52775C25.2383 8.78669 25.4481 8.9965 25.707 8.9965C25.966 8.9965 26.1758 8.78669 26.1758 8.52775V7.23194C26.65 6.83606 26.9523 6.24075 26.9523 5.57613V4.54575C26.9523 4.27744 26.8961 4.01737 26.7854 3.77269C26.7848 3.77144 26.7843 3.77025 26.7838 3.769C26.6904 3.56381 26.5623 3.37906 26.4031 3.21988L23.7325 0.549125C23.3783 0.195 22.9075 0 22.4066 0H9.59345C9.09258 0 8.62177 0.195 8.26758 0.549125L5.59683 3.21994C5.4377 3.37913 5.30958 3.56387 5.2162 3.76906C5.21564 3.77031 5.21514 3.7715 5.21458 3.77275C5.10383 4.01744 5.04764 4.2775 5.04764 4.54581V5.57619C5.04764 6.24081 5.34989 6.83612 5.8242 7.232V22.3262H5.79102C5.27408 22.3262 4.85352 22.7467 4.85352 23.2637V24.2676C4.85352 24.7845 5.27408 25.2051 5.79102 25.2051H5.8242V31.5312C5.8242 31.7902 6.03402 32 6.29295 32H25.707C25.966 32 26.1758 31.7902 26.1758 31.5312V25.2051H26.209C26.7259 25.2051 27.1465 24.7845 27.1465 24.2676V23.2637C27.1465 22.7467 26.726 22.3262 26.209 22.3262ZM23.2969 22.3262H21.3223V20.1271C21.3223 18.6634 20.1315 17.4726 18.6678 17.4726H13.3322C11.8685 17.4726 10.6777 18.6634 10.6777 20.1271V22.3262H8.70314V7.73244H9.0707C9.75333 7.73244 10.3628 7.41356 10.7582 6.917C11.1536 7.41356 11.7631 7.73244 12.4457 7.73244H14.3125C14.9951 7.73244 15.6046 7.41356 16 6.917C16.3954 7.41356 17.0049 7.73244 17.6875 7.73244H19.5543C20.237 7.73244 20.8465 7.41356 21.2418 6.917C21.6372 7.41356 22.2467 7.73244 22.9293 7.73244H23.2969V22.3262ZM18.9121 20.3824C18.6532 20.3824 18.4434 20.5922 18.4434 20.8512V22.3262H17.4395V18.4102H18.6678C19.6145 18.4102 20.3848 19.1804 20.3848 20.1272V22.3263H19.381V20.8512C19.3809 20.5923 19.171 20.3824 18.9121 20.3824ZM13.5566 22.3262V20.8512C13.5566 20.5922 13.3468 20.3824 13.0879 20.3824C12.829 20.3824 12.6191 20.5922 12.6191 20.8512V22.3262H11.6153V20.1271C11.6153 19.1804 12.3855 18.4101 13.3323 18.4101H14.5606V22.3261H13.5566V22.3262ZM16.502 19.4141H15.4981V18.4102H16.502V19.4141ZM15.4981 20.3516H16.502V22.3262H15.4981V20.3516ZM12.7952 0.9375H15.5313V3.4945H11.5166L12.7952 0.9375ZM19.2048 0.9375L20.4834 3.4945H16.4688V0.9375H19.2048ZM11.227 4.432H15.5313V5.57619C15.5313 6.24819 14.9845 6.79494 14.3125 6.79494H12.4457C11.7737 6.79494 11.227 6.24819 11.227 5.57619V4.432ZM16.4688 4.432H20.7731V5.57619C20.7731 6.24819 20.2263 6.79494 19.5543 6.79494H17.6875C17.0155 6.79494 16.4688 6.24819 16.4688 5.57619V4.432ZM22.9293 6.79494C22.2573 6.79494 21.7106 6.24819 21.7106 5.57619V4.432H26.008C26.0125 4.46956 26.0148 4.5075 26.0148 4.54575V5.57613C26.0148 6.24813 25.4681 6.79488 24.7961 6.79488L22.9293 6.79494ZM22.4066 0.9375C22.657 0.9375 22.8924 1.03506 23.0695 1.21212L25.3519 3.49456H21.5316L20.253 0.9375H22.4066ZM8.93058 1.21212C9.10764 1.03506 9.34308 0.9375 9.59345 0.9375H11.747L10.4685 3.4945H9.43208C9.17314 3.4945 8.96333 3.70431 8.96333 3.96325C8.96333 4.22219 9.17314 4.432 9.43208 4.432H10.2894V5.57619C10.2894 6.24819 9.74264 6.79494 9.07064 6.79494H7.20389C6.53189 6.79494 5.98514 6.24819 5.98514 5.57619V4.54575C5.98514 4.5075 5.98745 4.4695 5.99195 4.432H7.24458C7.50352 4.432 7.71333 4.22219 7.71333 3.96325C7.71333 3.70431 7.50352 3.4945 7.24458 3.4945H6.64808L8.93058 1.21212ZM6.76177 7.68681C6.90452 7.71669 7.05245 7.73244 7.20395 7.73244H7.76564V22.3262H6.76177V7.68681ZM26.209 24.2676H9.38939C9.13045 24.2676 8.92064 24.4774 8.92064 24.7363C8.92064 24.9953 9.13045 25.2051 9.38939 25.2051H25.2383V31.0625H6.76177V25.2051H7.13945C7.39839 25.2051 7.6082 24.9953 7.6082 24.7363C7.6082 24.4774 7.39839 24.2676 7.13945 24.2676H5.79102V23.2637H26.209V24.2676Z" fill="#8C8C8C"/>
<path d="M18.4102 30.0586H23.2969C23.8138 30.0586 24.2344 29.638 24.2344 29.1211V27.1465C24.2344 26.6295 23.8138 26.209 23.2969 26.209H18.4102C17.8932 26.209 17.4727 26.6295 17.4727 27.1465V29.1211C17.4727 29.638 17.8932 30.0586 18.4102 30.0586ZM18.4102 27.1465H23.2969L23.2975 29.1211C23.011 29.1211 18.6995 29.1211 18.4102 29.1211L18.4102 27.1465Z" fill="#8C8C8C"/>
</g>
<defs>
<clipPath id="clip0_387_5292">
<rect width="32" height="32" fill="white"/>
</clipPath>
</defs>
</svg>
