<?xml version="1.0" encoding="UTF-8"?>
<svg id="Layer_1" data-name="Layer 1" xmlns="http://www.w3.org/2000/svg" xmlns:xlink="http://www.w3.org/1999/xlink" viewBox="0 0 28 28">
  <defs>
    <style>
      .cls-1 {
        fill: none;
      }

      .cls-2 {
        fill: #8c8c8c;
      }

      .cls-3 {
        clip-path: url(#clippath);
      }
    </style>
    <clipPath id="clippath">
      <rect class="cls-1" width="28" height="28"/>
    </clipPath>
  </defs>
  <g class="cls-3">
    <g>
      <path class="cls-2" d="M14,7.64c-.72,0-1.42.31-1.9.84-.48.54-.72,1.26-.65,1.97.1,1.01.08.8.18,1.8.12,1.22,1.14,2.14,2.37,2.14s2.25-.92,2.37-2.14c.1-1.01.08-.79.18-1.8.07-.72-.16-1.44-.65-1.97-.48-.54-1.18-.84-1.9-.84ZM14,8.46c.5,0,.96.2,1.29.57.26.29.41.64.45,1.02l-.27-.27c-.29-.29-.74-.36-1.11-.18-.22.11-.49.11-.71,0-.37-.19-.82-.12-1.11.18l-.27.27c.03-.38.18-.73.45-1.02.33-.37.79-.57,1.29-.57ZM15.55,12.18c-.08.8-.75,1.41-1.55,1.41s-1.47-.6-1.55-1.41l-.1-1.04.77-.77s.11-.05.16-.02c.45.23.99.23,1.45,0,.05-.03.12-.02.16.02l.77.77-.1,1.04Z"/>
      <path class="cls-2" d="M22.93,19.54h-.03v-10.16c0-.23-.18-.41-.41-.41s-.41.18-.41.41v10.16h-.88V6.77h.49c.13,0,.26-.01.39-.04v.74c0,.23.18.41.41.41s.41-.18.41-.41v-1.13c.41-.35.68-.87.68-1.45v-.9c0-.23-.05-.46-.15-.68,0,0,0,0,0,0-.08-.18-.19-.34-.33-.48l-2.34-2.34c-.31-.31-.72-.48-1.16-.48h-11.21c-.44,0-.85.17-1.16.48l-2.34,2.34c-.14.14-.25.3-.33.48,0,0,0,0,0,0-.1.21-.15.44-.15.68v.9c0,.58.26,1.1.68,1.45v13.21h-.03c-.45,0-.82.37-.82.82v.88c0,.45.37.82.82.82h.03v5.54c0,.23.18.41.41.41h16.99c.23,0,.41-.18.41-.41v-5.54h.03c.45,0,.82-.37.82-.82v-.88c0-.45-.37-.82-.82-.82ZM20.38,19.54h-1.73v-1.92c0-1.28-1.04-2.32-2.32-2.32h-4.67c-1.28,0-2.32,1.04-2.32,2.32v1.92h-1.73V6.77h.32c.6,0,1.13-.28,1.48-.71.35.43.88.71,1.48.71h1.63c.6,0,1.13-.28,1.48-.71.35.43.88.71,1.48.71h1.63c.6,0,1.13-.28,1.48-.71.35.43.88.71,1.48.71h.32v12.77ZM16.55,17.83c-.23,0-.41.18-.41.41v1.29h-.88v-3.43h1.07c.83,0,1.5.67,1.5,1.5v1.92h-.88v-1.29c0-.23-.18-.41-.41-.41ZM11.86,19.54v-1.29c0-.23-.18-.41-.41-.41s-.41.18-.41.41v1.29h-.88v-1.92c0-.83.67-1.5,1.5-1.5h1.07v3.43h-.88ZM14.44,16.99h-.88v-.88h.88v.88ZM13.56,17.81h.88v1.73h-.88v-1.73ZM11.2.82h2.39v2.24h-3.51l1.12-2.24ZM16.8.82l1.12,2.24h-3.51V.82h2.39ZM9.82,3.88h3.77v1c0,.59-.48,1.07-1.07,1.07h-1.63c-.59,0-1.07-.48-1.07-1.07v-1ZM14.41,3.88h3.77v1c0,.59-.48,1.07-1.07,1.07h-1.63c-.59,0-1.07-.48-1.07-1.07v-1ZM20.06,5.95c-.59,0-1.07-.48-1.07-1.07v-1h3.76s0,.07,0,.1v.9c0,.59-.48,1.07-1.07,1.07h-1.63ZM19.61.82c.22,0,.43.09.58.24l2,2h-3.34l-1.12-2.24h1.88ZM7.81,1.06c.15-.15.36-.24.58-.24h1.88l-1.12,2.24h-.91c-.23,0-.41.18-.41.41s.18.41.41.41h.75v1c0,.59-.48,1.07-1.07,1.07h-1.63c-.59,0-1.07-.48-1.07-1.07v-.9s0-.07,0-.1h1.1c.23,0,.41-.18.41-.41s-.18-.41-.41-.41h-.52l2-2ZM5.92,6.73c.12.03.25.04.39.04h.49v12.77h-.88V6.73ZM22.93,21.23h-14.72c-.23,0-.41.18-.41.41s.18.41.41.41h13.87v5.13H5.92v-5.13h.33c.23,0,.41-.18.41-.41s-.18-.41-.41-.41h-1.18v-.88h17.87v.88Z"/>
      <path class="cls-2" d="M16.11,26.3h4.28c.45,0,.82-.37.82-.82v-1.73c0-.45-.37-.82-.82-.82h-4.28c-.45,0-.82.37-.82.82v1.73c0,.45.37.82.82.82ZM16.11,23.75h4.28v1.73h-4.28v-1.73Z"/>
    </g>
  </g>
</svg>