<svg width="24" height="24" viewBox="0 0 24 24" fill="none" xmlns="http://www.w3.org/2000/svg">
<g clip-path="url(#clip0_312_7089)">
<path d="M12 24C18.6274 24 24 18.6274 24 12C24 5.37258 18.6274 0 12 0C5.37258 0 0 5.37258 0 12C0 18.6274 5.37258 24 12 24Z" fill="#29A71A"/>
<path d="M17.2908 6.70914C16.0423 5.44818 14.3843 4.67488 12.6158 4.52872C10.8474 4.38255 9.08493 4.87315 7.64635 5.91202C6.20777 6.95088 5.18778 8.46963 4.77035 10.1943C4.35293 11.919 4.56556 13.7361 5.36988 15.3178L4.58034 19.151C4.57215 19.1891 4.57191 19.2285 4.57966 19.2668C4.5874 19.305 4.60295 19.3413 4.62534 19.3732C4.65813 19.4217 4.70495 19.4591 4.75953 19.4803C4.81411 19.5015 4.87385 19.5055 4.93079 19.4919L8.68761 18.6014C10.2649 19.3854 12.0691 19.5843 13.7793 19.1629C15.4895 18.7414 16.9947 17.7269 18.0271 16.2998C19.0595 14.8727 19.5521 13.1257 19.4173 11.3695C19.2824 9.6133 18.5289 7.96191 17.2908 6.70914ZM16.1194 16.0582C15.2556 16.9196 14.1432 17.4883 12.9391 17.684C11.735 17.8797 10.4998 17.6926 9.40761 17.1491L8.88397 16.89L6.58079 17.4355L6.58761 17.4069L7.06488 15.0887L6.80852 14.5828C6.25046 13.4868 6.0536 12.2423 6.24614 11.0276C6.43867 9.81284 7.01072 8.69021 7.88034 7.8205C8.97303 6.72815 10.4548 6.11451 11.9999 6.11451C13.5449 6.11451 15.0267 6.72815 16.1194 7.8205C16.1287 7.83118 16.1388 7.8412 16.1494 7.8505C17.2286 8.94567 17.831 10.423 17.8254 11.9605C17.8198 13.498 17.2065 14.971 16.1194 16.0582Z" fill="white"/>
<path d="M15.9149 14.3578C15.6326 14.8024 15.1867 15.3465 14.6263 15.4815C13.6445 15.7187 12.1376 15.4896 10.2626 13.7415L10.2395 13.721C8.59082 12.1924 8.16264 10.9201 8.26627 9.91101C8.32355 9.33828 8.80082 8.8201 9.20309 8.48192C9.26669 8.42764 9.34211 8.38899 9.42331 8.36907C9.50452 8.34915 9.58926 8.34851 9.67075 8.36719C9.75225 8.38588 9.82825 8.42337 9.89266 8.47668C9.95708 8.52999 10.0081 8.59763 10.0417 8.67419L10.6485 10.0378C10.688 10.1262 10.7026 10.2237 10.6908 10.3198C10.679 10.4159 10.6413 10.507 10.5817 10.5833L10.2749 10.9815C10.2091 11.0637 10.1693 11.1637 10.1608 11.2687C10.1523 11.3737 10.1754 11.4788 10.2272 11.5706C10.399 11.8719 10.8108 12.3151 11.2676 12.7256C11.7804 13.1892 12.349 13.6133 12.709 13.7578C12.8053 13.7972 12.9112 13.8068 13.0131 13.7854C13.1149 13.764 13.208 13.7126 13.2804 13.6378L13.6363 13.2792C13.7049 13.2115 13.7903 13.1632 13.8838 13.1392C13.9772 13.1153 14.0753 13.1165 14.1681 13.1428L15.6095 13.5519C15.689 13.5763 15.7618 13.6186 15.8225 13.6754C15.8832 13.7323 15.9301 13.8023 15.9595 13.8801C15.989 13.9578 16.0003 14.0413 15.9926 14.1241C15.9848 14.2069 15.9583 14.2869 15.9149 14.3578Z" fill="white"/>
</g>
<defs>
<clipPath id="clip0_312_7089">
<rect width="24" height="24" fill="white"/>
</clipPath>
</defs>
</svg>
